SplineFontDB: 3.2
FontName: Untitled1
FullName: Untitled1
FamilyName: Untitled1
Weight: Regular
Copyright: Copyright (c) 2023, Trent
UComments: "2023-1-2: Created with FontForge (http://fontforge.org)"
Version: 001.000
ItalicAngle: 0
UnderlinePosition: -100
UnderlineWidth: 50
Ascent: 800
Descent: 200
InvalidEm: 0
LayerCount: 2
Layer: 0 0 "Back" 1
Layer: 1 0 "Fore" 0
XUID: [1021 12 278724421 4656403]
StyleMap: 0x0000
FSType: 0
OS2Version: 0
OS2_WeightWidthSlopeOnly: 0
OS2_UseTypoMetrics: 1
CreationTime: 1672617121
ModificationTime: 1675768056
OS2TypoAscent: 0
OS2TypoAOffset: 1
OS2TypoDescent: 0
OS2TypoDOffset: 1
OS2TypoLinegap: 90
OS2WinAscent: 0
OS2WinAOffset: 1
OS2WinDescent: 0
OS2WinDOffset: 1
HheadAscent: 0
HheadAOffset: 1
HheadDescent: 0
HheadDOffset: 1
DEI: 91125
Encoding: UnicodeBmp
UnicodeInterp: none
NameList: AGL For New Fonts
DisplaySize: -48
AntiAlias: 1
FitToEm: 0
WinInfo: 39168 12 6
Grid
-1000 691 m 0
 2000 691 l 1024
-1000 1034.99996915 m 0
 2000 1034.99996915 l 1024
EndSplineSet
BeginChars: 65536 430

StartChar: A
Encoding: 65 65 0
Width: 520
VWidth: 0
Flags: HW
LayerCount: 2
Fore
SplineSet
156 310 m 4
 171.426757812 310 189.537109375 310 213 310 c 4
 267.291992188 323.08984375 334.388671875 302.060546875 393 310 c 1028
72 76 m 5
 75 85 l 4
 75 139.211914062 288.8671875 589 297 589 c 4
 381.572265625 589 405.630859375 190.428710938 426 115 c 1028
EndSplineSet
Validated: 35
EndChar

StartChar: B
Encoding: 66 66 1
Width: 581
VWidth: 0
Flags: HW
LayerCount: 2
Fore
SplineSet
91 376 m 1
 97 376 l 0
 152.736328125 376 208.747070312 382 265 382 c 0
 386.609375 382 490 348.965820312 490 208 c 0
 490 51.9580078125 286.869140625 34 169 34 c 0
 146.124023438 34 131.201171875 39.61328125 109 43 c 0
 91 52 l 1025
91 637 m 0
 124.1015625 654.779296875 165.90625 664.420898438 205 664 c 0
 290.276367188 664 406 609.857421875 406 511 c 0
 406 391.520507812 303.161132812 423.03125 244 373 c 0
 91 376 l 1025
76 634 m 0
 93.5048828125 533.397460938 65.4658203125 427.069335938 97 328 c 0
 97 263.173828125 94 197.991210938 94 133 c 0
 94 76 l 0
 88 52 l 1025
EndSplineSet
Validated: 35
EndChar

StartChar: C
Encoding: 67 67 2
Width: 656
VWidth: 0
Flags: HW
LayerCount: 2
Fore
SplineSet
553 524 m 0
 470 627 378 663 244 615 c 0
 149.048604822 580.987559936 76 472.951171875 76 390 c 0
 76 225.556640625 229.602539062 72 388 72 c 0
 477.95703125 72 496.7421875 144.250976562 559 186 c 0
 571 216 l 1025
EndSplineSet
Validated: 35
EndChar

StartChar: D
Encoding: 68 68 3
Width: 645
VWidth: 0
Flags: HW
LayerCount: 2
Fore
SplineSet
53 632 m 0
 67.341796875 643.658203125 110.504882812 626.49609375 128 635 c 0
 339.344726562 635 536 468.985351562 536 245 c 0
 536 97.080078125 388.146484375 47 266 47 c 0
 205.840820312 55.44140625 109.400390625 43.2822265625 71 95 c 1024
170 626 m 1
 170 620 l 0
 170 518.408203125 161 397.576171875 161 293 c 0
 161 228.528320312 171.452148438 158.911132812 176 101 c 0
 179 65 l 1025
EndSplineSet
Validated: 35
EndChar

StartChar: E
Encoding: 69 69 4
Width: 593
VWidth: 0
Flags: HW
LayerCount: 2
Fore
SplineSet
48 74 m 0
 90 74 132 74 174 74 c 0
 285.875 74 390.931640625 68.0390625 501 65 c 1024
93 320 m 1
 120 320 l 0
 198.666992188 320 101.666992188 319.215820312 195 323 c 0
 357 350 l 1025
114 614 m 0
 192.094726562 643.040039062 277.895507812 617.1484375 357 641 c 0
 486 644 l 1025
93 608 m 1
 93 602 l 0
 93 554.44921875 113.313476562 468.587890625 120 425 c 0
 123 59 l 1025
EndSplineSet
Validated: 35
EndChar

StartChar: F
Encoding: 70 70 5
Width: 558
VWidth: 0
Flags: HW
LayerCount: 2
Fore
SplineSet
96 352 m 1
 111 349 l 0
 125.966796875 349 183 373 183 373 c 0
 300 397 l 1025
84 625 m 0
 105.0703125 633.55078125 128.513671875 622.825195312 150 628 c 0
 221.369140625 628 291.762695312 622.024414062 363 619 c 0
 477 598 l 1025
117 604 m 0
 121.638671875 537.25 131.338867188 470.490234375 150 406 c 0
 150 351.42578125 147 295.928710938 147 241 c 0
 147 205.568359375 153 170.825195312 153 136 c 0
 153 56.1181640625 147 85 147 85 c 1025
EndSplineSet
Validated: 35
EndChar

StartChar: G
Encoding: 71 71 6
Width: 641
VWidth: 0
Flags: HW
LayerCount: 2
Fore
SplineSet
493 330 m 1
 373 327 l 0
 469 327 l 0
 478.553710938 327 520 330.89453125 520 318 c 0
 520 177 l 0
 532.876953125 118.07421875 522.411132812 78.033203125 533 20 c 1024
508 648 m 0
 454.358398438 664.619140625 397.403320312 677.969726562 340 672 c 0
 144.709960938 672 52 568.2734375 52 375 c 0
 52 258.729492188 146.936523438 36 283 36 c 0
 393.6953125 36 449.462890625 193.548828125 514 255 c 0
 508 318 l 0
 493 330 l 1025
EndSplineSet
Validated: 35
EndChar

StartChar: H
Encoding: 72 72 7
Width: 588
VWidth: 0
Flags: HW
LayerCount: 2
Fore
SplineSet
29 398 m 0
 48 398 67 398 86 398 c 0
 225.987304688 398 365.8671875 392.009765625 506 389 c 1024
461 641 m 0
 461 561 461 481 461 401 c 0
 461 282.493164062 494.313476562 190.399414062 509 98 c 0
 527 83 l 1025
98 647 m 0
 126.37109375 579.516601562 111.6796875 494.564453125 131 422 c 0
 146 38 l 1025
EndSplineSet
Validated: 3
EndChar

StartChar: I
Encoding: 73 73 8
Width: 642
VWidth: 0
Flags: HW
LayerCount: 2
Fore
SplineSet
43 94 m 1
 559 94 l 1025
94 596 m 1
 508 599 l 1025
280 584 m 1
 280 569 l 0
 280 439.337890625 294.092773438 300.900390625 301 170 c 0
 307 101 l 1025
EndSplineSet
Validated: 3
EndChar

StartChar: J
Encoding: 74 74 9
Width: 671
VWidth: 0
Flags: HW
LayerCount: 2
Fore
SplineSet
114 536 m 0
 292.00390625 608.495117188 430.463867188 536.201171875 612 605 c 1024
60 86 m 1
 60 80 l 0
 60 -2.888671875 176.485351562 -67 246 -67 c 0
 407.72265625 -67 396 277.166015625 396 392 c 0
 396 414.170898438 393 437.998046875 393 461 c 0
 393 484.4296875 366.291015625 521.353515625 357 542 c 0
 354 572 l 1025
EndSplineSet
Validated: 35
EndChar

StartChar: K
Encoding: 75 75 10
Width: 507
VWidth: 0
Flags: HW
LayerCount: 2
Fore
SplineSet
216 465 m 1
 216 450 l 0
 216 334.314453125 345.262695312 164.915039062 393 60 c 0
 405 54 l 1025
381 621 m 0
 294.572265625 523.485351562 183.06640625 448.190429688 90 357 c 1024
102 657 m 1
 102 642 l 0
 102 541.072265625 128.659179688 424.306640625 141 324 c 0
 144 42 l 1025
EndSplineSet
Validated: 3
EndChar

StartChar: L
Encoding: 76 76 11
Width: 538
VWidth: 0
Flags: HW
LayerCount: 2
Fore
SplineSet
86 86 m 0
 192.2265625 84.5849609375 311.135742188 77.9873046875 422 71 c 0
 440.733398438 68.3359375 458.258789062 74.7841796875 476 77 c 1024
134 626 m 0
 134 607 134 588 134 569 c 0
 134 420.735351562 108.08203125 279.580078125 95 134 c 0
 86 86 l 1025
EndSplineSet
Validated: 35
EndChar

StartChar: M
Encoding: 77 77 12
Width: 630
VWidth: 0
Flags: HW
LayerCount: 2
Fore
SplineSet
84 53 m 1
 93 593 l 0
 93 614 l 0
 93 620.26171875 96.716796875 647 105 647 c 0
 197.431640625 647 247.4765625 353 282 353 c 0
 333.731445312 353 394.725585938 671 468 671 c 0
 522.90234375 671 530.504882812 190.220703125 540 116 c 0
 543 20 l 1025
EndSplineSet
Validated: 3
EndChar

StartChar: N
Encoding: 78 78 13
Width: 587
VWidth: 0
Flags: HW
LayerCount: 2
Fore
SplineSet
66 639 m 0
 238.090820312 481.794921875 309.266601562 246.2890625 444 69 c 0
 444 69 478.586914062 411.055664062 483 456 c 0
 501 639 l 1025
102 597 m 0
 102 579 102 561 102 543 c 0
 102 380.057617188 91.9951171875 218.504882812 87 57 c 1024
EndSplineSet
Validated: 3
EndChar

StartChar: O
Encoding: 79 79 14
Width: 679
VWidth: 0
Flags: HW
LayerCount: 2
Fore
SplineSet
472 602 m 0
 461.215820312 605.899414062 448.916992188 609.7578125 436 608 c 0
 386.931640625 608 334.721679688 641 280 641 c 0
 126.7578125 641 76 504.9140625 76 359 c 0
 76 176.163085938 159.921875 38 340 38 c 0
 526.489257812 38 598 134.365234375 598 317 c 0
 619.528320312 444.932617188 518.609375 580.203125 436 650 c 1024
EndSplineSet
Validated: 35
EndChar

StartChar: P
Encoding: 80 80 15
Width: 555
VWidth: 0
Flags: HW
LayerCount: 2
Fore
SplineSet
85 641 m 0
 109 641 133 641 157 641 c 0
 287.328125 641 460 643.044921875 460 476 c 0
 460 322.889648438 248.048828125 350 145 350 c 0
 127.645507812 350 111.022460938 351.978515625 94 353 c 0
 58 374 l 1025
103 632 m 1
 103 617 l 0
 103 494.25 131.298828125 364.008789062 145 242 c 0
 158 31 l 1025
EndSplineSet
Validated: 35
EndChar

StartChar: Q
Encoding: 81 81 16
Width: 648
VWidth: 0
Flags: HW
LayerCount: 2
Fore
SplineSet
357 309 m 0
 434.629882812 238.235351562 458.1171875 119.958984375 534 45 c 0
 579 30 l 1025
414 633 m 0
 383.306640625 649.805664062 342.1328125 654.366210938 306 654 c 0
 154.51171875 654 54 538.684570312 54 393 c 0
 54 216.495117188 181.561523438 93 357 93 c 0
 491.729492188 93 537 252.295898438 537 366 c 0
 537 503.100585938 464.87890625 543.728515625 426 639 c 0
 381 648 l 1025
EndSplineSet
Validated: 35
EndChar

StartChar: R
Encoding: 82 82 17
Width: 579
VWidth: 0
Flags: HW
LayerCount: 2
Fore
SplineSet
257 397 m 0
 330.223632812 279.713867188 374.872070312 119.561523438 494 40 c 1024
65 637 m 0
 65.3740234375 646.625976562 88.4677734375 633.532226562 92 640 c 0
 136.920898438 640 181.9609375 652 227 652 c 0
 325.795898438 652 437 582.6796875 437 481 c 0
 437 374.640625 174.515625 373 107 373 c 0
 88.0556640625 374.961914062 66.033203125 370.887695312 50 382 c 1024
140 652 m 1
 140 637 l 0
 140 590.576171875 155 546.125 155 499 c 0
 155 390.6796875 143 282.840820312 143 175 c 0
 143 142 l 0
 152 46 l 1025
EndSplineSet
Validated: 3
EndChar

StartChar: S
Encoding: 83 83 18
Width: 565
VWidth: 0
Flags: HW
LayerCount: 2
Fore
SplineSet
47 225 m 0
 125.645507812 119.604492188 236.276367188 16.912109375 386 39 c 0
 445.27734375 39 473 78.201171875 473 132 c 0
 473 344.658203125 104 303.959960938 104 513 c 0
 104 591.8984375 255.798828125 666 323 666 c 0
 399.213867188 670.163085938 397.0078125 570.577148438 392 519 c 1024
EndSplineSet
Validated: 35
EndChar

StartChar: T
Encoding: 84 84 19
Width: 755
VWidth: 0
Flags: HW
LayerCount: 2
Fore
SplineSet
38 621 m 1
 92 615 l 0
 281.650390625 615 426.926757812 595.630859375 617 585 c 0
 683 591 l 1025
350 594 m 0
 356.975585938 556.21875 321.158203125 525.381835938 338 486 c 0
 338 351.515625 363.467773438 180.08984375 374 54 c 1024
EndSplineSet
Validated: 35
EndChar

StartChar: U
Encoding: 85 85 20
Width: 526
VWidth: 0
Flags: HW
LayerCount: 2
Fore
SplineSet
77 573 m 0
 77 550 77 527 77 504 c 0
 77 385.967773438 59.783203125 84 227 84 c 0
 393.096679688 84 428 391.59375 428 501 c 0
 428 501 431 601.021484375 431 411 c 0
 431 316.623046875 433.025390625 220.2734375 434 129 c 0
 452 93 l 1025
EndSplineSet
Validated: 35
EndChar

StartChar: V
Encoding: 86 86 21
Width: 599
VWidth: 0
Flags: HW
LayerCount: 2
Fore
SplineSet
78 609 m 0
 188.633789062 459.149414062 186.047851562 192.196289062 312 66 c 0
 337.775390625 66 460.033203125 499.828125 495 603 c 0
 507 612 l 1025
EndSplineSet
Validated: 3
EndChar

StartChar: W
Encoding: 87 87 22
Width: 786
VWidth: 0
Flags: HW
LayerCount: 2
Fore
SplineSet
66 648 m 0
 157.717773438 457.936523438 153.604492188 226.170898438 237 36 c 0
 328.453125 36 390.22265625 408 435 408 c 0
 467.338867188 408 470.559570312 33 582 33 c 0
 595.715820312 33 639 44.3857421875 639 60 c 0
 639 84 l 0
 639 250.233398438 679.796875 437.2109375 699 603 c 0
 705 660 l 1025
EndSplineSet
Validated: 3
EndChar

StartChar: X
Encoding: 88 88 23
Width: 532
VWidth: 0
Flags: HW
LayerCount: 2
Fore
SplineSet
452 662 m 0
 381.9296875 460.065429688 197.358398438 326.27734375 119 131 c 0
 101 71 l 1025
56 644 m 0
 173.587890625 487.665039062 266.479492188 313.908203125 389 161 c 0
 476 44 l 1025
EndSplineSet
Validated: 3
EndChar

StartChar: Y
Encoding: 89 89 24
Width: 451
VWidth: 0
Flags: HW
LayerCount: 2
Fore
SplineSet
374 659 m 0
 317.657226562 480.975585938 229.828125 311.694335938 155 140 c 0
 95 38 l 1025
47 644 m 0
 96.9609375 544.654296875 162.806640625 450.428710938 215 353 c 1024
EndSplineSet
Validated: 3
EndChar

StartChar: Z
Encoding: 90 90 25
Width: 615
VWidth: 0
Flags: HW
LayerCount: 2
Fore
SplineSet
83 627 m 0
 214.953125 631.31640625 349.145507812 628.217773438 479 648 c 0
 495.456054688 650.506835938 514.696289062 654 530 654 c 0
 534.233398438 654 539 656.012695312 539 651 c 0
 437.84375 427.307617188 121.639648438 265.185546875 53 75 c 0
 53 75 294.590820312 54.3134765625 305 60 c 0
 539 36 l 1025
EndSplineSet
Validated: 35
EndChar

StartChar: a
Encoding: 97 97 26
Width: 476
VWidth: 0
Flags: HW
LayerCount: 2
Fore
SplineSet
392 357 m 0
 359.643554688 393.012695312 291.370117188 396 242 396 c 0
 125.387695312 396 47 393.74609375 47 255 c 0
 47 170.618164062 115.587890625 123 185 123 c 0
 317 123 392 473.67578125 392 357 c 0
 392 293.37890625 416 196.89453125 416 123 c 1024
EndSplineSet
Validated: 35
EndChar

StartChar: b
Encoding: 98 98 27
Width: 358
VWidth: 0
Flags: HW
LayerCount: 2
Fore
SplineSet
77 337 m 0
 88.0654296875 337.341796875 99.341796875 335.544921875 110 340 c 0
 234.157226562 340 296 256.173828125 296 136 c 0
 296 69.158203125 224.377929688 58 173 58 c 0
 133.90234375 58 116.904296875 70.576171875 80 79 c 0
 47 112 l 1025
74 652 m 0
 74 642 74 632 74 622 c 0
 74 450.084960938 86.662109375 235.502929688 92 73 c 1024
EndSplineSet
Validated: 35
EndChar

StartChar: c
Encoding: 99 99 28
Width: 518
VWidth: 0
Flags: HW
LayerCount: 2
Fore
SplineSet
414 419 m 0
 409 419 404 419 399 419 c 0
 351.731445312 419 309.333984375 437 261 437 c 0
 156.500976562 437 60 382.193359375 60 266 c 0
 60 167.159179688 224.436523438 83 312 83 c 0
 374.658203125 83 394.823242188 126.09765625 444 152 c 0
 450 167 l 1025
EndSplineSet
Validated: 3
EndChar

StartChar: d
Encoding: 100 100 29
Width: 428
VWidth: 0
Flags: HW
LayerCount: 2
Fore
SplineSet
303 275 m 4
 280.682617188 298.279296875 240.661132812 308.915039062 207 305 c 4
 103.107421875 305 69 255.794921875 69 155 c 4
 69 96.7939453125 133.625 77 180 77 c 4
 327.014648438 77 330 540.258789062 330 632 c 4
 330 631.962890625 324 632.350585938 324 533 c 4
 324 149 l 4
 345 44 l 1029
EndSplineSet
Validated: 35
EndChar

StartChar: e
Encoding: 101 101 30
Width: 463
VWidth: 0
Flags: HW
LayerCount: 2
Fore
SplineSet
56 312 m 0
 118.330078125 282.87109375 192.336914062 272.665039062 263 270 c 0
 323.802734375 270 341 328.2265625 341 375 c 0
 341 442.379882812 293.318359375 432 242 432 c 0
 165.989257812 432 107 346.154296875 107 273 c 0
 107 164.98828125 183.276367188 87 293 87 c 0
 338.102539062 80.6533203125 370.668945312 111.344726562 392 147 c 1024
EndSplineSet
Validated: 35
EndChar

StartChar: f
Encoding: 102 102 31
Width: 496
VWidth: 0
Flags: HW
LayerCount: 2
Fore
SplineSet
60 290 m 1
 72 290 l 0
 124.713867188 290 178.69140625 302.041015625 231 308 c 0
 414 386 l 1025
405 656 m 0
 376.270507812 661.643554688 352.264648438 684.793945312 321 680 c 0
 211.094726562 680 225 498.057617188 225 428 c 0
 225 278.10546875 264 133.326171875 264 -16 c 0
 257.990234375 -39.9306640625 264.426757812 -77.1796875 246 -94 c 1024
EndSplineSet
Validated: 35
EndChar

StartChar: g
Encoding: 103 103 32
Width: 477
VWidth: 0
Flags: HW
LayerCount: 2
Fore
SplineSet
356 285 m 0
 319.124023438 297.46875 282.877929688 318.814453125 242 315 c 0
 138.420898438 315 80 196.9921875 80 111 c 0
 80 63.728515625 192.302734375 66 224 66 c 0
 315.944335938 66 377 215.53515625 377 294 c 0
 377.37890625 385.116210938 372.301757812 331.071289062 374 288 c 0
 382.741210938 66.2919921875 485.668945312 -350 159 -350 c 0
 104.764648438 -350 54 -326.65625 54 -266 c 0
 48.3291015625 -254.885742188 59.1884765625 -264.087890625 60 -257 c 1024
EndSplineSet
Validated: 35
EndChar

StartChar: h
Encoding: 104 104 33
Width: 389
VWidth: 0
Flags: HW
LayerCount: 2
Fore
SplineSet
103 372 m 0
 123.208984375 395.6171875 162.420898438 414.283203125 196 411 c 0
 287.8359375 411 277 324.412109375 277 252 c 0
 277 202.106445312 268 152.235351562 268 102 c 0
 268 78.3671875 273.748046875 63.31640625 277 42 c 0
 289 36 l 1025
115 714 m 0
 123.467773438 653.53515625 121.116210938 592.174804688 121 531 c 0
 121 201 l 0
 112 81 l 0
 106 57 l 1025
EndSplineSet
Validated: 35
EndChar

StartChar: i
Encoding: 105 105 34
Width: 247
VWidth: 0
Flags: HW
LayerCount: 2
Fore
SplineSet
140 555 m 0
 124.904296875 552.244140625 122.356445312 531.622070312 125 519 c 0
 125 506.71875 130.953125 504.771484375 134 498 c 0
 137 534 l 1025
137 423 m 0
 123.315429688 346.829101562 111.748046875 266.953125 107 189 c 0
 119 120 l 0
 128 102 l 1025
EndSplineSet
Validated: 35
EndChar

StartChar: j
Encoding: 106 106 35
Width: 436
VWidth: 0
Flags: HW
LayerCount: 2
Fore
SplineSet
197 522 m 0
 176.37890625 516.9921875 215.1484375 487.634765625 206 513 c 0
 206 524.083007812 198.965820312 516.344726562 191 519 c 0
 188 513 l 1025
212 441 m 0
 254.206054688 267.719726562 297.6953125 90.1494140625 287 -90 c 0
 287 -146.206054688 296.432617188 -255 218 -255 c 0
 159.087890625 -255 138.165039062 -234.674804688 89 -222 c 0
 83 -210 l 1025
EndSplineSet
Validated: 35
EndChar

StartChar: k
Encoding: 107 107 36
Width: 415
VWidth: 0
Flags: HW
LayerCount: 2
Fore
SplineSet
161 339 m 0
 229.755859375 270.075195312 299.56640625 172.825195312 332 84 c 1024
242 495 m 1
 242 489 l 0
 242 442.2578125 172.201171875 360.411132812 149 318 c 0
 116 273 l 1025
95 618 m 0
 132.106445312 425.875 146.16015625 228.727539062 149 33 c 1024
EndSplineSet
Validated: 3
EndChar

StartChar: l
Encoding: 108 108 37
Width: 289
VWidth: 0
Flags: HW
LayerCount: 2
Fore
SplineSet
141 567 m 0
 155.341796875 465.857421875 148.625976562 362.965820312 150 261 c 0
 150 210.368164062 154.095703125 156.237304688 156 108 c 0
 162 81 l 1025
EndSplineSet
Validated: 35
EndChar

StartChar: m
Encoding: 109 109 38
Width: 513
VWidth: 0
Flags: HW
LayerCount: 2
Fore
SplineSet
69 401 m 0
 95.36328125 336.276367188 85.8447265625 53.9599609375 105 77 c 0
 144.642578125 124.681640625 96 294.232421875 96 359 c 0
 96 386.723632812 102.052734375 461 144 461 c 0
 242.81640625 461 222.388671875 170 237 170 c 0
 250.8046875 170 226.897460938 476 327 476 c 0
 452.116210938 405.818359375 382.168945312 222.432617188 417 107 c 1024
EndSplineSet
Validated: 35
EndChar

StartChar: n
Encoding: 110 110 39
Width: 433
VWidth: 0
Flags: HW
LayerCount: 2
Fore
SplineSet
89 336 m 5
 89 321 l 4
 105.174804688 199.767578125 92.140625 167.413085938 93 45 c 0
 93.48046875 -23.4306640625 95 207.3359375 95 273 c 4
 95 330.108398438 173.788085938 349.0234375 218 336 c 4
 363.446289062 293.157226562 306.35546875 163.903320312 327 45 c 1024
EndSplineSet
Validated: 35
EndChar

StartChar: o
Encoding: 111 111 40
Width: 470
VWidth: 0
Flags: HW
LayerCount: 2
Fore
SplineSet
313 396 m 0
 297.209960938 402.836914062 277.717773438 407.064453125 259 405 c 0
 157.922851562 393.852539062 76 339.051757812 76 228 c 0
 76 132.599609375 163.732421875 69 253 69 c 0
 343.889648438 69 376 161.826171875 376 240 c 0
 376 336.501953125 312.357421875 343.327148438 274 405 c 0
 241 417 l 1025
EndSplineSet
Validated: 35
EndChar

StartChar: p
Encoding: 112 112 41
Width: 472
VWidth: 0
Flags: HW
LayerCount: 2
Fore
SplineSet
111 267 m 1
 111 279 l 0
 111 343.263671875 198.274414062 381 249 381 c 0
 324.453125 381 381 340.044921875 381 258 c 0
 381 175.65234375 290.618164062 147 225 147 c 0
 185.524414062 147 170.446289062 159.635742188 135 168 c 0
 105 195 l 1025
96 348 m 0
 129.2578125 228.110351562 126.092773438 100.434570312 126 -24 c 0
 123 -213 l 1025
EndSplineSet
Validated: 35
EndChar

StartChar: q
Encoding: 113 113 42
Width: 555
VWidth: 0
Flags: HW
LayerCount: 2
Fore
SplineSet
282 360 m 0
 253.1796875 373.302734375 214.909179688 384.567382812 180 384 c 0
 94.0703125 384 60 292.504882812 60 219 c 0
 60 161.798828125 89.998046875 117 153 117 c 0
 223.680664062 117 291 384.0390625 291 438 c 0
 291 345 l 0
 320.643554688 178.510742188 319.916992188 9.6552734375 318 -159 c 0
 317.775390625 -178.758789062 314.349609375 -423 324 -423 c 0
 360.421875 -423 476.944335938 -130.529296875 498 -90 c 0
 501 -78 l 1025
EndSplineSet
Validated: 35
EndChar

StartChar: r
Encoding: 114 114 43
Width: 356
VWidth: 0
Flags: HW
LayerCount: 2
Fore
SplineSet
93 456 m 0
 123.873046875 353.060546875 106.955078125 243.969726562 111 138 c 0
 113.385742188 75.4931640625 114 108 114 108 c 0
 114 170.26171875 99 233.518554688 99 297 c 0
 99 373.6171875 130.423828125 441 207 441 c 0
 250.580078125 441 241.052734375 412.428710938 267 390 c 0
 279 348 l 1025
EndSplineSet
Validated: 35
EndChar

StartChar: s
Encoding: 115 115 44
Width: 393
VWidth: 0
Flags: HW
LayerCount: 2
Fore
SplineSet
76 159 m 0
 123.8046875 117.920898438 172.609375 49.4091796875 250 60 c 0
 312.303710938 60 313 110.068359375 313 162 c 0
 313 269.807617188 79 211.243164062 79 354 c 0
 79 410.27734375 146.044921875 408 187 408 c 0
 258.104492188 408 250.61328125 364.31640625 274 348 c 1024
EndSplineSet
Validated: 35
EndChar

StartChar: t
Encoding: 116 116 45
Width: 381
VWidth: 0
Flags: HW
LayerCount: 2
Fore
SplineSet
46 318 m 1
 64 318 l 0
 107.540039062 318 146.715820312 325.844726562 190 330 c 0
 304 375 l 1025
196 519 m 0
 196 510 196 501 196 492 c 0
 196 387.608398438 160 288.098632812 160 183 c 0
 160 136.61328125 158.168945312 84 211 84 c 0
 220.608398438 86.158203125 241.859375 77.69921875 241 93 c 1024
EndSplineSet
Validated: 35
EndChar

StartChar: u
Encoding: 117 117 46
Width: 415
VWidth: 0
Flags: HW
LayerCount: 2
Fore
SplineSet
85 393 m 0
 85 389 85 385 85 381 c 0
 85 345.1875 79 309.358398438 79 273 c 0
 79 197.288085938 122.668945312 123 202 123 c 0
 308.876953125 133.087890625 276.538085938 313.42578125 313 387 c 0
 325.766601562 412.760742188 304 259.119140625 304 222 c 0
 298.810546875 184.91015625 310.708007812 139.5 337 114 c 1024
EndSplineSet
Validated: 35
EndChar

StartChar: v
Encoding: 118 118 47
Width: 379
VWidth: 0
Flags: HW
LayerCount: 2
Fore
SplineSet
66 402 m 0
 122.03515625 335.614257812 174.627929688 222.334960938 186 126 c 0
 242.220703125 207.088867188 232.63671875 375.39453125 294 474 c 1024
EndSplineSet
Validated: 3
EndChar

StartChar: w
Encoding: 119 119 48
Width: 554
VWidth: 0
Flags: HW
LayerCount: 2
Fore
SplineSet
82 357 m 1
 118 114 l 0
 119.095703125 105.600585938 121 99.2431640625 121 90 c 0
 121 85.740234375 127.8671875 87 130 87 c 0
 202.715820312 87 222.094726562 261 265 261 c 0
 318.986328125 261 346.041992188 99 406 99 c 0
 426.59375 208.887695312 426.354492188 332.0390625 454 441 c 1024
EndSplineSet
Validated: 3
EndChar

StartChar: x
Encoding: 120 120 49
Width: 436
VWidth: 0
Flags: HW
LayerCount: 2
Fore
SplineSet
324 399 m 0
 247.711914062 303.493164062 168.978515625 196.095703125 90 102 c 1024
114 369 m 0
 208.49609375 304.860351562 249.991210938 184.646484375 339 114 c 0
 366 105 l 1025
EndSplineSet
Validated: 3
EndChar

StartChar: y
Encoding: 121 121 50
Width: 470
VWidth: 0
Flags: HW
LayerCount: 2
Fore
SplineSet
102 360 m 0
 100.415039062 353.389648438 110.110351562 349.442382812 105 342 c 0
 105 282 l 0
 105 224.438476562 132.099609375 132 201 132 c 0
 274.733398438 132 274.573242188 246.248046875 303 291 c 0
 324 360 l 0
 318 192 l 0
 318 126 l 0
 318 23.001953125 357 -82.685546875 357 -189 c 0
 385.012695312 -273.208984375 332.12109375 -303.016601562 264 -291 c 0
 196.16015625 -279.033203125 178.581054688 -271.380859375 114 -243 c 0
 111 -228 l 1025
EndSplineSet
Validated: 35
EndChar

StartChar: z
Encoding: 122 122 51
Width: 516
VWidth: 0
Flags: HW
LayerCount: 2
Fore
SplineSet
116 396 m 0
 146 396 176 396 206 396 c 0
 239.014648438 396 356 423.200195312 356 378 c 0
 356 264.803710938 92 168.028320312 92 96 c 0
 122 96 l 0
 143.477539062 96 159.72265625 99.734375 182 102 c 0
 401 105 l 1025
EndSplineSet
Validated: 35
EndChar

StartChar: agrave
Encoding: 224 224 52
Width: 445
VWidth: 0
Flags: HW
LayerCount: 2
Fore
SplineSet
124 536 m 0
 169.268554688 512.569335938 192.609375 461.771484375 232 428 c 0
 250 410 l 1025
331 332 m 0
 311.322265625 339.327148438 288.739257812 344.765625 268 344 c 0
 189.965820312 341.119140625 55 351.11328125 55 239 c 0
 55 170.284179688 124.591796875 107 193 107 c 0
 321.188476562 107 289.321289062 246.064453125 340 320 c 0
 352 161 l 0
 379 77 l 1025
EndSplineSet
Validated: 35
EndChar

StartChar: aacute
Encoding: 225 225 53
Width: 394
VWidth: 0
Flags: HW
LayerCount: 2
Fore
SplineSet
112 429 m 1
 112 435 l 0
 112 448.42578125 120.427734375 445.364257812 130 456 c 0
 241 582 l 1025
292 327 m 1
 208 327 l 0
 94 294 46 284.041992188 46 153 c 0
 46 114.049804688 81.423828125 75 121 75 c 0
 218.296875 86.423828125 252.20703125 212.145507812 286 291 c 0
 309.704101562 346.314453125 295 276.642578125 295 237 c 0
 295 203.4921875 300.961914062 171.079101562 304 138 c 0
 337 75 l 1025
EndSplineSet
Validated: 35
EndChar

StartChar: egrave
Encoding: 232 232 54
Width: 286
VWidth: 0
Flags: HW
LayerCount: 2
Fore
SplineSet
82 539 m 0
 134.083984375 503.126953125 170.344726562 443.055664062 214 395 c 1024
51 218 m 1
 57 218 l 0
 70.7080078125 220.127929688 83.6669921875 213.548828125 99 215 c 0
 150.306640625 219.856445312 213 198.901367188 213 287 c 0
 208.096679688 333.634765625 168.735351562 350.529296875 129 347 c 0
 81.0224609375 342.73828125 45 302.5703125 45 254 c 0
 45 97.8505859375 108 47 225 83 c 1024
EndSplineSet
Validated: 35
EndChar

StartChar: eacute
Encoding: 233 233 55
Width: 322
VWidth: 0
Flags: HW
LayerCount: 2
Fore
SplineSet
64 414 m 0
 81.1630859375 412.477539062 78.3095703125 448.6875 103 441 c 0
 223 549 l 1025
40 246 m 1
 46 246 l 0
 85.2900390625 246 126.219726562 210 172 210 c 0
 222.579101562 210 244 244.590820312 244 297 c 0
 244 347.529296875 189.583984375 354 154 354 c 0
 87.1396484375 354 46 309.772460938 46 243 c 0
 46 149.008789062 86.8544921875 69 190 69 c 0
 221.92578125 62.0908203125 246.588867188 89.2158203125 262 114 c 1024
EndSplineSet
Validated: 35
EndChar

StartChar: igrave
Encoding: 236 236 56
Width: 205
VWidth: 0
Flags: HW
LayerCount: 2
Fore
SplineSet
34 520 m 1
 121 406 l 1025
112 343 m 1
 105 217 l 0
 117.5625 164.7734375 105.34375 91.1171875 156 61 c 1024
EndSplineSet
Validated: 3
EndChar

StartChar: iacute
Encoding: 237 237 57
Width: 199
VWidth: 0
Flags: HW
LayerCount: 2
Fore
SplineSet
45 382 m 0
 78.17578125 413.204101562 123.609375 435.083984375 153 472 c 1024
54 316 m 0
 52.64453125 295 54.0888671875 274 54 253 c 0
 54 186.400390625 81.2412109375 139.793945312 96 79 c 0
 108 67 l 1025
EndSplineSet
Validated: 35
EndChar

StartChar: ograve
Encoding: 242 242 58
Width: 391
VWidth: 0
Flags: HW
LayerCount: 2
Fore
SplineSet
88 539 m 0
 118.7421875 517.674804688 152.57421875 488.440429688 184 464 c 0
 232 434 l 1025
202 344 m 0
 195.083007812 344 189.583007812 344 184 344 c 0
 67.9267578125 344 43 262.388671875 43 161 c 0
 43 82.66796875 166.205078125 32 232 32 c 0
 318.7734375 32 334 115.9296875 334 191 c 0
 334 262.725585938 240.244140625 308.484375 202 356 c 0
 184 365 l 1025
EndSplineSet
Validated: 3
EndChar

StartChar: oacute
Encoding: 243 243 59
Width: 391
VWidth: 0
Flags: HW
LayerCount: 2
Fore
SplineSet
103 392 m 0
 136.829101562 432.001953125 194.220703125 460.288085938 208 518 c 0
 241 557 l 1025
217 311 m 0
 197.340820312 317.94921875 178.663085938 326.913085938 157 323 c 0
 86.2255859375 323 40 271.025390625 40 197 c 0
 40 86.833984375 133.666015625 29 238 29 c 0
 303.70703125 29 334 100.490234375 334 161 c 0
 334 225.264648438 294.860351562 259.196289062 274 311 c 0
 196 329 l 1025
EndSplineSet
Validated: 35
EndChar

StartChar: ugrave
Encoding: 249 249 60
Width: 331
VWidth: 0
Flags: HW
LayerCount: 2
Fore
SplineSet
91 514 m 0
 143.161132812 491.126953125 167.754882812 426.44140625 211 388 c 1024
59 298 m 0
 50.9111328125 290.537109375 57.126953125 277.637695312 56 268 c 0
 56 203.744140625 68.2177734375 52 164 52 c 0
 246.20703125 82.9423828125 232.659179688 227.588867188 251 307 c 0
 251 307 264.458984375 122.940429688 265 93 c 0
 274 48 l 1025
EndSplineSet
Validated: 3
EndChar

StartChar: uacute
Encoding: 250 250 61
Width: 352
VWidth: 0
Flags: HW
LayerCount: 2
Fore
SplineSet
90 389 m 0
 147.106445312 407.323242188 209.150390625 470.57421875 255 515 c 1024
49 314 m 1
 49 302 l 0
 49 228.017578125 46.7958984375 49 157 49 c 0
 259.02734375 49 274 253.092773438 274 317 c 0
 274 217.560546875 291.919921875 163.52734375 301 66 c 0
 316 51 l 1025
EndSplineSet
Validated: 35
EndChar

StartChar: amacron
Encoding: 257 257 62
Width: 412
VWidth: 0
Flags: HW
LayerCount: 2
Fore
SplineSet
66 388 m 1
 342 388 l 1025
321 281 m 0
 305.918945312 281 256.375 281 243 281 c 0
 139.2421875 281 57 251.505859375 57 143 c 0
 57 73.7421875 146.505859375 47 204 47 c 0
 320.104492188 69.7099609375 298.723632812 190.774414062 321 281 c 0
 321 281 349.62890625 101.436523438 353 76 c 0
 356 46 l 1025
EndSplineSet
Validated: 3
EndChar

StartChar: abreve
Encoding: 259 259 63
Width: 388
VWidth: 0
Flags: HW
LayerCount: 2
Fore
SplineSet
87 424 m 0
 122.071289062 406.505859375 118.151367188 334.038085938 168 340 c 0
 252.069335938 323.387695312 256.134765625 426.2890625 294 475 c 1024
289 256 m 1
 280 256 l 0
 250.755859375 256 221.282226562 251 190 251 c 0
 124.857421875 251 61 208.813476562 61 143 c 0
 61 86.896484375 133.557617188 43 190 43 c 0
 264.060546875 43 304 174.639648438 304 241 c 0
 304 241 301.001953125 250 301 250 c 0
 299.875 250 301 241 301 241 c 0
 301 211 l 0
 301 162.573242188 333 42 333 42 c 1025
EndSplineSet
Validated: 35
EndChar

StartChar: emacron
Encoding: 275 275 64
Width: 328
VWidth: 0
Flags: HW
LayerCount: 2
Fore
SplineSet
58 414 m 1
 241 405 l 1025
79 193 m 0
 95.7265625 185.551757812 115.037109375 178.154296875 136 178 c 0
 158.659179688 177.833007812 201.577148438 176 230 176 c 0
 273.440429688 176 265 231.705078125 265 263 c 0
 265 310.271484375 182.130859375 321.903320312 148 313 c 0
 56 289 46 220.250976562 46 151 c 0
 46 35.1162109375 136.916992188 48 229 48 c 0
 249.682617188 34.0185546875 249.5234375 65.125 268 63 c 1024
EndSplineSet
Validated: 35
EndChar

StartChar: ebreve
Encoding: 277 277 65
Width: 364
VWidth: 0
Flags: HW
LayerCount: 2
Fore
SplineSet
97 514 m 0
 114.560546875 473.2890625 127.200195312 399.306640625 187 406 c 0
 256.360351562 406.280273438 267.598632812 496.546875 271 550 c 1024
34 211 m 1
 46 211 l 0
 77.818359375 211 120.448242188 184 160 184 c 0
 231.491210938 184 292 198.473632812 292 283 c 0
 292 339.276367188 187.750976562 340 151 340 c 0
 70.4951171875 340 52 247.28515625 52 184 c 0
 31.173828125 98.46875 125.392578125 72.767578125 190 61 c 0
 211.603515625 57.0654296875 235.375976562 58 259 58 c 0
 286.081054688 50.2822265625 295.690429688 86.3466796875 310 103 c 1024
EndSplineSet
Validated: 35
EndChar

StartChar: imacron
Encoding: 299 299 66
Width: 280
VWidth: 0
Flags: HW
LayerCount: 2
Fore
SplineSet
40 366 m 1
 229 366 l 1025
133 282 m 1
 133 63 l 1025
EndSplineSet
Validated: 3
EndChar

StartChar: ibreve
Encoding: 301 301 67
Width: 232
VWidth: 0
Flags: HW
LayerCount: 2
Fore
SplineSet
52 441 m 1
 52 435 l 0
 52 404.725585938 93.33203125 333 130 333 c 0
 152.0234375 333 168.502929688 385.6640625 178 399 c 0
 196 483 l 1025
131 279 m 1
 119 69 l 0
 110 57 l 1025
EndSplineSet
Validated: 3
EndChar

StartChar: omacron
Encoding: 333 333 68
Width: 322
VWidth: 0
Flags: HW
LayerCount: 2
Fore
SplineSet
47 423 m 1
 248 414 l 1025
217 314 m 0
 206.58984375 320.314453125 193.798828125 315.7578125 184 317 c 0
 78.892578125 317 49 271.8984375 49 167 c 0
 49 109.413085938 93.8046875 56 157 56 c 0
 212.059570312 56 265 103.4609375 265 161 c 0
 274.51953125 225.9765625 233.475585938 294.779296875 175 320 c 1024
EndSplineSet
Validated: 35
EndChar

StartChar: obreve
Encoding: 335 335 69
Width: 412
VWidth: 0
Flags: HW
LayerCount: 2
Fore
SplineSet
83 471 m 0
 105.54296875 423.884765625 147.64453125 367.084960938 206 369 c 0
 253.453125 366.495117188 259.840820312 438.885742188 266 468 c 1024
280 303 m 0
 248.715820312 312.66796875 215.942382812 312.33203125 184 312 c 0
 112.026367188 312 58 269.7890625 58 195 c 0
 58 100.298828125 149.109375 39 238 39 c 0
 307.459960938 39 346 82.4599609375 346 150 c 0
 361.06640625 225.791992188 311.854492188 298.143554688 241 321 c 1024
EndSplineSet
Validated: 35
EndChar

StartChar: umacron
Encoding: 363 363 70
Width: 361
VWidth: 0
Flags: HW
LayerCount: 2
Fore
SplineSet
70 392 m 1
 265 392 l 1025
49 278 m 0
 47.86328125 263 48.53125 248 49 233 c 0
 49 133.369140625 46.3984375 39 172 39 c 0
 276.059570312 39 285 193.421875 285 272 c 0
 285 219.609375 293.947265625 118.681640625 307 50 c 0
 325 44 l 1025
EndSplineSet
Validated: 35
EndChar

StartChar: ubreve
Encoding: 365 365 71
Width: 364
VWidth: 0
Flags: HW
LayerCount: 2
Fore
SplineSet
81 496 m 0
 96.5107421875 460.6796875 113.9609375 390.537109375 171 394 c 0
 204.501953125 394 212.360351562 445.891601562 228 466 c 0
 252 535 l 1025
54 320 m 1
 54 311 l 0
 54 260.314453125 49 228.977539062 49 178 c 0
 49 117.044921875 95.15234375 58 157 58 c 0
 240.227539062 58 263 317 263 317 c 0
 263 254.392578125 271 183.448242188 271 121 c 0
 271 111.846679688 286.060546875 90.7158203125 289 85 c 0
 313 55 l 1025
EndSplineSet
Validated: 35
EndChar

StartChar: exclam
Encoding: 33 33 72
Width: 430
VWidth: 0
Flags: HW
LayerCount: 2
Fore
SplineSet
238 170 m 4
 232.446289062 171.828125 231.625 165.53515625 229 164 c 4
 226 152 l 1029
193 578 m 5
 193 563 l 4
 193 491.743164062 213.1484375 417.60546875 223 347 c 4
 226 266 l 1029
EndSplineSet
Validated: 3
EndChar

StartChar: quotedbl
Encoding: 34 34 73
Width: 215
VWidth: 0
Flags: HW
LayerCount: 2
Fore
SplineSet
115 610 m 4
 120.118164062 589.19921875 118.20703125 562.234375 125 540 c 4
 123 502 l 1029
79 602 m 4
 75.7685546875 601.161132812 77.369140625 598.298828125 77 596 c 4
 82.060546875 569.836914062 79.044921875 541.12890625 91 516 c 1028
EndSplineSet
Validated: 3
EndChar

StartChar: comma
Encoding: 44 44 74
Width: 172
VWidth: 0
Flags: HW
LayerCount: 2
Fore
SplineSet
54 264 m 0
 75.2353515625 243.982421875 85.294921875 213.821289062 90 186 c 0
 94.876953125 157.162109375 88.685546875 124.905273438 84 99 c 0
 51 60 l 1025
EndSplineSet
Validated: 35
EndChar

StartChar: hyphen
Encoding: 45 45 75
Width: 316
VWidth: 0
Flags: HW
LayerCount: 2
Fore
SplineSet
88 381 m 1
 211 378 l 1025
EndSplineSet
Validated: 3
EndChar

StartChar: period
Encoding: 46 46 76
Width: 148
VWidth: 0
Flags: HW
LayerCount: 2
Fore
SplineSet
37.80078125 104.399414062 m 0
 36.52734375 101.811523438 29.9501953125 102.463867188 30.6005859375 99 c 0
 30.6005859375 90.634765625 35.1240234375 88.19921875 41.3994140625 88.19921875 c 0
 49.771484375 88.19921875 50.3994140625 95.021484375 50.3994140625 100.799804688 c 0
 52.1279296875 109.731445312 38.64453125 112.88671875 32.3994140625 109.799804688 c 1024
EndSplineSet
Validated: 3
EndChar

StartChar: zero
Encoding: 48 48 77
Width: 421
VWidth: 0
Flags: HW
LayerCount: 2
Fore
SplineSet
262 576 m 0
 251.081054688 576 241.305664062 576 232 576 c 0
 132.440429688 576 106 400.197265625 106 327 c 0
 106 230.287109375 155.239257812 159 256 159 c 0
 292.169921875 159 313 263.0859375 313 288 c 0
 313 394.568359375 277.779296875 474.234375 259 573 c 0
 217 627 l 1025
EndSplineSet
Validated: 3
EndChar

StartChar: one
Encoding: 49 49 78
Width: 271
VWidth: 0
Flags: HW
LayerCount: 2
Fore
SplineSet
67 546 m 1
 67 552 l 0
 67 554.423828125 115 615 115 615 c 0
 132.12109375 615 138.358398438 227.12890625 139 216 c 0
 148 144 l 1025
EndSplineSet
Validated: 3
EndChar

StartChar: two
Encoding: 50 50 79
Width: 451
VWidth: 0
Flags: HW
LayerCount: 2
Fore
SplineSet
112 522 m 0
 144.666015625 557.744140625 192.280273438 568.474609375 241 567 c 0
 291.727539062 567 298 488.58984375 298 456 c 0
 298 324.046875 181.131835938 252.159179688 124 153 c 0
 316 159 l 1025
EndSplineSet
Validated: 35
EndChar

StartChar: three
Encoding: 51 51 80
Width: 442
VWidth: 0
Flags: HW
LayerCount: 2
Fore
SplineSet
130 543 m 0
 182.942382812 561.2578125 242.624023438 544.100585938 298 561 c 0
 298 497.434570312 166 448.349609375 166 408 c 0
 166 407.799804688 177.900390625 408 226 408 c 0
 309.830078125 408 322 337.309570312 322 270 c 0
 322 198.060546875 243.087890625 156 181 156 c 0
 155.772460938 159.572265625 123.802734375 163.4453125 109 186 c 1024
EndSplineSet
Validated: 35
EndChar

StartChar: four
Encoding: 52 52 81
Width: 442
VWidth: 0
Flags: HW
LayerCount: 2
Fore
SplineSet
229 369 m 0
 227.509765625 352 229.458984375 335 229 318 c 0
 214 135 l 1025
202 525 m 0
 195.826171875 441.084960938 126.5078125 343.56640625 139 270 c 0
 352 294 l 1025
EndSplineSet
Validated: 35
EndChar

StartChar: five
Encoding: 53 53 82
Width: 445
VWidth: 0
Flags: HW
LayerCount: 2
Fore
SplineSet
127 162 m 0
 155.860351562 138.563476562 188.734375 119.931640625 229 117 c 0
 320.044921875 117 316 212.55859375 316 282 c 0
 316 321.8203125 275.778320312 369 238 369 c 0
 216.793945312 369 166 336.583984375 166 315 c 0
 166 345.329101562 133 459.702148438 133 510 c 0
 168.329101562 518.116210938 215.8515625 516.755859375 250 540 c 1024
EndSplineSet
Validated: 35
EndChar

StartChar: six
Encoding: 54 54 83
Width: 388
VWidth: 0
Flags: HW
LayerCount: 2
Fore
SplineSet
235 530 m 4
 167.514648438 456.475585938 139.598632812 350.607421875 136 254 c 4
 136 190.689453125 146.052734375 119 223 119 c 4
 259.766601562 119 280 151.61328125 280 185 c 4
 280 306.71484375 199 329 115 308 c 1028
EndSplineSet
Validated: 35
EndChar

StartChar: seven
Encoding: 55 55 84
Width: 478
VWidth: 0
Flags: HW
LayerCount: 2
Fore
SplineSet
151 375 m 0
 173.3984375 392.258789062 210.6796875 378.059570312 235 387 c 0
 409 423 l 1025
100 603 m 0
 171.375976562 606.166992188 250.116210938 616.399414062 325 621 c 0
 332.499023438 621 331 613.170898438 331 606 c 0
 331 473.783203125 227.327148438 313.728515625 184 192 c 0
 181 156 l 1025
EndSplineSet
Validated: 35
EndChar

StartChar: eight
Encoding: 56 56 85
Width: 400
VWidth: 0
Flags: HW
LayerCount: 2
Fore
SplineSet
220 606 m 0
 216.228515625 612.138671875 209.146484375 607.258789062 205 609 c 0
 170.845703125 609 139 575.19140625 139 543 c 0
 139 428.747070312 307 336.5859375 307 198 c 0
 307 136.173828125 244.083984375 129 196 129 c 0
 117.158203125 129 106 181.040039062 106 249 c 0
 106 360.317382812 229 428.663085938 229 552 c 0
 230.764648438 580.077148438 203.459960938 603.083984375 184 618 c 1024
EndSplineSet
Validated: 35
EndChar

StartChar: nine
Encoding: 57 57 86
Width: 385
VWidth: 0
Flags: HW
LayerCount: 2
Fore
SplineSet
253 612 m 0
 242.927734375 612 234.374023438 612 226 612 c 0
 140.513671875 612 94 573.451171875 94 483 c 0
 94 437.875976562 111.473632812 441 151 441 c 0
 271.275390625 441 216.286132812 551.75 253 615 c 0
 256 102 l 1025
EndSplineSet
Validated: 35
EndChar

StartChar: colon
Encoding: 58 58 87
Width: 260
VWidth: 0
Flags: HW
LayerCount: 2
Fore
SplineSet
136 291 m 0
 133.120117188 290.349609375 135.098632812 288.228515625 135 287 c 0
 135 283.91015625 142.849609375 281 146 281 c 0
 147.838867188 281 148 289.52734375 148 290 c 0
 148 295 l 0
 135 298 l 1025
139 402 m 1
 137 402 l 0
 131.3828125 402 132 391.684570312 132 389 c 0
 132 383.278320312 131.467773438 382 139 382 c 0
 145.59375 382 145 388.413085938 145 395 c 0
 143.208007812 404.453125 140.97265625 417.017578125 131 420 c 1024
EndSplineSet
Validated: 3
EndChar

StartChar: semicolon
Encoding: 59 59 88
Width: 204
VWidth: 0
Flags: HW
LayerCount: 2
Fore
SplineSet
103 299 m 0
 102.357421875 301.217773438 97.4140625 298.653320312 97 303 c 0
 97 311.084960938 111.952148438 313 116 313 c 0
 139.530273438 313 140 277.145507812 140 262 c 0
 140 250.638671875 136.211914062 241.428710938 134 230 c 0
 113 177 l 1025
112 429 m 0
 109.127929688 428.905273438 108.12109375 425.448242188 108 422 c 0
 108 416.544921875 109.868164062 415 114 415 c 0
 122.7109375 415 121.888671875 419.358398438 123 426 c 0
 124.600585938 435.5703125 122.651367188 435.850585938 115 442 c 1024
EndSplineSet
Validated: 3
EndChar

StartChar: less
Encoding: 60 60 89
Width: 1000
VWidth: 0
Flags: H
LayerCount: 2
Fore
SplineSet
490 467 m 0
 415.603842257 448.664142626 346.632576356 375.032727487 266 361 c 0
 359.30694357 335.317910853 444.998355734 287.484009346 536 251 c 1024
EndSplineSet
Validated: 3
EndChar

StartChar: equal
Encoding: 61 61 90
Width: 442
VWidth: 0
Flags: HW
LayerCount: 2
Fore
SplineSet
86 311 m 1
 352 311 l 1025
82 389 m 1
 324 389 l 1025
EndSplineSet
Validated: 3
EndChar

StartChar: greater
Encoding: 62 62 91
Width: 498
VWidth: 0
Flags: HW
LayerCount: 2
Fore
SplineSet
108 465 m 1
 118 465 l 0
 153.629882812 465 432 409.857421875 432 399 c 0
 432 318.755859375 213.803710938 245.572265625 150 201 c 0
 140 191 l 1025
EndSplineSet
Validated: 3
EndChar

StartChar: question
Encoding: 63 63 92
Width: 457
VWidth: 0
Flags: HW
LayerCount: 2
Fore
SplineSet
198 120 m 4
 188.852539062 123.098632812 174.758789062 107.084960938 178 96 c 4
 178 93.9169921875 187.01171875 92 190 92 c 4
 194.40234375 90.71484375 200.45703125 93.43359375 200 100 c 1028
112 612 m 4
 153.791992188 626.481445312 204.93359375 638.157226562 252 636 c 4
 322.575195312 636 376 591.86328125 376 522 c 4
 376 432.353515625 309.4453125 390 224 390 c 4
 184 390 l 4
 176.110351562 390 180 290 180 290 c 4
 180 226 l 4
 188 204 l 1029
EndSplineSet
Validated: 35
EndChar

StartChar: at
Encoding: 64 64 93
Width: 482
VWidth: 0
Flags: HW
LayerCount: 2
Fore
SplineSet
307 396 m 0
 291.188476562 408.396484375 273.686523438 414.73046875 253 412 c 0
 188.53515625 412 173 363.99609375 173 310 c 0
 173 277.512695312 202.458984375 266 231 266 c 0
 300.193359375 262.276367188 310.643554688 397.482421875 313 408 c 0
 313 408 304.853515625 240 365 240 c 0
 406.142578125 240 399 328.880859375 399 352 c 0
 399 437.276367188 306.041992188 486 235 486 c 0
 134.272460938 486 105 408.409179688 105 322 c 0
 105 233.880859375 126.776367188 170.467773438 219 148 c 0
 299.91796875 128.287109375 407.234375 151.069335938 425 206 c 1024
EndSplineSet
Validated: 35
EndChar

StartChar: dollar
Encoding: 36 36 94
Width: 478
VWidth: 0
Flags: HW
LayerCount: 2
Fore
SplineSet
256 630 m 0
 252.715820312 565 259.190429688 500 256 435 c 0
 256 150 l 0
 268 78 l 1025
175 624 m 0
 212.040039062 526.71875 170.970703125 412.856445312 196 312 c 0
 196 42.6923828125 197.565429688 326.041992188 178 138 c 0
 175 66 l 1025
91 252 m 0
 121 201 163.143554688 174 226 174 c 0
 302.013671875 174 385 251.110351562 385 303 c 0
 385 421.129882812 112 339.75 112 450 c 0
 112 558.370117188 227.478516692 554.448111669 295 555 c 0
 331.918945312 555.301757812 323.12109375 537.948242188 349 510 c 1024
EndSplineSet
Validated: 35
EndChar

StartChar: percent
Encoding: 37 37 95
Width: 496
VWidth: 0
Flags: HW
LayerCount: 2
Fore
SplineSet
370 256 m 5
 361 256 l 4
 331.403320312 256 331 212.473632812 331 193 c 4
 331 171.384765625 332.295898438 166 349 166 c 4
 389.099609375 166 375.392578125 212.107421875 388 235 c 4
 361 274 l 1029
107 480 m 4
 93.2646484375 472.71875 94.7646484375 449.143554688 95 435 c 4
 95 413.63671875 103.482421875 402 125 402 c 4
 155.404296875 402 152 451.461914062 152 471 c 4
 146.408203125 470.520507812 142.931640625 509.555664062 128 504 c 1028
328 553 m 4
 275.220703125 439.471679688 233.689453125 320.13671875 178 208 c 4
 142 145 l 1029
EndSplineSet
Validated: 35
EndChar

StartChar: quotesingle
Encoding: 39 39 96
Width: 208
VWidth: 0
Flags: HW
LayerCount: 2
Fore
SplineSet
106 633 m 0
 104.96875 622 105.388671875 611 106 600 c 0
 108.349609375 584.508789062 97.48046875 564.004882812 112 552 c 1024
EndSplineSet
Validated: 35
EndChar

StartChar: parenleft
Encoding: 40 40 97
Width: 385
VWidth: 0
Flags: HW
LayerCount: 2
Fore
SplineSet
247 648 m 0
 180.22265625 595.362304688 136.798828125 495.842773438 148 408 c 0
 148 318.356445312 176.659179688 329.512695312 202 261 c 0
 223 219 l 1025
EndSplineSet
Validated: 35
EndChar

StartChar: parenright
Encoding: 41 41 98
Width: 346
VWidth: 0
Flags: HW
LayerCount: 2
Fore
SplineSet
67 639 m 0
 176.208984375 564.221679688 228.89453125 420.557617188 229 291 c 0
 229 235.24609375 195.186523438 209.848632812 175 162 c 0
 157 144 l 1025
EndSplineSet
Validated: 3
EndChar

StartChar: asterisk
Encoding: 42 42 99
Width: 332
VWidth: 0
Flags: HW
LayerCount: 2
Fore
SplineSet
139 649 m 0
 150.098521816 641.379845898 159.940802871 629.298216541 168 618 c 1024
171 644 m 0
 170 644 169 644 168 644 c 0
 162.329230176 644 154.410380129 633.63206707 150 630 c 0
 138 613 l 1025
138 629 m 0
 140.333333333 629 142.666666667 629 145 629 c 0
 156 629 l 0
 176 633 l 1025
158 649 m 1
 159 599 l 1025
EndSplineSet
Validated: 3
EndChar

StartChar: Amacron
Encoding: 256 256 100
Width: 346
VWidth: 0
Flags: HW
LayerCount: 2
Fore
SplineSet
73 587 m 1
 250 587 l 1025
97 244 m 1
 253 244 l 1025
52 49 m 0
 127.021484375 155.809570312 140.590820312 393.892578125 172 515 c 0
 172.03515625 515 175 485.006835938 175 485 c 0
 295 58 l 1025
EndSplineSet
Validated: 3
EndChar

StartChar: Abreve
Encoding: 258 258 101
Width: 406
VWidth: 0
Flags: HW
LayerCount: 2
Fore
SplineSet
118 622 m 1
 118 613 l 0
 118 579.21484375 161.928710938 538 196 538 c 0
 201.66015625 538 195.840820312 537.68359375 208 541 c 0
 244 661 l 1025
109 253 m 1
 304 253 l 1025
37 46 m 1
 37 52 l 0
 37 100.727539062 204.758789062 466 205 466 c 0
 244.743164062 466 311.010742188 171.267578125 325 136 c 0
 370 40 l 1025
EndSplineSet
Validated: 3
EndChar

StartChar: Emacron
Encoding: 274 274 102
Width: 388
VWidth: 0
Flags: HW
LayerCount: 2
Fore
SplineSet
103 614 m 1
 271 614 l 1025
46 68 m 0
 102.615234375 81.0234375 172.618164062 50.7578125 230 66 c 0
 317 75 l 1025
73 278 m 0
 88.8125 275.170898438 107.02734375 299.45703125 124 290 c 0
 187 296 l 1025
58 497 m 0
 103.234375 497 157.022460938 497 202 497 c 0
 253.456054688 473.108398438 274.098632812 509.911132812 322 509 c 1024
67 488 m 1
 61 86 l 1025
EndSplineSet
Validated: 35
EndChar

StartChar: Ebreve
Encoding: 276 276 103
Width: 385
VWidth: 0
Flags: HW
LayerCount: 2
Fore
SplineSet
37 588 m 0
 57.953125 556.716796875 83.373046875 513.659179688 127 510 c 0
 153.848632812 510 175.241210938 575.192382812 178 579 c 0
 199 642 l 1025
67 51 m 1
 346 54 l 1025
73 213 m 0
 127.869140625 222.09765625 186.274414062 231.963867188 244 237 c 1024
61 429 m 0
 91.9716796875 429 128.001953125 429 160 429 c 0
 187 429 l 0
 256 450 l 1025
55 426 m 1
 55 417 l 0
 55 329.147460938 83.150390625 241.737304688 97 156 c 0
 103 48 l 1025
EndSplineSet
Validated: 3
EndChar

StartChar: Imacron
Encoding: 298 298 104
Width: 478
VWidth: 0
Flags: HW
LayerCount: 2
Fore
SplineSet
124 618 m 1
 301 621 l 1025
47 50 m 1
 62 50 l 0
 122.025390625 50 100.569335938 61.2158203125 205 51 c 0
 421 54 l 1025
58 459 m 0
 169.825195312 486.875 301.6953125 492.4140625 424 498 c 1024
244 480 m 1
 250 54 l 1025
EndSplineSet
Validated: 35
EndChar

StartChar: Ibreve
Encoding: 300 300 105
Width: 430
VWidth: 0
Flags: HW
LayerCount: 2
Fore
SplineSet
112 622 m 0
 146.340820312 587 163.135742188 503.2578125 229 520 c 0
 306.453125 533.470703125 313.954101562 605.51953125 319 667 c 1024
37 37 m 0
 53.533203125 37 73.1337890625 37 91 37 c 0
 184.4375 37 275.118164062 50.9833984375 367 58 c 0
 379 64 l 1025
52 445 m 0
 75.2861328125 445 103.249023438 445 127 445 c 0
 340 445 l 0
 388 451 l 1025
217 442 m 0
 203.5859375 363.861328125 191.782226562 254.92578125 199 175 c 0
 181 34 l 1025
EndSplineSet
Validated: 35
EndChar

StartChar: Omacron
Encoding: 332 332 106
Width: 499
VWidth: 0
Flags: HW
LayerCount: 2
Fore
SplineSet
79 639 m 1
 421 639 l 1025
274 534 m 0
 254.01953125 544.142578125 230.270507812 544.412109375 208 543 c 0
 57.373046875 543 52 447.954101562 52 318 c 0
 52 163.138671875 105.3515625 32 275 32 c 0
 388.200195312 32 439 164.076171875 439 249 c 0
 469.453125 388.6796875 345.036132812 477.013671875 259 561 c 1024
EndSplineSet
Validated: 35
EndChar

StartChar: Obreve
Encoding: 334 334 107
Width: 409
VWidth: 0
Flags: HW
LayerCount: 2
Fore
SplineSet
73 646 m 0
 92.193359375 588.936523438 154.381835938 544.4453125 217 553 c 0
 248.224609375 577.760742188 249.967773438 621.015625 265 652 c 1024
247 496 m 0
 235.611328125 496 227.34765625 496 217 496 c 0
 69.1904296875 496 46 336.831054688 46 214 c 0
 46 93.041015625 132.33203125 28 239 28 c 0
 331.625 28 367 188.336914062 367 244 c 0
 367 347.247070312 315.822265625 379.646484375 283 466 c 0
 238 511 l 1025
EndSplineSet
Validated: 35
EndChar

StartChar: Umacron
Encoding: 362 362 108
Width: 415
VWidth: 0
Flags: HW
LayerCount: 2
Fore
SplineSet
101 609 m 1
 110 609 l 0
 149.528320312 609 200.633789062 602.841796875 242 600 c 0
 320 594 l 1025
70 458 m 0
 60.193359375 380.104492188 52.44921875 273.916992188 56 194 c 0
 56 142.61328125 134.109375 56 188 56 c 0
 365.17578125 56 291.162109375 380.34765625 331 492 c 0
 353 83 l 0
 371 38 l 1025
EndSplineSet
Validated: 35
EndChar

StartChar: Agrave
Encoding: 192 192 109
Width: 406
VWidth: 0
Flags: HW
LayerCount: 2
Fore
SplineSet
49 663 m 0
 108.9921875 665.321289062 146.895507812 603.09375 199 585 c 1024
67 219 m 0
 91.2216796875 219 120.458007812 219 145 219 c 0
 268 231 l 1025
52 102 m 1
 52 117 l 0
 52 155.934570312 133.100585938 498 151 498 c 0
 172.888671875 498 220 396 220 396 c 0
 358 18 l 1025
EndSplineSet
Validated: 35
EndChar

StartChar: Aacute
Encoding: 193 193 110
Width: 382
VWidth: 0
Flags: HW
LayerCount: 2
Fore
SplineSet
121 536 m 0
 166.865234375 560.399414062 206.317382812 607.534179688 244 647 c 1024
76 242 m 1
 259 245 l 1025
46 89 m 0
 106.96484375 214.314453125 108.26953125 365.203125 166 488 c 0
 215.704101562 488 269.115234375 199.67578125 286 152 c 0
 313 50 l 1025
EndSplineSet
Validated: 3
EndChar

StartChar: Egrave
Encoding: 200 200 111
Width: 433
VWidth: 0
Flags: HW
LayerCount: 2
Fore
SplineSet
106 648 m 0
 172.776367188 621.626953125 215.0703125 543.315429688 289 522 c 1024
112 57 m 0
 175.676757812 59.2099609375 240.482421875 86.3203125 304 99 c 0
 358 123 l 1025
100 264 m 1
 274 294 l 1025
64 468 m 0
 85.8818359375 471.149414062 109.310546875 453.170898438 133 465 c 0
 245.670898438 465 106.094726562 464.239257812 244 468 c 0
 304 480 l 1025
70 453 m 0
 87.1826171875 318.500976562 80.662109375 178.76953125 100 45 c 1024
EndSplineSet
Validated: 35
EndChar

StartChar: Eacute
Encoding: 201 201 112
Width: 424
VWidth: 0
Flags: HW
LayerCount: 2
Fore
SplineSet
127 549 m 0
 160.375 595.6171875 237.432617188 612.466796875 271 666 c 1024
64 54 m 1
 85 54 l 0
 232 54 l 0
 349 72 l 1025
70 267 m 1
 250 264 l 1025
61 435 m 1
 76 435 l 0
 159.219726562 434.805664062 236.124023438 476.920898438 319 483 c 1024
79 438 m 0
 77.4541015625 362 79.306640625 286 79 210 c 0
 76.4345703125 154.456054688 60.181640625 98.15234375 70 42 c 1024
EndSplineSet
Validated: 35
EndChar

StartChar: Ograve
Encoding: 210 210 113
Width: 454
VWidth: 0
Flags: HW
LayerCount: 2
Fore
SplineSet
133 633 m 0
 182.244140625 591.826171875 242.09375 562.633789062 292 522 c 1024
286 471 m 1
 280 471 l 0
 250.251953125 471 224.749023438 474 196 474 c 0
 119.635742188 474 61 260.24609375 61 204 c 0
 61 117.827148438 224.469726562 75 295 75 c 0
 389.864257812 75 400 170.209960938 400 246 c 0
 400 371.137695312 366 426 283 450 c 0
 259 456 l 1025
EndSplineSet
Validated: 3
EndChar

StartChar: Oacute
Encoding: 211 211 114
Width: 463
VWidth: 0
Flags: HW
LayerCount: 2
Fore
SplineSet
103 506 m 0
 159.393554688 539.713867188 230.098632812 572.735351562 283 620 c 1024
247 440 m 0
 237.3515625 447.994140625 226.219726562 437.932617188 217 443 c 0
 79.4853515625 443 61 252.453125 61 151 c 0
 61 86.4716796875 216.625 40 262 40 c 0
 369.487304688 40 403 213.833007812 403 296 c 0
 371.134765625 388.978515625 272.311523438 425.302734375 196 467 c 1024
EndSplineSet
Validated: 3
EndChar

StartChar: Ugrave
Encoding: 217 217 115
Width: 370
VWidth: 0
Flags: HW
LayerCount: 2
Fore
SplineSet
78 629 m 1
 237 515 l 1025
84 482 m 0
 75.650390625 416.138671875 69.7138671875 313.375 72 245 c 0
 72 153.825195312 87.056640625 59 192 59 c 0
 258.345703125 59 276 397.0859375 276 448 c 0
 276 469 l 0
 276 389.3984375 289.313476562 173.55859375 309 67 c 1024
EndSplineSet
Validated: 35
EndChar

StartChar: Uacute
Encoding: 218 218 116
Width: 361
VWidth: 0
Flags: HW
LayerCount: 2
Fore
SplineSet
91 489 m 0
 157.877929688 524.716796875 217.450195312 577.517578125 274 630 c 1024
58 414 m 0
 65.578125 373.889648438 56.884765625 269.299804688 61 228 c 0
 61 175.198242188 112.293945312 68 181 68 c 0
 279.244140625 68 292 358.844726562 292 423 c 0
 292 382.565429688 286 343.36328125 286 303 c 0
 286 259.702148438 293.736328125 165.28125 298 123 c 0
 319 75 l 1025
EndSplineSet
Validated: 35
EndChar

StartChar: Igrave
Encoding: 204 204 117
Width: 391
VWidth: 0
Flags: HW
LayerCount: 2
Fore
SplineSet
79 625 m 0
 137.361328125 595.194335938 191.12109375 553.510742188 253 526 c 1024
61 75 m 0
 76.8779296875 74.9375 99.1875 75.623046875 115 72 c 0
 337 69 l 1025
43 430 m 0
 135.39453125 445.678710938 240.375 421.702148438 325 475 c 1024
163 427 m 1
 163 78 l 1025
EndSplineSet
Validated: 35
EndChar

StartChar: Iacute
Encoding: 205 205 118
Width: 469
VWidth: 0
Flags: HW
LayerCount: 2
Fore
SplineSet
153 536 m 1
 336 644 l 1025
34 97 m 1
 412 87 l 1025
57 449 m 0
 182.198242188 425.086914062 279.09765625 436.395507812 408 435 c 1024
213 465 m 1
 207 94 l 0
 201 64 l 1025
EndSplineSet
Validated: 35
EndChar

StartChar: Ubreve
Encoding: 364 364 119
Width: 397
VWidth: 0
Flags: HW
LayerCount: 2
Fore
SplineSet
103 625 m 0
 130.479492188 582.532226562 121.21875 473.05859375 202 484 c 0
 211.831054688 484 229 526 229 526 c 0
 268 649 l 1025
67 448 m 0
 61.806640625 378.168945312 40.4716796875 309.764648438 49 238 c 0
 49 137.227539062 58.326171875 30 200 30 c 0
 355.790039062 25.6787109375 303.287109375 596.419921875 319 432 c 0
 330.913085938 298.688476562 301.649414062 163.29296875 347 37 c 1024
EndSplineSet
Validated: 35
EndChar

StartChar: uni5708
Encoding: 22280 22280 120
Width: 620
VWidth: 0
Flags: HW
LayerCount: 2
Fore
SplineSet
250 311 m 1
 252 301 l 0
 252 247 l 0
 240 163 313.46875 151 372 151 c 0
 400.04296875 151 410.065429688 162.705078125 430 169 c 0
 436 195 l 1025
86 73 m 0
 95.7333984375 79.19140625 117.552734375 73.9794921875 130 81 c 0
 494 85 l 0
 528 93 l 1025
256 307 m 1024
264 311 m 1
 304 311 l 0
 325.065429688 315.040039062 348.248046875 325 368 325 c 0
 368.984375 317.807617188 363.858398438 301.823242188 366 291 c 0
 368.59765625 277.870117188 364 254.471679688 364 237 c 0
 364 226.010742188 359.157226562 220.665039062 358 217 c 0
 332 237 l 1025
352 391 m 1
 356 389 l 0
 356 389 432.325195312 317.224609375 444 303 c 0
 488 279 l 1025
317 583 m 1
 307 517 l 0
 192 267 l 0
 170 235 l 1025
170 379 m 0
 172 379 174 379 176 379 c 0
 266.393554688 379 383.873046875 400.79296875 474 419 c 0
 490 425 l 1025
240 467 m 0
 242 467 244 467 246 467 c 0
 284.083984375 468.702148438 356.544921875 468.215820312 390 487 c 1024
452 583 m 1
 448 581 l 0
 428.16015625 563.73046875 397.482421875 551.788085938 386 529 c 1024
142 561 m 0
 163.265625 553.751953125 181.021484375 537.674804688 200 523 c 1024
60 631 m 0
 63.3333333333 631 66.6666666667 631 70 631 c 0
 93.3253894379 631 115.337730844 639 138 639 c 0
 174.666666667 639 211.333333333 641 248 641 c 0
 344.898116205 643.37461978 443.975489113 651.58927286 534 673 c 0
 537.391272232 673.806553723 579.512643753 667.01166006 560 655 c 0
 560 25 l 0
 516 59 l 1025
56 645 m 1
 56 629 l 0
 75.2161848106 558.213112557 78.0130784034 483.34057091 88 413 c 0
 101.583440137 317.328183123 88.5595703125 197.23828125 82 103 c 0
 80 47 l 1025
EndSplineSet
Validated: 35
EndChar

StartChar: uni51FA
Encoding: 20986 20986 121
Width: 481
VWidth: 0
Flags: HW
LayerCount: 2
Fore
SplineSet
406.099609375 221 m 1
 409.299804688 72 l 1025
53.7001953125 219 m 0
 70.755859375 189.673828125 54.8037109375 112.8046875 82.099609375 98 c 0
 152.177734375 98 303.415039062 98.03515625 373.299804688 108 c 0
 414.099609375 117 l 1025
230.5 624 m 0
 230.5 618 230.5 612 230.5 606 c 0
 230.5 450.645507812 233.333984375 250.823242188 239.700195312 95 c 1024
413.299804688 510 m 1
 408.5 346 l 1025
60.900390625 493 m 1
 60.900390625 377 l 0
 101.700195312 377 l 0
 220.5 377 l 0
 367.700195312 388 l 0
 401.299804688 394 l 1025
EndSplineSet
Validated: 3
EndChar

StartChar: uni7248
Encoding: 29256 29256 122
Width: 644
VWidth: 0
Flags: HW
LayerCount: 2
Fore
SplineSet
370 389 m 1
 370 383 l 0
 370 292.844726562 506.927734375 189.703125 553 125 c 0
 577 119 l 1025
370 383 m 1
 382 383 l 0
 398.330078125 383 535 403.868164062 535 410 c 0
 535 273.884765625 467.411132812 208.809570312 430 98 c 0
 409 95 l 1025
364 533 m 1
 514 608 l 1025
358 575 m 0
 374.485351562 492.473632812 364.047851562 406.763671875 367 323 c 0
 365.271484375 262.828125 377.016601562 193.036132812 343 140 c 1024
114 322 m 0
 145.266601562 327.354492188 196.217773438 347.5078125 213 355 c 0
 207 70 l 1025
246 664 m 1
 249 505 l 1025
117 496 m 1
 123 496 l 0
 147 496 l 0
 291 523 l 1025
108 595 m 1
 108 580 l 0
 108 518.970703125 120 458.479492188 120 397 c 0
 120 305.018554688 95.16015625 212.459960938 84 130 c 0
 81 118 l 1025
EndSplineSet
Validated: 35
EndChar

StartChar: uni793E
Encoding: 31038 31038 123
Width: 649
VWidth: 0
Flags: HW
LayerCount: 2
Fore
SplineSet
283 101.799804688 m 5
 580 101.799804688 l 1029
424 577 m 4
 441.16015625 420.61328125 422.631835938 254.184570312 433 94.599609375 c 1028
340 375.400390625 m 5
 523 375.400390625 l 1029
178 368.200195312 m 5
 277 289 l 1029
172 350.200195312 m 5
 172 335.799804688 l 4
 172 247.13671875 165.984375 154.947265625 163 65.7998046875 c 1028
106 490.599609375 m 4
 105.153320312 479.984375 124.1640625 493.197265625 127 487 c 4
 144.465820312 487 259 508.599609375 259 508.599609375 c 4
 219.006835938 407.193359375 145.525390625 319.125 70 256.599609375 c 1028
157 620.200195312 m 4
 177.572265625 608.170898438 187.872070312 576.341796875 205 559 c 4
 214 555.400390625 l 1029
EndSplineSet
Validated: 35
EndChar

StartChar: uni3002
Encoding: 12290 12290 124
Width: 279
VWidth: 0
Flags: HW
LayerCount: 2
Fore
SplineSet
111 209 m 0
 104 209 97 209 90 209 c 0
 53.06640625 209 30 176.084960938 30 140 c 0
 28.9541015625 101.387695312 59.7431640625 79.4833984375 96 86 c 0
 131.20703125 92.328125 168 79.75 168 134 c 0
 168 148.952148438 155.736328125 162.93359375 150 176 c 0
 120 194 l 1025
EndSplineSet
Validated: 35
EndChar

StartChar: uni5FC3
Encoding: 24515 24515 125
Width: 871
VWidth: 0
Flags: HW
LayerCount: 2
Fore
SplineSet
666 429 m 0
 685.40234375 408.427734375 695.120117188 381.048828125 714 360 c 0
 735 312 l 1025
313 590 m 0
 353.786132812 574.630859375 398.260742188 507.869140625 415 461 c 1024
231 519 m 0
 285.819335938 284.756835938 200.9453125 92.765625 367 87 c 0
 378.643554688 86.595703125 721.162109375 91.4912109375 713 102 c 0
 676.899414062 148.48046875 671.672851562 160.982421875 651 223 c 1024
149 392 m 0
 154.950195312 390.049804688 150.2421875 383.686523438 152 380 c 0
 119 167 l 0
 113 158 l 1025
EndSplineSet
Validated: 35
EndChar

StartChar: uni4E4B
Encoding: 20043 20043 126
Width: 793
VWidth: 0
Flags: HW
LayerCount: 2
Fore
SplineSet
61 269 m 0
 216.579480778 278.739518911 325.451210719 126.054585013 481 143 c 0
 619.000113633 143 449.645476945 137.681458307 628 167 c 0
 688 191 l 1025
106 473 m 0
 112.000090122 473.000003836 117.999942064 472.999997559 124 473 c 0
 262.335556465 475.028426153 393.485664811 520.20820515 517 578 c 0
 529.035459422 583.631336644 551.446528142 596 565 596 c 0
 570.000030577 596 568 596.999988735 568 590 c 0
 568 514.830901683 318.048808123 323.026305768 256 257 c 0
 226 197 l 1025
256 653 m 0
 279.691282989 652.284389835 276.839438722 618.019520752 292 605 c 0
 307 569 l 1025
EndSplineSet
Validated: 35
EndChar

StartChar: uni6240
Encoding: 25152 25152 127
Width: 808
VWidth: 0
Flags: HMW
LayerCount: 2
Fore
SplineSet
178 744 m 5
 184 744 l 4
 208.268554688 738.103515625 229.631835938 716.809570312 247 699 c 1028
580 429 m 5
 579 51 l 1029
433 420 m 5
 715 456 l 1029
586 690 m 4
 557.114257812 655.694335938 532.159179688 616.16015625 499 585 c 4
 436 552 l 1029
430 633 m 4
 425.384765625 588.560546875 445.16796875 545.741210938 436 501 c 4
 436 392.587890625 414.330078125 299.717773438 403 195 c 4
 385 147 l 1029
154 405 m 5
 163 405 l 4
 194.482421875 405 227.234375 406.997070312 259 408 c 4
 304 417 l 1029
154 591 m 4
 165 591 176 591 187 591 c 4
 230.668945312 591 280.1640625 609 319 609 c 4
 318.962890625 609 316 573 316 573 c 4
 312.110351562 523.446289062 324.71875 469.997070312 310 423 c 1028
154 639 m 4
 154 600 154 561 154 522 c 4
 154 447.67578125 150.001953125 373.74609375 148 300 c 4
 106 165 l 4
 103 150 l 1029
EndSplineSet
Validated: 35
EndChar

StartChar: uni5411
Encoding: 21521 21521 128
Width: 874
VWidth: 0
Flags: HW
LayerCount: 2
Fore
SplineSet
367 323 m 5
 499 323 l 1029
352 455 m 4
 361.297851562 467.352539062 386.408203125 441.528320312 394 458 c 4
 505 458 l 4
 511 344 l 1029
337 461 m 4
 329.616210938 419.853515625 348.642578125 371.940429688 352 329 c 4
 352 311 l 1029
142 596 m 5
 151 596 l 4
 369.415039062 596 519.872070312 623 738 623 c 4
 743.294921875 623 741 593 741 593 c 4
 742.73828125 445.555664062 690.21484375 302.569335938 693 155 c 4
 693.314453125 138.337890625 686.4609375 74 675 74 c 4
 650.084960938 94.3271484375 642.956054688 134.661132812 609 143 c 1028
127 581 m 4
 139.323242188 439.633789062 146.180664062 260.243164062 145 131 c 1028
453 716 m 4
 444.64453125 706.989257812 406.547851562 676.434570312 395 672 c 4
 335 618 l 1029
EndSplineSet
Validated: 35
EndChar

StartChar: uni4E8C
Encoding: 20108 20108 129
Width: 895
VWidth: 0
Flags: HW
LayerCount: 2
Fore
SplineSet
323 549 m 1
 521 567 l 1025
161 252 m 1
 695 270 l 1025
EndSplineSet
Validated: 3
EndChar

StartChar: uni96F6
Encoding: 38646 38646 130
Width: 751
VWidth: 0
Flags: HW
LayerCount: 2
Fore
SplineSet
349 456 m 1
 355 456 l 0
 371.760742188 456 588.271484375 261.390625 607 246 c 1024
286 249 m 0
 454 108 l 1025
292 297 m 0
 331.451171875 297 420.493164062 306.141601562 454 303 c 0
 367 213 l 0
 367 213 l 1025
328 378 m 1
 340 378 l 0
 388 339 l 1025
358 471 m 1
 358 462 l 0
 320.731445312 383.1796875 196.5625 293.989257812 118 246 c 1024
418 507 m 1
 427 507 l 0
 442 507 l 0
 484 498 l 1025
418 546 m 1
 490 546 l 1025
235 501 m 0
 251.903320312 495.857421875 268.272460938 494.09375 286 492 c 1024
241 546 m 0
 261.25390625 536.60546875 283.203125 534.256835938 304 528 c 1024
163 585 m 0
 172.197265625 569.481445312 177.543945312 550.328125 193 540 c 1024
166 585 m 0
 229 585 292 585 355 585 c 0
 378.9921875 585 559 603.97265625 559 576 c 0
 559 555.64453125 559.727539062 579.850585938 556 555 c 0
 541 525 l 1025
385 654 m 1
 370 480 l 1025
307 666 m 1
 325 666 l 0
 370 666 l 0
 454 672 l 1025
EndSplineSet
Validated: 35
EndChar

StartChar: uni4E09
Encoding: 19977 19977 131
Width: 787
VWidth: 0
Flags: HW
LayerCount: 2
Fore
SplineSet
127 213 m 1
 631 234 l 1025
275 412 m 0
 303.650390625 426.485351562 351.717773438 422.181640625 386 433 c 0
 428 433 l 0
 464 439 l 1025
264 561 m 0
 269.00390625 568.99609375 290.353515625 560.646484375 300 564 c 0
 495 594 l 1025
EndSplineSet
Validated: 35
EndChar

StartChar: uni5E74
Encoding: 24180 24180 132
Width: 850
VWidth: 0
Flags: HW
LayerCount: 2
Fore
SplineSet
398 615 m 0
 398 561 398 484 398 430 c 0
 398 195 l 0
 389 114 l 1025
107 385 m 1
 119 385 l 0
 322.534179688 385 543.877929688 427.658203125 746 448 c 1024
278 481 m 1
 278 409 l 1025
284 484 m 1
 461 511 l 1025
275 609 m 1
 281 609 l 0
 314 609 l 0
 482 636 l 1025
290 678 m 0
 290 672 290 666 290 660 c 0
 251 540 l 1025
EndSplineSet
Validated: 3
EndChar

StartChar: uni5BF9
Encoding: 23545 23545 133
Width: 826
VWidth: 0
Flags: HW
LayerCount: 2
Fore
SplineSet
467 432 m 1
 551 366 l 1025
611 681 m 1
 611 648 l 0
 611 484.379882812 638 317.728515625 638 153 c 0
 638 140.876953125 639.573242188 141 626 141 c 0
 588.913085938 141 527.811523438 187.739257812 494 204 c 0
 446 234 l 1025
425 510 m 1
 437 510 l 0
 482 510 l 0
 710 525 l 1025
140 486 m 0
 225.337890625 398.0546875 276.889648438 277.465820312 368 198 c 1024
134 600 m 0
 157 600 180 600 203 600 c 0
 249.977539062 603.942382812 313.127929688 592.08203125 356 615 c 0
 434.608398438 533.0078125 251.916992188 259.7890625 146 186 c 1024
EndSplineSet
Validated: 35
EndChar

StartChar: uni4E0D
Encoding: 19981 19981 134
Width: 844
VWidth: 0
Flags: HW
LayerCount: 2
Fore
SplineSet
457 534 m 0
 486.734375 508.861328125 518.475585938 486.142578125 553 468 c 0
 601 450 l 1025
388 537 m 0
 412.297851562 413.846679688 394.31640625 286.668945312 400 162 c 0
 409 102 l 1025
451 663 m 0
 396.739257812 555.77734375 334.283203125 429.130859375 220 378 c 1024
94 630 m 0
 294.897460938 665.788085938 508.688476562 673.728515625 715 684 c 1024
EndSplineSet
Validated: 35
EndChar

StartChar: uni8D77
Encoding: 36215 36215 135
Width: 865
VWidth: 0
Flags: HW
LayerCount: 2
Fore
SplineSet
548 466 m 1
 548 298 l 0
 594.966796875 292.087890625 640.005859375 280 692 280 c 0
 710.893554688 280 718.935546875 285.693359375 734 289 c 0
 728 346 l 1025
548 481 m 1
 707 484 l 1025
515 553 m 0
 551.5625 566.299804688 641.12109375 564.384765625 692 577 c 0
 701 577 l 0
 647 493 l 1025
201 323 m 1
 201 311 l 0
 317.891601562 147.305664062 552.383789062 132.663085938 735 146 c 1024
201 341 m 1
 201 332 l 0
 201 250.251953125 124.858398438 216.4453125 90 164 c 0
 78 155 l 1025
309 347 m 1
 441 350 l 1025
300 413 m 1
 303 278 l 0
 309 269 l 1025
102 410 m 0
 222.625 438.749023438 348.348632812 382.056640625 463 435 c 1024
300 701 m 0
 308.856445312 651.513671875 317.166992188 596.495117188 318 545 c 0
 318 528.07421875 316.015625 510.928710938 315 494 c 0
 309 443 l 1025
204 542 m 1
 378 542 l 1025
EndSplineSet
Validated: 35
EndChar

StartChar: uniFF0C
Encoding: 65292 65292 136
Width: 355
VWidth: 0
Flags: HW
LayerCount: 2
Fore
SplineSet
94 345 m 0
 118.873046875 319.193359375 170.456054688 270.255859375 172 222 c 0
 172 187.19921875 155.391601562 171.791015625 145 141 c 0
 115 111 l 1025
EndSplineSet
Validated: 3
EndChar

StartChar: uni60A8
Encoding: 24744 24744 137
Width: 820
VWidth: 0
Flags: HW
LayerCount: 2
Fore
SplineSet
587 297 m 1
 596 300 l 0
 596.7734375 300 616.6640625 291.151367188 617 291 c 0
 686 240 l 1025
392 291 m 1
 398 291 l 0
 408.881835938 291 454.37890625 250.104492188 464 243 c 0
 506 225 l 1025
281 267 m 0
 271.272460938 258.815429688 296.537109375 242.913085938 305 237 c 0
 371.93359375 190.234375 446.086914062 135 536 135 c 0
 546.075195312 135 581 131.540039062 581 150 c 0
 564.973632812 191.331054688 544.748046875 231.16796875 542 276 c 1024
230 264 m 0
 198.6328125 231.247070312 158.649414062 210.741210938 119 195 c 1024
536 525 m 0
 565.3046875 506.342773438 574.498046875 441.05859375 620 450 c 1024
401 498 m 0
 388.55078125 479.817382812 371.975585938 461.543945312 353 450 c 0
 317 435 l 1025
479 594 m 1
 479 327 l 0
 467 327 l 0
 434.215820312 327 417.931640625 367.29296875 398 384 c 0
 386 414 l 1025
437 603 m 0
 443.424804688 603 453.390625 603 461 603 c 0
 486.0234375 603 641 616.1953125 641 630 c 0
 641 629.997070312 632.000976562 627 632 627 c 0
 587 567 l 1025
476 678 m 0
 441.588867188 643.831054688 433.791992188 564.813476562 377 564 c 0
 368 555 l 1025
233 570 m 1
 233 564 l 0
 233 495.956054688 244.13671875 398.92578125 248 342 c 1024
287 678 m 1
 287 672 l 0
 254.168945312 617.4296875 219.66015625 554.973632812 167 519 c 0
 153.4921875 514.5703125 145.876953125 501.96484375 134 501 c 1024
EndSplineSet
Validated: 35
EndChar

StartChar: uni80FD
Encoding: 33021 33021 138
Width: 916
VWidth: 0
Flags: HW
LayerCount: 2
Fore
SplineSet
528 259 m 1
 672 343 l 0
 678.545898438 341.63671875 676.02734375 342.549804688 681 346 c 1024
513 406 m 0
 511.458007812 397 513.559570312 388 513 379 c 0
 513 209.624023438 523.41015625 112 720 112 c 0
 725.095703125 112 727.923828125 113.483398438 735 115 c 0
 738 190 l 1025
171 220 m 1
 183 220 l 0
 199.081054688 220 222.637695312 228.279296875 240 232 c 0
 321 238 l 1025
177 301 m 0
 188.991210938 301.069335938 211.740234375 299.87890625 222 307 c 0
 342 316 l 1025
177 397 m 0
 236.4375 402.45703125 301.297851562 404.346679688 360 418 c 0
 368.587890625 418 378 161.727539062 378 115 c 0
 378 106.0703125 375.818359375 95.0927734375 375 88 c 0
 345 112 l 1025
162 409 m 1
 168 172 l 1025
531 610 m 0
 576.952148438 620.751953125 633.905273438 625.705078125 669 664 c 1024
516 688 m 0
 541.45703125 643.040039062 492.1328125 530.526367188 558 523 c 0
 587.319335938 519.649414062 613.569335938 496 648 496 c 0
 679.71875 488.782226562 690.403320312 534.104492188 693 559 c 1024
330 601 m 0
 381.010742188 573.530273438 414.099609375 509.897460938 408 451 c 1024
267 664 m 0
 243.43359375 594.200195312 185.009765625 543.9453125 132 502 c 0
 132 495.526367188 182.598632812 499 186 499 c 0
 239.118164062 499 283.57421875 518.444335938 336 529 c 0
 372 541 l 1025
EndSplineSet
Validated: 35
EndChar

StartChar: uni544A
Encoding: 21578 21578 139
Width: 928
VWidth: 0
Flags: HW
LayerCount: 2
Fore
SplineSet
318 173 m 1
 336 173 l 0
 435.223632812 168.708007812 530.897460938 220.579101562 633 206 c 1024
285 329 m 0
 381.93359375 344.115234375 483.254882812 359.797851562 579 386 c 0
 591 386 l 0
 594 194 l 1025
258 350 m 0
 265.3203125 337.577148438 272.555664062 321.109375 282 308 c 0
 324 152 l 1025
102 410 m 1
 120 410 l 0
 299.928710938 410 482.646484375 448.033203125 663 467 c 0
 816 470 l 1025
444 680 m 1
 444 623 l 0
 444 566 l 0
 438 467 l 1025
303 563 m 1
 567 566 l 1025
318 617 m 0
 312.440429688 608.83984375 309.388671875 599.584960938 312 590 c 0
 264 500 l 1025
EndSplineSet
Validated: 35
EndChar

StartChar: uni8BC9
Encoding: 35785 35785 140
Width: 814
VWidth: 0
Flags: HW
LayerCount: 2
Fore
SplineSet
500 355 m 1
 515 355 l 0
 537.374023438 355 553.532226562 334.893554688 572 325 c 0
 668 271 l 1025
521 475 m 1
 521 460 l 0
 521 388.665039062 532.923828125 320.55078125 539 250 c 0
 542 58 l 1025
407 454 m 0
 484.176757812 475.2890625 572.770507812 486.494140625 656 496 c 1024
413 616 m 0
 439.70703125 630.073242188 516.581054688 634.381835938 554 661 c 0
 584 691 l 1025
422 631 m 0
 420.665039062 553 421.80078125 475 422 397 c 0
 422 303.637695312 393.555664062 250.6171875 377 166 c 0
 353 139 l 1025
219 715 m 0
 232.413085938 707.62890625 237.579101562 689.30078125 255 685 c 0
 297 643 l 1025
153 538 m 0
 189.504882812 556.245117188 244.006835938 575.692382812 279 586 c 0
 279 485.251953125 246 369.868164062 246 271 c 0
 246 271.0078125 258 277 258 277 c 0
 336 346 l 1025
EndSplineSet
Validated: 35
EndChar

StartChar: uni6211
Encoding: 25105 25105 141
Width: 838
VWidth: 0
Flags: HW
LayerCount: 2
Fore
SplineSet
509 670 m 0
 518.454101562 641.745117188 539.583984375 611.924804688 566 592 c 0
 602 580 l 1025
584 373 m 0
 535.8515625 320.319335938 506.903320312 249.255859375 431 229 c 1024
413 652 m 0
 519.857421875 504.858398438 459.706054688 220.48046875 629 130 c 0
 674.215820312 133.33984375 673.014648438 220.591796875 698 238 c 1024
64 252 m 0
 124.021484375 282.338867188 201.739257812 276.486328125 256 321 c 0
 328 351 l 0
 337 357 l 1025
232 569 m 1
 259 369 l 0
 259 297 l 0
 263.58203125 243.084960938 250.942382812 190.62109375 250 138 c 0
 249.104492188 88.03515625 218.147460938 113.083984375 187 141 c 0
 145 183 l 1025
111 424 m 4
 275.122070312 453.84765625 477.49609375 455.342773438 634 514 c 0
 713 544 l 1025
289 593 m 0
 243.227539062 579.983398438 188.748046875 570.33984375 148 563 c 0
 115 560 l 1025
EndSplineSet
Validated: 35
EndChar

StartChar: uni8FD9
Encoding: 36825 36825 142
Width: 925
VWidth: 0
Flags: HW
LayerCount: 2
Fore
SplineSet
64 154 m 0
 83.0419921875 165.704101562 98.7177734375 183.9765625 121 193 c 0
 144.69140625 202.594726562 162.239257812 211 193 211 c 0
 332.623046875 211 439.9375 124 586 124 c 0
 664.768554688 124 759.38671875 161.44140625 808 172 c 1024
142 538 m 0
 180.017578125 544.571289062 217.670898438 570.134765625 259 577 c 0
 257.922851562 577 233.475585938 523.723632812 229 514 c 0
 224.017578125 503.174804688 226 492.401367188 226 481 c 0
 220.590820312 463.59765625 244.415039062 458.725585938 244 442 c 0
 243.521484375 422.735351562 271 384.513671875 271 352 c 0
 271 292 l 0
 250 223 l 1025
133 697 m 0
 169.784179688 681.828125 193.943359375 637.067382812 235 622 c 1024
443 466 m 0
 506.377929688 412.646484375 571.520507812 352.935546875 623 286 c 1024
551 514 m 1
 551 502 l 0
 533.905273438 430.502929688 457.6875 278.790039062 397 235 c 1024
359 484 m 0
 443.391601562 502.265625 539.7890625 500.556640625 629 517 c 0
 689 532 l 1025
467 601 m 1
 548 529 l 1025
EndSplineSet
Validated: 35
EndChar

StartChar: uni662F
Encoding: 26159 26159 143
Width: 734
VWidth: 0
Flags: HW
LayerCount: 2
Fore
SplineSet
208 267 m 0
 301.86328125 175.672851562 433.99609375 118.954101562 565 105 c 0
 661 107 l 1025
229 305 m 1
 229 296 l 0
 194.790039062 208.9140625 165.657226562 105.619140625 79 56 c 1024
361 275 m 1
 367 275 l 0
 391.706054688 275 510.092773438 271.236328125 535 279 c 4
 562 282 l 1029
358 356 m 1
 361 188 l 1025
46 338 m 1
 67 338 l 0
 165.204101562 338 262.263671875 359.879882812 361 371 c 0
 691 398 l 1025
161 437 m 0
 194.14453125 442.814453125 290.767578125 461.190429688 326 465 c 0
 422 477 l 1025
143 521 m 1
 418 541 l 1025
146 587 m 0
 200.744140625 587 337.404296875 607 394 607 c 0
 431.803710938 607 436.263671875 592.986328125 448 589 c 0
 436 463 l 1025
131 593 m 1
 131 581 l 0
 147.782226562 536.936523438 127.232421875 480.92578125 155 440 c 1024
EndSplineSet
Validated: 35
EndChar

StartChar: uni54EA
Encoding: 21738 21738 144
Width: 864
VWidth: 0
Flags: HW
LayerCount: 2
Fore
SplineSet
544 676 m 0
 606.030273438 688.110351562 620.938476562 681.0078125 685 691 c 0
 708.765625 694.70703125 671.229492188 694 691 694 c 0
 694.041015625 694 697 692.4140625 697 688 c 0
 697 638.4296875 634 588.064453125 634 547 c 0
 634 535.797851562 742 462.599609375 742 391 c 0
 742 334.989257812 730.477539062 316 676 316 c 0
 619 316 l 0
 586 334 l 1025
538 690 m 0
 610.052734375 485.494140625 629.80078125 253.280273438 623 36 c 1024
273 433 m 1
 288 433 l 0
 368.502929688 454.284179688 405.809570312 451.193359375 487 472 c 1024
288 556 m 1
 297 556 l 0
 297.012695312 556 319.995117188 564.999023438 320 565 c 0
 434 568 l 1025
261 649 m 0
 331.752929688 663.125976562 357.467773438 661.127929688 430 679 c 0
 493.237304688 694.581054688 505 310.762695312 505 244 c 0
 505 238.426757812 496.149414062 241.524414062 493 241 c 0
 457 265 l 1025
312 667 m 0
 342.110351562 604.504882812 327.609375 515.849609375 333 445 c 0
 333 390.357421875 307.397460938 350.124023438 294 301 c 0
 285 271 l 1025
97 423 m 0
 100.611328125 423 107.34765625 423 112 423 c 0
 241 441 l 1
 235 570 l 0
 225.313476562 580.897460938 237.844726562 579 226 579 c 0
 182.67578125 579 141.431640625 570 100 570 c 0
 93.5498046875 570 86.650390625 570 82 570 c 1024
85 576 m 1
 103 435 l 1025
EndSplineSet
Validated: 35
EndChar

StartChar: uni4E00
Encoding: 19968 19968 145
Width: 865
VWidth: 0
Flags: H
LayerCount: 2
Fore
SplineSet
61 408 m 1
 76 408 l 0
 311.416015625 426.681640625 550.0078125 406.733398438 787 423 c 1024
EndSplineSet
Validated: 35
EndChar

StartChar: uni73ED
Encoding: 29677 29677 146
Width: 790
VWidth: 0
Flags: HW
LayerCount: 2
Fore
SplineSet
522 598 m 5
 522 589 l 4
 522 489.978515625 532.025390625 386.159179688 537 286 c 1028
420 259 m 5
 690 298 l 1029
471 433 m 5
 591 466 l 1029
423 580 m 4
 435.701171875 580 451.14453125 580 465 580 c 4
 588 601 l 1029
379 636 m 4
 378.500976562 620.973632812 376.583007812 605.591796875 382 591 c 4
 382 451.044921875 354.376953125 332.18359375 340 198 c 4
 301 114 l 1029
309 472 m 5
 309 388 l 1029
189 553 m 5
 195 241 l 4
 198 220 l 1029
132 187 m 4
 166.879882812 217.423828125 204.999023438 245.594726562 243 274 c 4
 294 310 l 1029
129 412 m 4
 164.864257812 423.1875 206.201171875 429.079101562 246 436 c 1028
102 547 m 5
 240 568 l 1029
EndSplineSet
Validated: 35
EndChar

StartChar: uni706B
Encoding: 28779 28779 147
Width: 838
VWidth: 0
Flags: HW
LayerCount: 2
Fore
SplineSet
610 667 m 0
 580.494140625 617.219726562 564.943359375 561.494140625 538 511 c 0
 496 472 l 1025
361 436 m 0
 454.299804688 369.146484375 494.600585938 237.96484375 604 184 c 0
 682 166 l 0
 712 160 l 1025
142 559 m 1
 217 469 l 1025
382 637 m 0
 380.517578125 608 381.946289062 579 382 550 c 0
 403.744140625 416.13671875 334.415039062 294.434570312 256 193 c 0
 249.870117188 185.071289062 208 136 208 136 c 0
 181 118 l 1025
EndSplineSet
Validated: 35
EndChar

StartChar: uni8F66
Encoding: 36710 36710 148
Width: 763
VWidth: 0
Flags: HW
LayerCount: 2
Fore
SplineSet
400 523 m 0
 398.78515625 518 399.65234375 513 400 508 c 0
 400 451 l 0
 382 121 l 1025
160 310 m 0
 286.345703125 326.631835938 448.30859375 330.823242188 583 337 c 0
 591.986328125 339.939453125 612.249023438 330.323242188 616 343 c 1024
382 688 m 0
 344.370117188 598.65234375 292.123046875 515.536132812 256 427 c 0
 256 427 268.17578125 427 271 427 c 0
 358.872070312 455.313476562 452.7890625 464.288085938 544 481 c 1024
235 586 m 0
 257.64453125 586 282.98828125 586 307 586 c 0
 442 586 l 0
 556 592 l 1025
EndSplineSet
Validated: 35
EndChar

StartChar: uni5417
Encoding: 21527 21527 149
Width: 871
VWidth: 0
Flags: HW
LayerCount: 2
Fore
SplineSet
234 238 m 5
 249 238 l 4
 355.1640625 274.706054688 467.604492188 305.258789062 582 307 c 4
 604.04296875 318.216796875 630.588867188 309.416992188 654 319 c 1028
381 663 m 4
 379.640625 627 380.616210938 591 381 555 c 4
 381 483.642578125 328.559570312 435 406 435 c 4
 513.806640625 435 628.260742188 483 730 483 c 4
 735.299804688 483 733 378 733 378 c 4
 733 291.05078125 706 209.26171875 706 123 c 4
 706 84 l 4
 710.892578125 39.271484375 662.58984375 100.744140625 658 111 c 1028
379 708 m 4
 453.813476562 718.64453125 528.908203125 734.8984375 607 732 c 4
 664.061523438 729.881835938 637 655.893554688 637 606 c 4
 637 568.24609375 628.971679688 533.4140625 625 498 c 4
 616 453 l 1029
119 473 m 5
 128 476 l 4
 170 476 l 4
 302 485 l 1029
104 608 m 5
 158 608 l 4
 200.25 608 239.630859375 629 284 629 c 4
 289.107421875 629 286.7421875 608.092773438 287 605 c 4
 275 482 l 1029
95 614 m 4
 109.674804688 554.39453125 113.376953125 489.84765625 122 428 c 1028
EndSplineSet
Validated: 35
EndChar

StartChar: uniFF1F
Encoding: 65311 65311 150
Width: 730
VWidth: 0
Flags: HW
LayerCount: 2
Fore
SplineSet
310.049804688 96.0751953125 m 0
 301.206054688 100.287109375 285.041992188 97.9912109375 274.349609375 101.174804688 c 0
 256.649414062 101.174804688 246.299804688 83.8857421875 246.299804688 68.025390625 c 0
 243.608398438 47.8876953125 272.224609375 48.5078125 287.099609375 45.0751953125 c 0
 299.021484375 42.32421875 311.5859375 42.525390625 325.349609375 42.525390625 c 0
 334.579101562 42.525390625 338.099609375 55.9677734375 338.099609375 62.9248046875 c 0
 338.099609375 67.0888671875 336.588867188 69.3154296875 335.549804688 73.125 c 0
 317.700195312 75.6748046875 l 1025
96.7001953125 516.825195312 m 0
 164.401367188 580.456054688 256.932617188 638.014648438 359.349609375 626.474609375 c 0
 421.848632812 626.474609375 535.299804688 584.017578125 535.299804688 504.075195312 c 0
 535.299804688 349.298828125 254.799804688 432.952148438 254.799804688 310.275390625 c 0
 254.799804688 279.111328125 269.453125 264.377929688 277.75 238.875 c 0
 287.950195312 162.375 l 1025
EndSplineSet
Validated: 35
EndChar

StartChar: uni55EF
Encoding: 21999 21999 151
Width: 868
VWidth: 0
Flags: HW
LayerCount: 2
Fore
SplineSet
677 275 m 0
 675.8671875 252.775390625 742 249 752 203 c 1024
522 272 m 0
 575 240 591.8125 217.348632812 593 216 c 1024
368 249 m 0
 416.994140625 103.328125 539.260742188 116 666 116 c 0
 705.997070312 116 678.73046875 158.23046875 687 188 c 1024
302 263 m 0
 300.518554688 249.94921875 303.166992188 236.818359375 299 224 c 0
 266 167 l 1025
344 336 m 0
 346.25 336 349.25 336 353 336 c 0
 422 336 l 0
 596 351 l 1025
504 503 m 0
 545.287109375 489.500976562 544.126953125 428.3515625 576 401 c 1024
363 545 m 1
 381 545 l 0
 432.478515625 545 479.860351562 560.762695312 531 569 c 0
 573 572 l 1025
471 605 m 0
 469.611328125 600 471.34765625 595 471 590 c 0
 471 532.784179688 463.032226562 478.114257812 459 422 c 0
 438 374 l 1025
299 630 m 1
 638 633 l 0
 645.37890625 634.703125 656.640625 639 665 639 c 0
 668.350585938 639 668 637 668 633 c 0
 668 530.884765625 637.377929688 420.369140625 623 321 c 1024
302 663 m 0
 300.611328125 658 302.34765625 653 302 648 c 0
 302 571.559570312 324.51171875 479.870117188 335 402 c 0
 344 339 l 1025
127 363 m 1
 253 384 l 1025
85 552 m 1
 94 552 l 0
 135.018554688 552 180.319335938 561.998046875 223 567 c 0
 229 378 l 1025
109 576 m 0
 107.611328125 571 109.34765625 566 109 561 c 0
 109 506.4375 117.002929688 454.624023438 121 402 c 0
 124 303 l 1025
EndSplineSet
Validated: 35
EndChar

StartChar: uni6B21
Encoding: 27425 27425 152
Width: 811
VWidth: 0
Flags: HW
LayerCount: 2
Fore
SplineSet
437 389 m 0
 495.161132812 291.677734375 563.1015625 183.018554688 680 149 c 0
 716 146 l 1025
449 482 m 0
 447.533203125 476 449.133789062 470 449 464 c 0
 449 319.66796875 375.590820312 302.455078125 326 194 c 0
 272 158 l 1025
353 581 m 1
 608 620 l 0
 589.157226562 580.474609375 579.888671875 536.137695312 557 500 c 1024
374 647 m 0
 372.611328125 632 374.34765625 617 374 602 c 0
 359 512 l 1025
257 374 m 0
 252.573242188 361.85546875 237.36328125 359.704101562 239 344 c 0
 155 233 l 1025
110 578 m 1
 269 524 l 1025
EndSplineSet
Validated: 35
EndChar

StartChar: uni5217
Encoding: 21015 21015 153
Width: 757
VWidth: 0
Flags: HW
LayerCount: 2
Fore
SplineSet
550 657 m 0
 548.815429688 558 549.465820312 459 550 360 c 0
 550 288.87890625 543.630859375 200.482421875 541 135 c 0
 457 189 l 1025
443 555 m 1
 440 348 l 1025
167 438 m 0
 179.987304688 444.883789062 199.249023438 410.689453125 212 408 c 0
 251 357 l 1025
191 489 m 0
 201.784179688 489 214.712890625 489 227 489 c 0
 259.668945312 489 288.880859375 498 323 498 c 0
 347.150390625 498 338 480.646484375 338 456 c 0
 338 370.409179688 292.662109375 336.6171875 266 267 c 0
 155 189 l 1025
248 612 m 0
 226.370117188 591.485351562 215.505859375 535.463867188 194 504 c 0
 140 432 l 1025
149 582 m 1
 161 582 l 0
 230.607421875 589.388671875 296.798828125 625.466796875 368 636 c 1024
EndSplineSet
Validated: 35
EndChar

StartChar: uni5B83
Encoding: 23427 23427 154
Width: 736
VWidth: 0
Flags: HW
LayerCount: 2
Fore
SplineSet
208 359 m 1
 223 359 l 0
 299.250976562 359 400.793945312 409.713867188 475 431 c 0
 520 446 l 1025
208 473 m 0
 209.029296875 423.3828125 208.674804688 374.595703125 208 326 c 0
 208 139.666992188 282.213867188 131 475 131 c 0
 475 131 610 130.280273438 610 131 c 0
 610 131 594.284179688 170.416015625 592 176 c 0
 580 212 l 1025
300 648 m 1
 369 621 l 1025
129 531 m 0
 277.856445312 550.873046875 441.021484375 576.375 597 573 c 0
 599.5 573 603 574.325195312 603 570 c 0
 603 548.40234375 586.171875 537.836914062 576 519 c 0
 567 507 l 1025
165 561 m 1
 165 543 l 0
 165 530.763671875 158.614257812 510.783203125 156 498 c 0
 138 435 l 1025
EndSplineSet
Validated: 35
EndChar

StartChar: uni53BB
Encoding: 21435 21435 155
Width: 856
VWidth: 0
Flags: HW
LayerCount: 2
Fore
SplineSet
487 311 m 0
 546.794921875 287.051757812 634.063476562 243.337890625 625 170 c 1024
379 404 m 0
 379 401.333007812 381.75 395.983398438 376 395 c 0
 376 311.677734375 178 240.91796875 178 191 c 0
 178 179.915039062 239.233398438 182 241 182 c 0
 345.56640625 183.194335938 452.512695312 224.521484375 553 260 c 1024
370 692 m 1
 370 425 l 1025
127 410 m 0
 171.213867188 408.625 210.38671875 410.880859375 250 410 c 0
 329.46484375 410 399.358398438 417.740234375 481 422 c 0
 739 428 l 1025
262 560 m 1
 496 563 l 1025
EndSplineSet
Validated: 35
EndChar

StartChar: uni5F80
Encoding: 24448 24448 156
Width: 880
VWidth: 0
Flags: HW
LayerCount: 2
Fore
SplineSet
477 650 m 4
 492.368164062 635.033203125 511.237304688 627.713867188 525 605 c 4
 576 569 l 1029
525 506 m 4
 533.588867188 448.986328125 531.487304688 385.05859375 531 326 c 4
 528.96484375 266.43359375 537.633789062 202.368164062 525 146 c 1028
318 173 m 4
 395.765625 171.305664062 411.120117188 174.9609375 492 173 c 4
 741 173 l 4
 792 167 l 1029
426 353 m 4
 435.116210938 362.19140625 504.4453125 356.78515625 537 365 c 4
 615 380 l 1029
378 503 m 4
 397.896484375 502.159179688 427.512695312 502.973632812 444 503 c 4
 500.315429688 503 548.487304688 512.46484375 609 518 c 4
 672 539 l 1029
237 433 m 4
 220.7578125 377.822265625 222.779296875 313.280273438 213 256 c 4
 208 165 l 1029
297 508 m 4
 252.430664062 451.06640625 198.974609375 384.731445312 144 352 c 4
 120 340 l 1029
255 632 m 4
 205.9296875 593.830078125 182.040039062 536.388671875 132 497 c 1028
EndSplineSet
Validated: 35
EndChar

StartChar: uni676D
Encoding: 26477 26477 157
Width: 796
VWidth: 0
Flags: HW
LayerCount: 2
Fore
SplineSet
434 648 m 0
 459.1171875 618.271484375 487.655273438 607.737304688 503 570 c 1024
377 495 m 0
 383.8203125 488.202148438 394.904296875 526.563476562 410 501 c 0
 620 537 l 1025
410 417 m 1
 431 417 l 0
 477.689453125 417 536.877929688 447 581 447 c 0
 588.119140625 447 584 423 584 423 c 0
 584 356.736328125 560 295.421875 560 231 c 0
 560 150.385742188 583.611328125 144 656 144 c 0
 671.403320312 144 676.3203125 159.989257812 686 168 c 0
 710 234 l 1025
410 420 m 0
 412.010742188 382.409179688 422.12109375 351.048828125 425 315 c 0
 425 258.22265625 405.845703125 230.358398438 395 183 c 0
 371 168 l 1025
239 444 m 0
 253.884765625 422.114257812 273.172851562 403.572265625 287 378 c 0
 329 366 l 1025
206 489 m 0
 187.463867188 426.688476562 161.568359375 361.053710938 122 309 c 1024
101 477 m 0
 151.607421875 492.466796875 212.533203125 481.780273438 260 501 c 0
 323 504 l 1025
209 684 m 0
 238.131835938 514.501953125 219.678710938 291.233398438 212 120 c 1024
EndSplineSet
Validated: 35
EndChar

StartChar: uni5DDE
Encoding: 24030 24030 158
Width: 799
VWidth: 0
Flags: HW
LayerCount: 2
Fore
SplineSet
616 703 m 0
 617.190429688 671.286132812 616.384765625 640.76953125 616 610 c 0
 616 510.16015625 605.905273438 411.811523438 601 316 c 0
 583 85 l 1025
490 538 m 0
 513.81640625 524.646484375 510.357421875 499.935546875 523 478 c 0
 547 448 l 1025
415 649 m 1
 415 604 l 0
 415 556.165039062 429.529296875 497.834960938 436 451 c 0
 436 259 l 0
 433 244 l 1025
301 535 m 0
 317.703125 521.6640625 336.227539062 477.8125 340 457 c 1024
253 694 m 1
 256 292 l 0
 190 172 l 0
 166 154 l 1025
205 532 m 0
 205.873046875 528.571289062 206.00390625 525.506835938 202 523 c 0
 202 497.001953125 182.979492188 476.2109375 175 457 c 0
 163 421 l 1025
EndSplineSet
Validated: 35
EndChar

StartChar: uni8C22
Encoding: 35874 35874 159
Width: 754
VWidth: 0
Flags: HW
LayerCount: 2
Fore
SplineSet
508 403 m 1
 565 322 l 1025
613 658 m 0
 609.893554688 630 618.903320312 602 613 574 c 0
 613 532.458984375 620.6875 93 583 93 c 0
 571.290039062 93 553.934570312 130.743164062 553 132 c 0
 532 171 l 1025
475 511 m 1
 484 511 l 0
 526 511 l 0
 661 526 l 1025
420 402 m 0
 380.727539062 372.677734375 387 318 267 234 c 1024
273 393 m 0
 354 399 l 0
 441 414 l 1025
319 457 m 1
 423 457 l 1025
321 503 m 1
 413 506 l 1025
310 552 m 1
 435 555 l 0
 429.829101562 511.255859375 426.991210938 114 411 114 c 0
 393.84375 114 359.838867188 155.884765625 351 165 c 0
 330 195 l 1025
310 549 m 1
 319 399 l 1025
384 669 m 1
 342 594 l 1025
130 636 m 0
 135.498046875 625.961914062 149.411132812 624.020507812 154 612 c 0
 190 564 l 1025
103 451 m 1
 163 486 l 0
 182.450195312 482.758789062 194.633789062 522.010742188 193 480 c 0
 188.90625 374.698242188 187.737304688 454.553710938 175 352 c 0
 173.819335938 342.495117188 168.311523438 243.489257812 172 256 c 0
 229 295 l 0
 238 304 l 1025
EndSplineSet
Validated: 35
EndChar

StartChar: uniFF01
Encoding: 65281 65281 160
Width: 436
VWidth: 0
Flags: HW
LayerCount: 2
Fore
SplineSet
177 114 m 1
 171 114 l 0
 152.813476562 114 141 97.4755859375 141 87 c 0
 141 75.20703125 158.561523438 66 171 66 c 0
 186.313476562 66 186.357421875 86.673828125 189 96 c 1024
144 712 m 0
 177.45703125 564.958007812 174.157226562 327.26953125 169 177 c 1024
EndSplineSet
Validated: 35
EndChar

StartChar: uni91CC
Encoding: 37324 37324 161
Width: 871
VWidth: 0
Flags: HW
LayerCount: 2
Fore
SplineSet
97 135 m 0
 151.65625 131.752929688 209.716796875 150.55078125 265 153 c 0
 438.140625 160.670898438 599.745117188 165.134765625 769 171 c 1024
385 652 m 1
 391 239 l 0
 394 162 l 1025
289 281 m 1
 490 281 l 1025
271 415 m 0
 276.740234375 415 314.809570312 418 322 418 c 0
 355 418 l 0
 514 418 l 1
 512.39453125 428.370117188 518.350585938 437.848632812 520 445 c 0
 535.768554688 513.383789062 568.415039062 578.879882812 598 643 c 0
 598 652 598.263671875 649 589 649 c 0
 476.821289062 649 363.869140625 643 253 643 c 0
 242.232421875 643 229.639648438 643 220 643 c 1024
307 538 m 1
 469 538 l 1025
229 631 m 1
 253 427 l 1025
EndSplineSet
Validated: 35
EndChar

StartChar: uni4EBA
Encoding: 20154 20154 162
Width: 841
VWidth: 0
Flags: HW
LayerCount: 2
Fore
SplineSet
359 477 m 0
 435.494140625 297.787109375 514 159 742 99 c 1024
410 663 m 0
 390.448242188 508.013671875 293 225 110 102 c 1024
EndSplineSet
Validated: 3
EndChar

StartChar: uni4E0A
Encoding: 19978 19978 163
Width: 850
VWidth: 0
Flags: HW
LayerCount: 2
Fore
SplineSet
404 431 m 5
 593 434 l 1029
125 194 m 5
 659 194 l 4
 689 188 l 1029
401 587 m 5
 395 221 l 1029
EndSplineSet
Validated: 3
EndChar

StartChar: uni6D77
Encoding: 28023 28023 164
Width: 820
VWidth: 0
Flags: HW
LayerCount: 2
Fore
SplineSet
418 361 m 0
 421.78515625 361 427.65234375 361 433 361 c 0
 490 319 l 1025
421 457 m 0
 435.21875 456.861328125 445.934570312 441.450195312 454 430 c 1024
292 397 m 1
 712 394 l 1025
376 487 m 1
 571 481 l 0
 571 469 l 0
 552.537109375 356.083984375 540.109375 242.478515625 547 127 c 0
 547.022460938 126.616210938 538.63671875 68.4326171875 535 82 c 0
 481 103 l 1025
367 475 m 1
 367 325 l 0
 360.69921875 312.66015625 343 293.416992188 343 277 c 0
 343 275.7890625 449.827148438 262.474609375 454 262 c 0
 577 245 l 0
 622 239 l 1025
379 571 m 0
 381.612304688 579.11328125 403.774414062 570.095703125 412 574 c 0
 453.451171875 574 501.455078125 576.025390625 544 577 c 0
 580 580 l 1025
397 658 m 0
 391.776367188 635.02734375 388.946289062 611.7734375 382 589 c 0
 346 511 l 1025
254 419 m 0
 215.012695312 361.907226562 208.431640625 302.5390625 176 242 c 0
 170 221 l 1025
117 495 m 0
 140.471679688 488.4921875 158.767578125 463.1953125 180 447 c 0
 204 435 l 1025
187 619 m 0
 198.493164062 613.510742188 205.979492188 600.353515625 217 592 c 0
 256 538 l 1025
EndSplineSet
Validated: 35
EndChar

StartChar: uni4F60
Encoding: 20320 20320 165
Width: 781
VWidth: 0
Flags: HW
LayerCount: 2
Fore
SplineSet
571 414 m 0
 604.559570312 401.420898438 601.467773438 338.00390625 643 342 c 1024
418 384 m 0
 411.001953125 378.40625 407.212890625 373.293945312 403 366 c 0
 346 318 l 1025
496 519 m 1
 496 507 l 0
 496 413.606445312 494 294.764648438 494 199 c 0
 494 190.549804688 498.391601562 157 488 157 c 0
 484.205078125 157 464.586914062 164.758789062 461 166 c 0
 434 196 l 1025
388 576 m 1
 403 576 l 0
 493.130859375 576 576.994140625 591.786132812 667 600 c 0
 607 531 l 1025
418 672 m 0
 401.515625 634.791015625 382.388671875 596.046875 367 558 c 0
 319 498 l 1025
208 588 m 0
 206.581054688 577 208.223632812 566 208 555 c 0
 208 482.448242188 195.828125 359.961914062 205 291 c 0
 208 174 l 1025
274 672 m 0
 256 627 174.970703125 538.422851562 144 520 c 0
 99 502 l 1025
EndSplineSet
Validated: 35
EndChar

StartChar: uni5462
Encoding: 21602 21602 166
Width: 847
VWidth: 0
Flags: HW
LayerCount: 2
Fore
SplineSet
472 260 m 1
 484 260 l 0
 558.282226562 292.71484375 647.518554688 316.78125 697 389 c 1024
472 389 m 0
 470.202148438 377 473.018554688 365 472 353 c 0
 472 150.471679688 465.748046875 110 685 110 c 0
 735.71484375 110 707.9453125 175.837890625 718 206 c 1024
631 503 m 0
 559.418945312 483.336914062 478.784179688 488.383789062 409 473 c 0
 395.250976562 474.934570312 383.956054688 470.930664062 373 470 c 1024
415 665 m 0
 417.25 665 420.25 665 424 665 c 0
 487.71875 665 548.514648438 707 607 707 c 0
 611.045898438 707 620.65625 571.39453125 622 557 c 0
 631 503 l 1025
406 668 m 0
 421.814453125 625.331054688 410.438476562 568.198242188 415 521 c 0
 415 363.11328125 346 269 281 154 c 0
 224 88 l 1025
169 428 m 0
 196.650390625 428 227.030273438 428 256 428 c 0
 323 428 l 0
 338 434 l 1025
142 598 m 1
 160 598 l 0
 206.719726562 598 248.887695312 613.741210938 295 622 c 0
 304 410 l 1025
124 601 m 0
 121.275390625 540.709960938 139.6171875 523.18359375 145 464 c 0
 154 422 l 1025
EndSplineSet
Validated: 35
EndChar

StartChar: uni5357
Encoding: 21335 21335 167
Width: 760
VWidth: 0
Flags: HW
LayerCount: 2
Fore
SplineSet
377 345 m 1
 377 150 l 1025
299 288 m 1
 467 294 l 1025
236 354 m 1
 503 357 l 1025
455 423 m 1
 413 354 l 1025
278 420 m 0
 291.361328125 406.42578125 313.911132812 401.495117188 323 381 c 0
 335 369 l 1025
113 450 m 1
 566 462 l 0
 591.450195312 479.565429688 577.982421875 396.546875 584 381 c 0
 601.431640625 335.966796875 599 230.8671875 599 180 c 0
 599 183.170898438 578.083007812 188.96875 578 189 c 0
 542 219 l 1025
164 444 m 0
 162.888671875 440 163.77734375 436 164 432 c 0
 164 409.409179688 169.65234375 392.0625 173 369 c 0
 179 214 l 1025
386 678 m 1
 374 459 l 1025
287 591 m 1
 503 591 l 1025
EndSplineSet
Validated: 35
EndChar

StartChar: uni4EAC
Encoding: 20140 20140 168
Width: 775
VWidth: 0
Flags: HW
LayerCount: 2
Fore
SplineSet
492 279 m 0
 524.614257812 246.731445312 557.625976562 164.915039062 618 153 c 1024
279 273 m 0
 248.775390625 258.48046875 218.826171875 249.342773438 192 231 c 0
 132 216 l 1025
402 315 m 0
 400.096679688 300 403.557617188 285 402 270 c 0
 402 201.497070312 405 130.212890625 405 63 c 0
 405 69.0439453125 369 78 369 78 c 0
 336 108 l 1025
264 339 m 0
 317.9140625 357.415039062 389.901367188 348.685546875 447 366 c 0
 552 372 l 1025
228 504 m 0
 251.65234375 504 277.922851562 504 303 504 c 0
 370.469726562 504 441.534179688 522 507 522 c 0
 512.133789062 522 507.254882812 522.89453125 513 516 c 0
 516 348 l 1025
228 513 m 1
 267 351 l 1025
108 522 m 0
 278.211914062 555.537109375 478.665039062 563.116210938 654 603 c 1024
264 711 m 0
 289.002929688 681.313476562 325.354492188 663.708984375 351 633 c 0
 372 600 l 1025
EndSplineSet
Validated: 35
EndChar

StartChar: uni6765
Encoding: 26469 26469 169
Width: 763
VWidth: 0
Flags: HW
LayerCount: 2
Fore
SplineSet
369 359 m 0
 397.515625 268.54296875 510.702148438 205.021484375 594 164 c 0
 633 161 l 1025
351 335 m 0
 306.086914062 261.017578125 235.8828125 216.340820312 156 182 c 0
 126 170 l 1025
126 359 m 0
 129.111328125 359 133.111328125 359 138 359 c 0
 256.638671875 359 378.715820312 368 498 368 c 0
 516.029296875 368 525.102539062 371.8203125 540 374 c 0
 594 380 l 1025
354 701 m 0
 383.860351562 551.854492188 361.916015625 396.720703125 369 245 c 0
 370.252929688 218.16796875 363 193.110351562 363 167 c 0
 363 149 l 0
 352 60 l 1025
501 521 m 1
 417 461 l 1025
201 506 m 0
 241.544921875 491.036132812 269.948242188 454.100585938 300 422 c 0
 333 407 l 1025
201 587 m 0
 209.981445312 587 220.447265625 587 231 587 c 0
 256.572265625 587 285.309570312 590.998046875 312 593 c 0
 501 623 l 1025
EndSplineSet
Validated: 35
EndChar

StartChar: uni56E0
Encoding: 22240 22240 170
Width: 781
VWidth: 0
Flags: HW
LayerCount: 2
Fore
SplineSet
184 114 m 1
 176 114 l 0
 249.001953125 114 326.237304688 129.989257812 401 138 c 0
 587 168 l 1025
389 369 m 0
 431.977539062 356.874023438 437.462890625 279.059570312 491 288 c 1024
356 594 m 1
 356 576 l 0
 356 524.338867188 374 474.548828125 374 423 c 0
 374 343.942382812 343.00390625 292.850585938 326 222 c 0
 290 180 l 1025
236 447 m 0
 240.533203125 447 248.133789062 447 254 447 c 0
 324.21484375 445.859375 393.678710938 453.293945312 464 465 c 0
 477.756835938 469.157226562 496.869140625 462.997070312 509 474 c 1024
158 681 m 0
 173.096679688 681 193.211914062 681 209 681 c 0
 326.403320312 681 453.70703125 726 563 726 c 0
 575.954101562 726 587 590.15234375 587 585 c 0
 587 375 l 0
 591.290039062 278.619140625 602.11328125 182.676757812 614 87 c 0
 616.91796875 63.5126953125 599.696289062 48.013671875 590 69 c 0
 530 117 l 1025
137 687 m 0
 158.146484375 599.358398438 148.1953125 508.130859375 167 420 c 0
 161 150 l 0
 158 77 l 1025
EndSplineSet
Validated: 35
EndChar

StartChar: uni4E3A
Encoding: 20026 20026 171
Width: 799
VWidth: 0
Flags: HW
LayerCount: 2
Fore
SplineSet
417 402 m 1
 501 306 l 1025
165 474 m 1
 598 495 l 0
 604.702148438 495.874023438 611.5859375 498 622 498 c 0
 659.18359375 510.141601562 649.47265625 481.889648438 649 459 c 0
 637.452148438 356.3203125 613.131835938 252.967773438 553 168 c 0
 542.520507812 153.19140625 523.415039062 93 502 93 c 0
 487.629882812 93 503.592773438 91.5859375 490 99 c 0
 433 147 l 1025
383 693 m 0
 397.2890625 650.606445312 381.106445312 604.083007812 381 558 c 0
 381 440.068359375 257.665039062 289.004882812 210 193 c 0
 147 136 l 1025
183 627 m 0
 201.7265625 621.219726562 208.063476562 598.899414062 225 588 c 0
 249 546 l 1025
EndSplineSet
Validated: 35
EndChar

StartChar: uni6709
Encoding: 26377 26377 172
Width: 763
VWidth: 0
Flags: HW
LayerCount: 2
Fore
SplineSet
247 239 m 5
 532 239 l 1029
277 383 m 5
 496 383 l 1029
301 512 m 4
 379.107421875 521.09765625 416.33984375 514.924804688 504 521 c 4
 556.880859375 524.665039062 531 429.583007812 531 392 c 4
 531 287.477539062 546 183.3046875 546 80 c 4
 546 30.900390625 519.05078125 78.0546875 489 77 c 4
 405 131 l 1029
295 500 m 4
 293.611328125 495 295.34765625 490 295 485 c 4
 295 365.350585938 253.58984375 267.74609375 232 155 c 4
 208 116 l 1029
360 749 m 4
 338.967773438 642.090820312 277.64453125 531.840820312 207 446 c 4
 84 341 l 1029
90 611 m 4
 255.3046875 646.107421875 424.290039062 633.013671875 594 635 c 4
 615.850585938 635.28515625 637.559570312 638.139648438 660 641 c 1028
EndSplineSet
Validated: 35
EndChar

StartChar: uni670B
Encoding: 26379 26379 173
Width: 883
VWidth: 0
Flags: HW
LayerCount: 2
Fore
SplineSet
495 296 m 1
 720 296 l 1025
486 482 m 0
 517.913085938 482 525.149414062 482 558 482 c 0
 592.735351562 493.623046875 661.120117188 470.0625 696 488 c 1024
489 671 m 1
 702 669 l 0
 725.005859375 476.642578125 756 257.715820312 756 65 c 0
 756 53.783203125 753.515625 53 744 53 c 0
 715.333984375 53 691.393554688 85.7080078125 672 98 c 0
 648 104 l 1025
474 671 m 0
 496.041992188 553.250976562 500.48828125 431.248046875 498 311 c 0
 508.1640625 221.657226562 476.362304688 130.395507812 444 53 c 1024
155 311 m 1
 164 311 l 0
 191 311 l 0
 317 317 l 0
 335 320 l 1025
152 485 m 1
 320 485 l 1025
143 656 m 1
 158 656 l 0
 215.716796875 657.631835938 252.000976562 675.3125 312 671 c 0
 385.083007812 665.747070312 357 553.033203125 357 470 c 0
 352.676757812 365.268554688 363.408203125 261.452148438 378 158 c 0
 380.637695312 139.297851562 381 120.098632812 381 101 c 0
 381 89.1806640625 367.422851562 96.767578125 360 95 c 0
 294 122 l 1025
161 659 m 0
 159.909179688 640 160.43359375 621 161 602 c 0
 166.123046875 522.630859375 153.346679688 445.900390625 143 368 c 0
 134.640625 305.061523438 120.60546875 237.924804688 107 179 c 0
 77 113 l 1025
EndSplineSet
Validated: 35
EndChar

StartChar: uni53CB
Encoding: 21451 21451 174
Width: 754
VWidth: 0
Flags: HW
LayerCount: 2
Fore
SplineSet
250 423 m 0
 373 294 471.094726562 207.922851562 604 144 c 0
 649 126 l 1025
238 477 m 0
 251 477 264 477 277 477 c 0
 316.244140625 477 547 468.475585938 547 504 c 0
 547 290.0234375 391 186 259 99 c 0
 223 90 l 1025
165 620 m 0
 207 620 210 617 252 617 c 0
 350.118164062 617 443.1015625 626.935546875 540 632 c 0
 639 647 l 1025
333 752 m 1
 333 737 l 0
 333 606.673828125 213 471 166 372 c 0
 115 285 l 0
 91 252 l 1025
EndSplineSet
Validated: 35
EndChar

StartChar: uni5728
Encoding: 22312 22312 175
Width: 731
VWidth: 0
Flags: HW
LayerCount: 2
Fore
SplineSet
424 515 m 0
 424 496 424 477 424 458 c 0
 424 367.521484375 433.962890625 278.329101562 439 188 c 0
 433 158 l 1025
217 146 m 1
 628 152 l 1025
298 404 m 0
 317 404 336 404 355 404 c 0
 398.66796875 404 440.547851562 407.962890625 484 410 c 0
 559 419 l 1025
164 453 m 0
 164 432 164 411 164 390 c 0
 164 361.634765625 167.83203125 339.8203125 170 312 c 0
 173 111 l 1025
198 573 m 0
 271.420898438 585.729492188 421.28125 568.624023438 490 601 c 0
 523 607 l 1025
336 681 m 0
 322.548828125 553.625 223.578125 405.981445312 109 337 c 0
 76 322 l 1025
EndSplineSet
Validated: 3
EndChar

StartChar: uni54E6
Encoding: 21734 21734 176
Width: 853
VWidth: 0
Flags: HW
LayerCount: 2
Fore
SplineSet
118 318 m 1
 250 327 l 1025
88 513 m 0
 99.6787109375 513 113.90625 513 127 513 c 0
 166.407226562 513 207.295898438 525 247 525 c 0
 252.969726562 525 250 489 250 489 c 0
 250 396 l 0
 244 333 l 1025
82 522 m 0
 80.1494140625 511.729492188 92.90625 503.916992188 88 492 c 0
 118 306 l 1025
575 578 m 1
 653 530 l 1025
668 398 m 0
 625.056640625 364.206054688 592.805664062 311.564453125 542 293 c 0
 500 287 l 1025
503 599 m 0
 574.452148438 469.379882812 586.4609375 270.254882812 719 188 c 0
 728.426757812 227.62890625 755.4375 267.958984375 752 311 c 1024
310 425 m 0
 315.740234375 425 323.809570312 425 331 425 c 0
 410.040039062 425 475.1171875 447.243164062 554 458 c 0
 689 488 l 1025
400 533 m 1
 400 521 l 0
 400 455.522460938 415 391.68359375 415 326 c 0
 415 185 l 0
 415 185 419.205078125 169.981445312 421 164 c 0
 415 161 l 1025
457 337 m 0
 419.42578125 323.501953125 384.467773438 307.166015625 346 301 c 0
 259 274 l 1025
454 560 m 1
 355 530 l 0
 337 527 l 1025
EndSplineSet
Validated: 35
EndChar

StartChar: uni771F
Encoding: 30495 30495 177
Width: 853
VWidth: 0
Flags: HW
LayerCount: 2
Fore
SplineSet
461 172 m 0
 497.291992188 168.84765625 528.03125 120.123046875 560 100 c 0
 584 85 l 1025
311 169 m 0
 288.188476562 149.319335938 278.583984375 121.947265625 260 100 c 0
 236 76 l 1025
74 205 m 0
 232.34375 223.927734375 401.689453125 194.186523438 563 226 c 0
 767 232 l 1025
274 283 m 1
 286 283 l 0
 286.005859375 283 315.993164062 285.999023438 316 286 c 0
 511 307 l 1025
274 367 m 1
 283 367 l 0
 445 382 l 0
 493 385 l 1025
277 442 m 0
 338.065429688 463.73046875 410.185546875 452.994140625 475 469 c 1024
229 505 m 0
 232.958007812 505 237.958007812 505 244 505 c 0
 335.786132812 505 402.291992188 518 499 518 c 0
 618.818359375 518 504.268554688 415.559570312 508 326 c 0
 481 239 l 1025
250 505 m 0
 284.732421875 409.766601562 284.59765625 303.233398438 289 202 c 1024
277 604 m 1
 502 604 l 1025
400 724 m 0
 398.533203125 718 400.133789062 712 400 706 c 0
 400 641 l 0
 385 526 l 1025
EndSplineSet
Validated: 35
EndChar

StartChar: uni7684
Encoding: 30340 30340 178
Width: 742
VWidth: 0
Flags: HW
LayerCount: 2
Fore
SplineSet
432 439 m 0
 462.745117188 430.682617188 494.938476562 407.272460938 522 388 c 1024
387 568 m 0
 456.97265625 561.836914062 511.520507812 593.436523438 573 598 c 0
 611.85546875 598 597 574.27734375 597 529 c 0
 602.75390625 409.35546875 592.022460938 290.59375 582 172 c 0
 579.77734375 145.702148438 590.760742188 127 561 127 c 0
 543 127 l 0
 480 169 l 1025
435 694 m 1
 435 685 l 0
 435 634.65234375 394.426757812 569.3984375 378 523 c 0
 360 493 l 1025
131 163 m 1
 158 163 l 0
 314 172 l 1025
131 373 m 1
 281 379 l 1025
103 531 m 0
 118.290039062 531 137.79296875 531 154 531 c 0
 183.620117188 531 317 566.548828125 317 568 c 0
 317 453.048828125 318.853515625 305.455078125 311 187 c 0
 302 121 l 1025
115 561 m 1
 115 552 l 0
 115 460.185546875 137 379.396484375 137 286 c 0
 137 187 l 0
 125 157 l 1025
278 670 m 0
 254.75390625 653.974609375 249.068359375 621.625976562 227 604 c 0
 203 550 l 1025
EndSplineSet
Validated: 35
EndChar

StartChar: uni4EEC
Encoding: 20204 20204 179
Width: 745
VWidth: 0
Flags: HW
LayerCount: 2
Fore
SplineSet
410 605 m 0
 413.78515625 605 419.65234375 605 425 605 c 0
 473.709960938 605 518.631835938 626 569 626 c 0
 590 626 l 0
 602.9375 626 600.327148438 632 611 632 c 0
 637.030273438 618.646484375 609.172851562 548.353515625 620 518 c 0
 659.387695312 407.575195312 632 215.5 632 93 c 0
 632 85.1640625 631.01171875 87 626 87 c 0
 591.412109375 87 566.2421875 111.596679688 539 123 c 0
 536 132 l 1025
328 640 m 1
 373 553 l 1025
310 561 m 1
 310 546 l 0
 314.124023438 431.686523438 303.327148438 318.051757812 304 204 c 0
 303.228515625 193.001953125 305.127929688 152.044921875 298 180 c 1024
181 580 m 0
 174.153320312 578.049804688 179.270507812 571.686523438 178 568 c 0
 177.4375 461.908203125 174.526367188 355.62890625 184 250 c 0
 186.731445312 201.499023438 176.989257812 160.19921875 187 113 c 1024
273 732 m 1
 273 723 l 0
 273 672.109375 170.234375 577.01171875 144 540 c 0
 99 507 l 1025
EndSplineSet
Validated: 35
EndChar

StartChar: uni591A
Encoding: 22810 22810 180
Width: 550
VWidth: 0
Flags: HW
LayerCount: 2
Fore
SplineSet
161 286 m 0
 187.486328125 270.900390625 211.81640625 236.002929688 235 218 c 1024
269 397 m 0
 279.09375 397 294.064453125 397 305 397 c 0
 326.690429688 397 428 400 428 400 c 0
 428 262.267578125 154.793945312 166.309570312 75 101 c 0
 60 98 l 1025
329 439 m 0
 287.0859375 384.666992188 228.37109375 350.706054688 170 319 c 0
 113 301 l 1025
166 531 m 0
 190.16015625 521.35546875 205.856445312 497.220703125 226 480 c 0
 235 462 l 1025
250 666 m 0
 258.459960938 666 270.3359375 666 280 666 c 0
 321.1015625 666 361.458984375 675 403 675 c 0
 422.3984375 678.176757812 395.830078125 646.245117188 391 639 c 0
 289 486 203.962890625 467.1640625 136 408 c 0
 121 399 l 1025
301 711 m 1
 235 651 l 0
 124 561 l 0
 106 552 l 1025
EndSplineSet
Validated: 35
EndChar

StartChar: uni4E45
Encoding: 20037 20037 181
Width: 721
VWidth: 0
Flags: HW
LayerCount: 2
Fore
SplineSet
334 345 m 0
 414.758789062 273.73046875 502.157226562 131.373046875 594 70 c 0
 651 49 l 1025
236 605 m 0
 249.479492188 613.708007812 272.186523438 605.282226562 290 608 c 0
 356.734375 608 359.6796875 616 421 616 c 0
 426.94140625 616 430 618.8828125 430 610 c 0
 430 435.602539062 214.2421875 232.569335938 124 87 c 0
 88 57 l 1025
266 722 m 0
 260.159179688 645.288085938 210.140625 572.962890625 180 503 c 0
 159 464 l 1025
EndSplineSet
Validated: 35
EndChar

StartChar: uni4EE5
Encoding: 20197 20197 182
Width: 691
VWidth: 0
Flags: HW
LayerCount: 2
Fore
SplineSet
430 332 m 1
 430 326 l 0
 479.57421875 267.40234375 523 221 616 182 c 1024
463 596 m 0
 457.154296875 573.931640625 477.211914062 555.69140625 469 533 c 0
 469 329.798828125 358 243 241 150 c 0
 217 138 l 1025
258 567 m 1
 264 567 l 0
 282.46484375 567 302.225585938 531.263671875 315 519 c 0
 348 459 l 1025
131 516 m 1
 134 438 l 0
 137.895507812 419.821289062 146 420.0703125 146 401 c 0
 136 356 l 0
 136 338.665039062 141.63671875 327.44140625 145 311 c 0
 141 197 l 0
 189 275 l 0
 213 308 l 0
 277 389 l 1025
EndSplineSet
Validated: 35
EndChar

StartChar: uni524D
Encoding: 21069 21069 183
Width: 814
VWidth: 0
Flags: HW
LayerCount: 2
Fore
SplineSet
581 529 m 0
 578.953125 490 581.255859375 451 581 412 c 0
 581 397.2265625 582.35546875 79 566 79 c 0
 522.920898438 103.06640625 504.24609375 128.333007812 480 171 c 1024
465 457 m 1
 468 316 l 1025
198 284 m 1
 342 284 l 1025
210 386 m 0
 227.615234375 386 248.4296875 386 267 386 c 0
 290.298828125 386 306.438476562 391.580078125 330 395 c 0
 357 398 l 1025
183 209 m 0
 199.026367188 265.092773438 196.50390625 329.458984375 198 389 c 0
 198 418.913085938 195 448.974609375 195 479 c 0
 208.208984375 508.083007812 288.295898438 473.831054688 318 488 c 0
 324.357421875 491.032226562 321.470703125 494 334 494 c 0
 390.416992188 514.2734375 357.208984375 437.631835938 364 404 c 0
 370.705078125 370.794921875 371.060546875 86 355 86 c 0
 337.622070312 82.3857421875 325.412109375 99.017578125 313 104 c 0
 299.670898438 109.341796875 287.080078125 120.153320312 280 128 c 1024
596 697 m 1
 518 604 l 1025
254 700 m 0
 269.342773438 699.588867188 284.125 686.086914062 299 679 c 0
 338 643 l 1025
104 558 m 1
 698 568 l 1025
EndSplineSet
Validated: 35
EndChar

StartChar: uni8BA4
Encoding: 35748 35748 184
Width: 913
VWidth: 0
Flags: HW
LayerCount: 2
Fore
SplineSet
517 390 m 0
 581.817382812 268.23828125 631.181640625 120.547851562 784 84 c 0
 820 75 l 1025
544 674 m 1
 544 647 l 0
 544 433.814453125 445.786132812 297.247070312 379 126 c 0
 349 96 l 1025
185 705 m 0
 217.638671875 701.157226562 241.075195312 666.205078125 266 645 c 0
 278 642 l 1025
108 462 m 0
 127.102539062 464.858398438 148.23046875 480.19140625 171 480 c 0
 241 516 l 0
 233 249 l 0
 230 144 l 0
 240.458007812 144 265.805664062 165.357421875 275 171 c 0
 302 201 l 1025
EndSplineSet
Validated: 35
EndChar

StartChar: uni8BC6
Encoding: 35782 35782 185
Width: 883
VWidth: 0
Flags: HW
LayerCount: 2
Fore
SplineSet
601 319 m 0
 639.842773438 290.5 663.881835938 212.67578125 706 175 c 0
 742 145 l 1025
455 302 m 0
 419.491210938 243.65625 401.375 169.475585938 344 128 c 1024
449 387 m 1
 489 393 l 0
 694 423 l 1025
387 594 m 0
 431.5234375 594 518.696289062 604 565 604 c 0
 695 614 l 0
 661 383 l 1025
390 597 m 0
 402.772460938 542.721679688 409.10546875 485.94921875 426 432 c 0
 435 354 l 1025
216 677 m 0
 230.702148438 657.717773438 258.216796875 649.9453125 270 626 c 0
 297 591 l 1025
85 438 m 0
 127.28515625 442.180664062 201.444335938 501.875976562 226 501 c 0
 220.010742188 363.672851562 185.77734375 307.325195312 183 170 c 0
 182.864257812 163.287109375 177.31640625 137 189 137 c 0
 233.8515625 153.893554688 253.5703125 202.404296875 294 227 c 1024
EndSplineSet
Validated: 35
EndChar

StartChar: uni5927
Encoding: 22823 22823 186
Width: 847
VWidth: 0
Flags: HW
LayerCount: 2
Fore
SplineSet
370 360 m 0
 455.611328125 249.618164062 572.111328125 149.370117188 706 96 c 0
 766 72 l 1025
448 687 m 0
 446.458007812 678 448.559570312 669 448 660 c 0
 453.575195312 587.127929688 424.999023438 519.224609375 409 450 c 0
 370.618164062 283.92578125 277.90234375 231.21875 190 117 c 0
 151 102 l 1025
169 455 m 0
 174.298828125 455 183.680664062 455 190 455 c 0
 697 491 l 1025
EndSplineSet
Validated: 35
EndChar

StartChar: uni5B66
Encoding: 23398 23398 187
Width: 657
VWidth: 0
Flags: HW
LayerCount: 2
Fore
SplineSet
89 246 m 0
 229.12890625 289.68359375 378.235351562 280.021484375 524 291 c 1024
299 363 m 1
 299 351 l 0
 308.04296875 260.034179688 322.232421875 180.443359375 324 88 c 0
 324.8046875 45.8974609375 326.159179688 -20.68359375 285 54 c 0
 257 91 l 1025
170 438 m 0
 173.665039062 437.140625 178.484375 440.58984375 182 444 c 0
 242 444 l 0
 265.0390625 444 292.43359375 448.0078125 317 450 c 0
 444 471 l 0
 432.931640625 465.19921875 424.223632812 459.000976562 414 453 c 0
 308 366 l 1025
51 550 m 1
 354 556 l 0
 423.885742188 558.931640625 490.10546875 575.807617188 561 580 c 0
 569.178710938 580.483398438 600 584.965820312 600 577 c 0
 600 575.079101562 592.159179688 555.963867188 591 553 c 0
 534 487 l 1025
30 553 m 0
 54.5361328125 540.461914062 80.482421875 515.016601562 93 490 c 0
 99 475 l 1025
465 682 m 0
 452.00390625 667.359375 446.57421875 649.041015625 444 631 c 0
 417 571 l 1025
246 655 m 0
 251.997070312 649.708007812 251.84765625 638.342773438 261 634 c 0
 288 589 l 1025
132 643 m 1
 159 568 l 1025
EndSplineSet
Validated: 35
EndChar

StartChar: uni5DF2
Encoding: 24050 24050 188
Width: 799
VWidth: 0
Flags: HW
LayerCount: 2
Fore
SplineSet
148 574 m 1
 151 484 l 0
 162.665039062 404.120117188 141.193359375 329.564453125 166 254 c 0
 176.552734375 98.6103515625 459.231445312 180.271484375 570 162 c 0
 590.649414062 158.59375 672.71484375 160.838867188 651 207 c 0
 672 312 l 1025
153 472 m 1
 459 508 l 1025
202 655 m 1
 452 695 l 0
 452 665 l 0
 424 517 l 1025
EndSplineSet
Validated: 35
EndChar

StartChar: uni7ECF
Encoding: 32463 32463 189
Width: 799
VWidth: 0
Flags: HW
LayerCount: 2
Fore
SplineSet
310 103 m 0
 315 103.92578125 320 102.768554688 325 103 c 0
 472.084960938 104.841796875 546.809570312 115.33984375 693 122 c 1024
497 307 m 1
 490 113 l 1025
385 307 m 1
 602 320 l 1025
517 481 m 0
 526.368164062 464.482421875 556.037109375 428.9453125 573 414 c 0
 624 359 l 1025
405 555 m 1
 417 555 l 0
 480.466796875 555 508.143554688 575 570 575 c 0
 576 575 l 0
 575.82421875 575 465.934570312 434.732421875 459 422 c 0
 393 357 l 1025
87 105 m 1
 144 132 241 189 298 216 c 0
 301.6171875 217.713867188 306 216.740234375 310 216 c 1024
311 528 m 0
 255 448 199.8984375 343.34765625 139 252 c 0
 138.998046875 251.997070312 207.99609375 267.997070312 208 268 c 0
 295 298 l 1025
235 618 m 1
 235 609 l 0
 222.155273438 554.891601562 171.771484375 512.3203125 157 457 c 0
 138.497070312 387.701171875 176.709960938 415.79296875 250 414 c 1024
EndSplineSet
Validated: 35
EndChar

StartChar: uni5341
Encoding: 21313 21313 190
Width: 841
VWidth: 0
Flags: HW
LayerCount: 2
Fore
SplineSet
131 393 m 1
 573 432 l 0
 606 438 l 0
 714 441 l 1025
417 610 m 1
 407 64 l 1025
EndSplineSet
Validated: 3
EndChar

StartChar: uni4E86
Encoding: 20102 20102 191
Width: 634
VWidth: 0
Flags: HW
LayerCount: 2
Fore
SplineSet
334 479 m 1
 334 470 l 0
 334 449.118164062 328 428.5703125 328 407 c 0
 324.838867188 307.057617188 356.412109375 211.401367188 367 113 c 0
 369.262695312 91.970703125 373 76.9052734375 373 56 c 0
 373 48.5732421875 372.232421875 47 364 47 c 0
 340.858398438 47 293.755859375 91.34765625 274 104 c 0
 232 125 l 1025
112 545 m 0
 129 545 146 545 163 545 c 0
 293.928710938 545 419.591796875 593 550 593 c 0
 498.663085938 546.362304688 400.927734375 504.3984375 346 443 c 1024
EndSplineSet
Validated: 35
EndChar

StartChar: uni54C7
Encoding: 21703 21703 192
Width: 865
VWidth: 0
Flags: HW
LayerCount: 2
Fore
SplineSet
534 385 m 0
 548.444335938 280.29296875 538.942382812 248.853515625 547 147 c 1024
334 138 m 0
 339.412109375 138 348 138 355 138 c 0
 410.533203125 138 345.587890625 136.684570312 451 150 c 0
 765 162 l 1025
414 266 m 0
 435.112304688 271.8984375 465.16015625 271.626953125 489 278 c 0
 601 301 l 1025
522 586 m 1
 522 577 l 0
 522 544 l 0
 531 388 l 1025
322 360 m 1
 750 403 l 1025
422 466 m 1
 621 496 l 1025
100 464 m 0
 112.614257812 464 128.461914062 464 142 464 c 0
 162.080078125 464 280 464 280 464 c 0
 280 440.999023438 269.584960938 411.620117188 265 389 c 0
 262 318 l 1
 191.205078125 316.573242188 176.145507812 301.30859375 109 290 c 1024
85 464 m 0
 101.822265625 417.036132812 106.395507812 366.561523438 112 317 c 0
 124 269 l 1025
EndSplineSet
Validated: 35
EndChar

StartChar: uni65F6
Encoding: 26102 26102 193
Width: 763
VWidth: 0
Flags: HW
LayerCount: 2
Fore
SplineSet
367 412 m 0
 381.685546875 414.540039062 399.075195312 394.619140625 412 394 c 0
 487 337 l 1025
541 649 m 1
 541 631 l 0
 541 446.3203125 571 262.090820312 571 76 c 0
 571 27.03515625 559.346679688 52.470703125 556 46 c 0
 486 117 l 1025
341 511 m 1
 356 511 l 0
 437.1015625 511 581.76171875 540.965820312 665 546 c 1024
103 373 m 1
 115 373 l 0
 160.015625 373 224.40234375 386.934570312 272 384 c 1024
127 166 m 1
 289 166 l 1025
97 568 m 0
 106.581054688 568 119.223632812 568 130 568 c 0
 182.202148438 568 230.7578125 580 283 580 c 0
 320.905273438 580 298.561523438 209.755859375 301 131 c 1024
112 580 m 0
 110.569335938 530 111.994140625 480 112 430 c 0
 112 313 l 0
 118 211 l 0
 124 169 l 1025
EndSplineSet
Validated: 35
EndChar

StartChar: uni95F4
Encoding: 38388 38388 194
Width: 754
VWidth: 0
Flags: HW
LayerCount: 2
Fore
SplineSet
257 322 m 1
 474 332 l 1025
281 178 m 1
 474 194 l 1025
263 472 m 1
 488 493 l 0
 481 152 l 1025
266 490 m 0
 281.01953125 420.483398438 271.198242188 313.038085938 275 241 c 0
 281 145 l 1025
330 606 m 1
 624 612 l 0
 643.014648438 612 642 371.170898438 642 357 c 0
 642 265.654296875 648 194.567382812 648 104 c 0
 648 -18.708984375 614.80078125 89.849609375 557 82 c 1024
141 648 m 0
 158.057617188 636.705078125 175.991210938 622.709960938 186 603 c 0
 201 570 l 1025
105 564 m 1
 105 552 l 0
 105 516.9609375 117.251953125 476.127929688 123 441 c 0
 126 93 l 1025
EndSplineSet
Validated: 35
EndChar

StartChar: uni8FC7
Encoding: 36807 36807 195
Width: 886
VWidth: 0
Flags: HW
LayerCount: 2
Fore
SplineSet
214 599 m 0
 210.77734375 605.333007812 219.111328125 601 223 602 c 0
 241.90234375 602 253.913085938 577.525390625 268 566 c 0
 288 535 l 1025
76 93 m 1
 148 129 l 0
 205 150 l 0
 253 160 l 0
 393.442382812 107.333984375 455.494140625 63 616 63 c 0
 672.096679688 63 697.877929688 90.16015625 751 108 c 0
 796 138 l 1025
108 421 m 0
 111.77734375 421 114.888671875 421 120 421 c 0
 159.290039062 408.353515625 300.5 489.814453125 249 424 c 0
 230.665039062 400.569335938 219 373.75390625 219 343 c 0
 219 274.58984375 231.631835938 229.9140625 247 163 c 1024
405 415 m 0
 445.3203125 393.040039062 454.966796875 372.905273438 487 339 c 1024
564 645 m 1
 564 630 l 0
 590.6484375 502.286132812 588.887695312 395.388671875 596 264 c 0
 599.479492188 199.719726562 579.6875 108.223632812 534 183 c 0
 520 210 l 1025
385 465 m 1
 735 504 l 1025
EndSplineSet
Validated: 35
EndChar

StartChar: uni5F97
Encoding: 24471 24471 196
Width: 808
VWidth: 0
Flags: HW
LayerCount: 2
Fore
SplineSet
391 283 m 0
 384.499023438 261.213867188 433.885742188 267.427734375 445 250 c 0
 469 232 l 1025
301 286 m 0
 425.415039062 302.797851562 553.369140625 328.065429688 679 343 c 0
 715 346 l 1025
508 397 m 1
 508 385 l 0
 511.541992188 269.529296875 558 169 546 81 c 0
 539.200195312 31.134765625 465.557617188 134.250976562 441 154 c 1024
391 385 m 0
 422.833984375 393.454101562 463.795898438 385.130859375 496 403 c 0
 581 429 l 1025
387 532 m 1
 594 549 l 1025
392 458 m 0
 395.111328125 458 399.111328125 458 404 458 c 0
 436.375 458 466.361328125 465.750976562 500 470 c 0
 608 494 l 1025
360 609 m 0
 363.78515625 609 369.65234375 609 375 609 c 0
 411.228515625 609 630 634.623046875 630 615 c 0
 630 588 l 0
 600 493 l 1025
351 600 m 0
 384.525390625 547.803710938 370.755859375 530.283203125 386 473 c 1024
200 389 m 1
 208 92 l 1025
272 527 m 1
 272 521 l 0
 227 434 164.396484375 360.424804688 125 302 c 0
 79 260 l 1025
286 621 m 1
 199 522 l 0
 178 507 l 1025
EndSplineSet
Validated: 35
EndChar

StartChar: uni5FEB
Encoding: 24555 24555 197
Width: 835
VWidth: 0
Flags: HW
LayerCount: 2
Fore
SplineSet
436 336 m 0
 513.177734375 248.139648438 582.76953125 133.603515625 690 76 c 0
 729 67 l 1025
286 330 m 0
 290.65234375 330 294.78515625 330 301 330 c 0
 329.728515625 330 361.086914062 331.991210938 391 333 c 0
 716 363 l 1025
346 447 m 1
 352 447 l 0
 365.379882812 447 381.342773438 453 397 453 c 0
 484 453 l 0
 515.048828125 453 537.166992188 468 568 468 c 0
 567.697265625 468 552.82421875 432.977539062 550 426 c 0
 529 342 l 1025
451 612 m 0
 448.471679688 585.903320312 454.794921875 559.130859375 445 534 c 0
 445 374.743164062 406 234 350 104 c 0
 314 50 l 1025
199 471 m 1
 211 465 l 0
 271 387 l 1025
205 588 m 1
 199 183 l 0
 193 66 l 1025
148 411 m 1
 109 321 l 1025
EndSplineSet
Validated: 35
EndChar

StartChar: uni554A
Encoding: 21834 21834 198
Width: 829
VWidth: 0
Flags: HW
LayerCount: 2
Fore
SplineSet
570 510 m 0
 567.977539062 494 571.966796875 478 570 462 c 0
 570 304.107421875 564.858398438 513.096679688 585 309 c 0
 582 27 l 0
 530 87 l 1025
396 508 m 0
 400.305664062 508 405.305664062 508 411 508 c 0
 494.927734375 508 520.655273438 511.944335938 606 519 c 0
 744 543 l 1025
391 243 m 1
 512 240 l 1025
358 348 m 0
 360.25 348 363.25 348 367 348 c 0
 421.083007812 348 457.8359375 368.091796875 512 378 c 0
 515 237 l 1025
364 348 m 0
 362.611328125 343 364.34765625 338 364 333 c 0
 391 225 l 1025
238 624 m 0
 247.282226562 624 257.0546875 624 268 624 c 0
 316.775390625 624 364.713867188 654 412 654 c 0
 408.928710938 654 378.201171875 599.623046875 373 591 c 0
 346.592773438 558.290039062 317.735351562 516.401367188 349 477 c 0
 357.638671875 466.11328125 370 428.42578125 370 414 c 0
 370 414 352.094726562 414 352 414 c 0
 340 414 l 0
 265 456 l 1025
256 636 m 0
 254.424804688 628 256.390625 620 256 612 c 0
 256 527.966796875 276.12890625 440.57421875 286 357 c 0
 289 66 l 1025
67 349 m 0
 106.71875 367.72265625 148.197265625 374.845703125 200 377 c 1024
49 520 m 0
 54.25 520 60.25 520 67 520 c 0
 119.038085938 520 148.8828125 542 203 542 c 0
 211.462890625 542 209 531.466796875 209 524 c 0
 209 497.1328125 194.369140625 465.174804688 188 440 c 0
 179 371 l 1025
55 520 m 1
 55 508 l 0
 55 463 l 0
 64 334 l 1025
EndSplineSet
Validated: 35
EndChar

StartChar: uni5C0F
Encoding: 23567 23567 199
Width: 655
VWidth: 0
Flags: HW
LayerCount: 2
Fore
SplineSet
435 363 m 0
 445.557617188 347.307617188 466.060546875 345.744140625 477 330 c 0
 498 309 l 1025
222 375 m 0
 211.232421875 365.776367188 196.250976562 361.28125 183 354 c 0
 114 285 l 1025
324 546 m 1
 324 534 l 0
 324 415.616210938 300 300.971679688 300 183 c 0
 300 105 l 0
 300 105.002929688 288 108 288 108 c 0
 237 168 l 1025
EndSplineSet
Validated: 3
EndChar

StartChar: uni79D1
Encoding: 31185 31185 200
Width: 787
VWidth: 0
Flags: HW
LayerCount: 2
Fore
SplineSet
441 537 m 0
 452.052734375 516.6484375 509.671875 514.408203125 525 483 c 1024
444 396 m 1
 471 390 l 0
 525 363 l 1025
414 258 m 0
 490.6953125 284.107421875 572.106445312 294.818359375 651 315 c 0
 708 321 l 1025
576 618 m 1
 576 60 l 1025
252 396 m 0
 284.313476562 393.932617188 319.323242188 358.768554688 339 330 c 0
 351 324 l 1025
243 420 m 0
 215.610351562 343.952148438 190.680664062 264.1484375 147 195 c 0
 108 156 l 1025
99 405 m 0
 103 405 107 405 111 405 c 0
 174.87890625 405 253.625 433.875 318 447 c 0
 405 450 l 1025
237 570 m 0
 237 566 237 562 237 558 c 0
 237 529.692382812 246.301757812 514.830078125 252 489 c 0
 246 69 l 1025
285 630 m 0
 255.930664062 600.99609375 227.733398438 571.01171875 195 546 c 0
 168 534 l 1025
EndSplineSet
Validated: 3
EndChar

StartChar: uni5BB6
Encoding: 23478 23478 201
Width: 754
VWidth: 0
Flags: HW
LayerCount: 2
Fore
SplineSet
412 349 m 1
 478 394 l 1025
337 361 m 0
 347.296875 361.565429688 356.86328125 365.915039062 370 364 c 0
 475.954101562 338 543.474609375 185.0703125 670 211 c 1024
355 316 m 1
 358 307 l 0
 358 234.560546875 262.793945312 211.514648438 226 175 c 0
 112 151 l 1025
319 373 m 0
 298.428710938 338.829101562 271.11328125 306.252929688 238 283 c 0
 202 274 l 1025
253 427 m 1
 259 427 l 0
 272.590820312 428.172851562 280.186523438 413.06640625 292 406 c 0
 386.727539062 349.333984375 379 178.291992188 379 85 c 0
 392.049804688 24.208984375 356.126953125 41.4423828125 337 88 c 1024
310 490 m 0
 286.3515625 473.8203125 257.1796875 417.112304688 220 403 c 0
 157 379 l 1025
183 496 m 0
 191.459960938 496 203.3359375 496 213 496 c 0
 245.125976562 496 318.525390625 497.975585938 352 499 c 0
 445 514 l 1025
292 674 m 0
 303.04296875 671.866210938 313.874023438 654.598632812 331 656 c 0
 364 629 l 1025
106 596 m 0
 134.33203125 596 166.256835938 596 196 596 c 0
 300.2578125 595.21484375 404.592773438 592.384765625 508 614 c 0
 512.220703125 614.8828125 562 623 562 623 c 0
 550 563 l 1025
109 647 m 1
 109 632 l 0
 109 590 l 0
 97 530 l 1025
EndSplineSet
Validated: 35
EndChar

StartChar: uni53EB
Encoding: 21483 21483 202
Width: 727
VWidth: 0
Flags: HW
LayerCount: 2
Fore
SplineSet
550 627 m 1
 562 63 l 0
 565 96 l 1025
397 552 m 1
 424 501 l 0
 424 459.674804688 409 418.211914062 409 378 c 0
 409 363.139648438 403.219726562 354.521484375 400 342 c 0
 628 396 l 1025
129 332 m 1
 138 332 l 0
 163.6015625 332 132.885742188 330.735351562 168 338 c 0
 307 353 l 1025
102 488 m 0
 155.672851562 514.69921875 240.78125 484.63671875 303 515 c 0
 305.048828125 515 306 510.79296875 306 509 c 0
 306 476.206054688 302.221679688 422.072265625 289 392 c 0
 280 341 l 1025
111 518 m 0
 109.729492188 503 110.737304688 488 111 473 c 0
 111 439.704101562 112.985351562 407.15234375 114 374 c 0
 123 329 l 1025
EndSplineSet
Validated: 35
EndChar

StartChar: uni674E
Encoding: 26446 26446 203
Width: 620
VWidth: 0
Flags: HW
LayerCount: 2
Fore
SplineSet
60 185 m 1
 556 228 l 1025
286 305 m 0
 308.495117188 242.657226562 315.809570312 133.232421875 313 53 c 0
 304.641601562 -37.076171875 260.149414062 89.6708984375 220 101 c 1024
217 371 m 1
 229 371 l 0
 252.958984375 371 382 398 382 398 c 0
 382 368.893554688 336.328125 317.8359375 322 293 c 0
 307 272 l 1025
278 601 m 0
 341.662109375 563.721679688 378.379882812 486.088867188 452 457 c 0
 524 427 l 1025
281 598 m 1
 275 598 l 0
 226.987304688 548.602539062 190.805664062 481.103515625 122 463 c 0
 115.880859375 461.389648438 83 439 83 439 c 0
 62 433 l 1025
143 580 m 0
 214.603515625 596.749023438 292.091796875 603.930664062 368 610 c 0
 395.904296875 615.896484375 426.537109375 619.625976562 455 625 c 1024
287 664 m 1
 287 433 l 1025
EndSplineSet
Validated: 35
EndChar

StartChar: uni96EA
Encoding: 38634 38634 204
Width: 655
VWidth: 0
Flags: HW
LayerCount: 2
Fore
SplineSet
139 69 m 0
 161.905273438 75.34375 192.1328125 68.890625 217 75 c 0
 490 81 l 1025
157 177 m 1
 163 177 l 0
 234.674804688 177 322.223632812 197.372070312 397 207 c 0
 445 210 l 1025
166 246 m 0
 240.985351562 273.379882812 326.724609375 262.862304688 403 291 c 0
 411.499023438 291 424.745117188 294 433 294 c 0
 457 294 l 0
 461.006835938 294 460.66015625 303 468 303 c 0
 472.581054688 303 471 276.052734375 471 276 c 0
 471 240.76953125 467.021484375 206.045898438 465 171 c 0
 450 93 l 1025
376 383 m 0
 392.28515625 376.010742188 406.072265625 363.047851562 424 356 c 0
 448 335 l 1025
370 451 m 1
 382 451 l 0
 396.395507812 451 431.541992188 427.51171875 445 421 c 0
 466 397 l 1025
172 365 m 0
 186.856445312 357.688476562 202.163085938 356.21875 217 345 c 0
 259 324 l 1025
178 435 m 0
 181.111328125 435 185.111328125 435 190 435 c 0
 256 405 l 1025
316 603 m 1
 319 312 l 1025
250 594 m 1
 391 618 l 1025
94 474 m 0
 220.443359375 505.03125 358.517578125 499.442382812 484 528 c 0
 534.419921875 539.474609375 588.762695312 533.762695312 529 468 c 0
 517 432 l 1025
97 523 m 1
 85 399 l 1025
EndSplineSet
Validated: 35
EndChar

StartChar: uni5979
Encoding: 22905 22905 205
Width: 1000
VWidth: 0
Flags: HW
LayerCount: 2
Fore
SplineSet
610 655 m 4
 608.78515625 650 609.65234375 645 610 640 c 4
 610 537.166015625 633.967773438 427.419921875 621 327 c 0
 612 243 l 1025
445 378 m 1
 460 381 l 0
 787 468 l 0
 763 297 l 0
 745 264 l 0
 710 320 l 1025
493 507 m 1
 499 432 l 0
 514 324 l 0
 520 181 l 0
 526.959960938 58.6318359375 670.981445312 99.9453125 757 94 c 0
 768.256835938 93.2216796875 841.21875 95.4365234375 835 121 c 0
 862 219 l 1025
355 447 m 1
 355 441 l 0
 355 303.545904194 310 228 211 147 c 0
 94 58 l 1025
106 379 m 0
 110.305664062 379 115.305664062 379 121 379 c 0
 164.65625 379 222.969549747 403.065888558 271 405 c 0
 361 420 l 1025
262 603 m 1
 262 585 l 0
 241.880859375 516.25390625 254.593077707 407.282190225 229 345 c 0
 222.741222563 329.768914027 199.063444537 295.472542316 207 281 c 0
 241 219 332.160865862 167.01958363 379 117 c 0
 415 99 l 1025
EndSplineSet
Validated: 35
EndChar

StartChar: uni9057
Encoding: 36951 36951 206
Width: 835
VWidth: 0
Flags: HW
LayerCount: 2
Fore
SplineSet
112 600 m 0
 140.534179688 576.14453125 176.586914062 546.892578125 208 519 c 1024
71 94 m 1
 71 103 l 0
 71 124.93359375 135.5625 141 157 141 c 0
 177.204101562 143.447265625 165.536132812 135.09375 187 132 c 0
 259.913085938 103.09375 313.454101562 89.5703125 394 75 c 0
 478.594726562 59.697265625 509.786132812 48 598 48 c 0
 652.541992188 48 689.952148438 67.4892578125 739 78 c 0
 769 96 l 1025
84 416 m 0
 87.2158203125 416 91.2158203125 416 96 416 c 0
 158.004882812 406.983398438 301.737304688 513.918945312 199 405 c 0
 178.998046875 383.794921875 166 361.373046875 166 333 c 0
 166 296.212890625 226 303.640625 226 258 c 0
 226 254.102539062 232 247.086914062 232 240 c 0
 232 231 l 0
 193 132 l 1025
460 226 m 0
 471.416992188 218.826171875 509.01953125 191.541992188 516 176 c 0
 576 149 l 1025
475 319 m 0
 473.96875 308 474.388671875 297 475 286 c 0
 475 201.205078125 429.18359375 193.978515625 400 136 c 0
 382 133 l 1025
409 352 m 1
 517 353 l 0
 527.442382812 355.936523438 536.427734375 362 550 362 c 0
 561.426757812 362 562 362.869140625 562 350 c 0
 562 320.418945312 556.030273438 291.953125 553 263 c 0
 541 230 l 1025
397 355 m 0
 396.69921875 348.61328125 394.217773438 341.022460938 403 337 c 0
 412 223 l 1025
325 388 m 0
 393.760742188 417.905273438 483.583984375 401.603515625 559 424 c 0
 658 427 l 1025
467 636 m 0
 480.169921875 643.65234375 454.499023438 597.241210938 469 593 c 0
 472 400 l 1025
403 446 m 0
 414.31640625 451.40625 429.623046875 446.015625 442 455 c 0
 589 464 l 1025
379 540 m 0
 382.78515625 540 388.65234375 540 394 540 c 0
 428.623046875 540 463.262695312 549.845703125 499 555 c 0
 571 549 l 0
 559 467 l 0
 550 455 l 1025
382 540 m 1
 382 531 l 0
 382.415039062 514.639648438 381.920898438 495.983398438 391 483 c 0
 394.931640625 468.619140625 393.134765625 469.315429688 406 461 c 1024
EndSplineSet
Validated: 35
EndChar

StartChar: uni4F20
Encoding: 20256 20256 207
Width: 736
VWidth: 0
Flags: HW
LayerCount: 2
Fore
SplineSet
280 399 m 0
 348.275390625 421.407226562 435.169921875 429.301757812 508 435 c 0
 637 462 l 1025
310 519 m 0
 313.611328125 519 320.34765625 519 325 519 c 0
 372.6171875 519 418.03125 536.749023438 466 546 c 0
 520 552 l 1025
396 173 m 1
 402 173 l 0
 469.34765625 129.188476562 490.978515625 90.146484375 567 56 c 1024
334 240 m 1
 349 240 l 0
 420.815429688 247.431640625 478 258 539 274 c 0
 583.59375 285.696289062 585.1796875 282.689453125 554 241 c 0
 487 144 l 0
 472 126 l 1025
433 642 m 1
 403 399 l 0
 399.795898438 374.788085938 394 354.174804688 394 330 c 0
 374 257 l 0
 368 221 l 1025
181 480 m 0
 179.581054688 469 181.223632812 458 181 447 c 0
 181 333.026367188 195.583984375 205.016601562 202 99 c 0
 199 66 l 1025
256 621 m 0
 232.6328125 561.689453125 198.922851562 506.565429688 160 456 c 0
 88 405 l 1025
EndSplineSet
Validated: 35
EndChar

StartChar: uni975E
Encoding: 38750 38750 208
Width: 787
VWidth: 0
Flags: HW
LayerCount: 2
Fore
SplineSet
477 240 m 0
 524.147460938 252.623046875 598.8359375 244.846679688 650 249 c 0
 707 254 l 1025
47 193 m 1
 53 199 l 0
 77 199 l 0
 103.965820312 199 123.305664062 202.993164062 151 210 c 0
 256 216 l 1025
466 363 m 1
 475 363 l 0
 487 363 l 0
 575 364 l 0
 605 373 l 1025
112 330 m 1
 118 330 l 0
 193 342 l 0
 262 351 l 1025
473 510 m 0
 480.288085938 510 491.329101562 510 500 510 c 0
 536.348632812 510 576.918945312 532.170898438 614 543 c 0
 656 549 l 1025
103 462 m 1
 202 477 l 0
 265 483 l 0
 268 486 l 1025
447 653 m 0
 451 546 457.55078125 463.67578125 472 366 c 0
 472 346.0234375 466.0703125 331.079101562 468 315 c 0
 471 39 l 1025
271 624 m 1
 262 201 l 0
 253 93 l 0
 253 84 l 0
 253 72 l 0
 247 42 l 1025
EndSplineSet
Validated: 35
EndChar

StartChar: uni5E38
Encoding: 24120 24120 209
Width: 670
VWidth: 0
Flags: HW
LayerCount: 2
Fore
SplineSet
319 381 m 1
 322 30 l 1025
169 309 m 1
 178 309 l 0
 291.243164062 309 412.420898438 339 526 339 c 0
 529.349609375 339 529 337 529 333 c 0
 529 314.934570312 486.317382812 141 478 141 c 0
 475.165039062 141 449.59375 163.681640625 448 165 c 0
 442 180 l 1025
169 318 m 1
 169 189 l 1025
235 375 m 1
 241 375 l 0
 255.602539062 375 267.837890625 380.671875 283 384 c 0
 421 390 l 1025
217 477 m 1
 226 477 l 0
 284.584960938 496.501953125 351.245117188 496.844726562 415 504 c 0
 444.825195312 507.34765625 435.951171875 446.932617188 424 429 c 0
 403 354 l 1025
202 498 m 0
 197.990234375 495.069335938 220.594726562 433.958007812 226 411 c 0
 229 384 l 1025
322 675 m 0
 320.723632812 664 321.583984375 653 322 642 c 0
 322 588 l 0
 328 579 l 1025
430 675 m 1
 430 669 l 0
 394 609 l 1025
190 651 m 0
 198.587890625 649.381835938 201.03515625 635.538085938 214 639 c 0
 253 606 l 1025
82 564 m 0
 96.498046875 564 114.051757812 564 130 564 c 0
 235.537109375 561.466796875 343.298828125 564.109375 448 582 c 0
 473.4765625 586.353515625 496.313476562 588 523 588 c 0
 529.387695312 600.634765625 543.553710938 599.831054688 559 600 c 0
 601.075195312 612.2578125 597.169921875 578.772460938 574 558 c 0
 568.404296875 544.7578125 554.873046875 535.49609375 553 522 c 1024
79 600 m 1
 76 528 l 0
 73 504 l 1025
EndSplineSet
Validated: 35
EndChar

StartChar: uni611F
Encoding: 24863 24863 210
Width: 763
VWidth: 0
Flags: HW
LayerCount: 2
Fore
SplineSet
601 183 m 0
 607.671875 169.806640625 630.411132812 174.084960938 637 159 c 0
 673 120 l 1025
361 222 m 0
 386.565429688 212.856445312 401.948242188 180.881835938 421 162 c 0
 436 135 l 1025
214 237 m 0
 211.196289062 243.01953125 219.529296875 238.686523438 223 240 c 0
 236.950195312 228.732421875 239.002929688 206.932617188 253 192 c 0
 334.962890625 104.560546875 425.626953125 57 559 57 c 0
 564.607421875 57 580 70.3388671875 580 75 c 0
 580 84 l 0
 533 147 l 1025
193 198 m 0
 195.849609375 166.140625 161.337890625 131.404296875 154 99 c 1024
502 597 m 1
 508 597 l 0
 510.553710938 597 513.485351562 595.447265625 535 588 c 0
 598 555 l 1025
562 430 m 1
 562 424 l 0
 562 376.986328125 481.245117188 306.869140625 457 269 c 0
 439 260 l 1025
392 651 m 1
 392 645 l 0
 397.5703125 592.127929688 424.756835938 548.456054688 448 501 c 0
 469.311523438 457.48828125 608.577148438 200 667 200 c 0
 680.354492188 220.713867188 674.73828125 250.11328125 694 269 c 1024
277 300 m 0
 302.140625 332.331054688 356.649414062 300.119140625 388 324 c 0
 418 327 l 1025
243 394 m 0
 288.09375 401.83984375 338.5 418.466796875 387 416 c 0
 411 416 l 0
 379 306 l 1025
246 388 m 1
 243 382 l 0
 243 369.0859375 257.092773438 373.03125 259 360 c 0
 277 303 l 1025
303 447 m 0
 309.565429688 452.130859375 322.154296875 447.259765625 330 456 c 0
 411 471 l 1025
70 171 m 0
 141.130859375 212.225585938 179.697265625 306.51953125 193 387 c 0
 193 515 l 1025
214 483 m 0
 342.916015625 509.73046875 406.181640625 516.227539062 536 538 c 1024
EndSplineSet
Validated: 35
EndChar

StartChar: uni5174
Encoding: 20852 20852 211
Width: 640
VWidth: 0
Flags: HW
LayerCount: 2
Fore
SplineSet
367 253 m 0
 400.469726562 231.962890625 423.508789062 195.642578125 454 169 c 0
 478 124 l 1025
244 265 m 0
 233.333007812 219.395507812 216.572265625 174.571289062 187 139 c 0
 166 127 l 1025
475 598 m 0
 461.693359375 570.415039062 456.83203125 539.811523438 439 514 c 0
 407.360351562 468.203125 374.375 422.826171875 343 379 c 0
 328 355 l 1025
235 559 m 1
 244 550 l 0
 304 442 l 1025
148 508 m 1
 211 412 l 1025
76 343 m 1
 559 362 l 1025
EndSplineSet
Validated: 3
EndChar

StartChar: uni8DA3
Encoding: 36259 36259 212
Width: 817
VWidth: 0
Flags: HW
LayerCount: 2
Fore
SplineSet
577 390 m 0
 616.392578125 368.2890625 674.125976562 327.705078125 712 291 c 0
 736 276 l 1025
565 504 m 0
 566.612304688 498.668945312 572.020507812 501.865234375 577 501 c 0
 623.197265625 501 670.100585938 534 712 534 c 0
 718.228515625 534 718 534.26171875 718 528 c 0
 718 427.3671875 648.749023438 352.515625 616 270 c 0
 571 240 l 1025
424 351 m 0
 426.25 351 429.25 351 433 351 c 0
 440.833007812 351 450.09765625 352.857421875 460 354 c 0
 493 369 l 1025
400 456 m 0
 418.237304688 464.740234375 444.094726562 468.252929688 466 474 c 0
 484 480 l 1025
517 585 m 1
 520 135 l 1025
352 237 m 0
 366.565429688 249.638671875 404.721679688 256.6171875 424 273 c 0
 564 324 l 1025
406 579 m 1
 415 423 l 0
 418 276 l 1025
373 570 m 0
 427.36328125 592.009765625 506.53515625 577.145507812 565 600 c 1024
112 273 m 0
 230.829101562 150.360351562 494.919921875 87.890625 657 75 c 0
 738 102 l 1025
113 303 m 0
 111.911132812 296 112.864257812 289 113 282 c 0
 113 232.424804688 77.6357421875 167.752929688 64 123 c 0
 40 96 l 1025
244 282 m 1
 334 291 l 1025
238 360 m 1
 234 226 l 0
 237 205 l 1025
52 330 m 1
 61 330 l 0
 157.889648438 360.755859375 264.57421875 366.009765625 364 390 c 1024
206 614 m 1
 206 599 l 0
 206 564.170898438 218.236328125 525.264648438 224 491 c 0
 223 378 l 1025
155 491 m 1
 293 514 l 1025
EndSplineSet
Validated: 3
EndChar

StartChar: uni671F
Encoding: 26399 26399 213
Width: 673
VWidth: 0
Flags: HW
LayerCount: 2
Fore
SplineSet
439 324 m 0
 470.327148438 325.108398438 519.759765625 353.4765625 555 349 c 1024
448 456 m 1
 561 466 l 1025
445 564 m 1
 595 588 l 0
 586 33 l 0
 523 87 l 1025
439 576 m 0
 437.73828125 568 438.754882812 560 439 552 c 0
 439 510.76953125 448 468.659179688 448 426 c 0
 448 271.122070312 372.086914062 188.405273438 328 51 c 0
 298 15 l 1025
241 216 m 1
 310 189 l 1025
142 219 m 0
 137.618164062 202.876953125 116.521484375 184.888671875 106 168 c 0
 58 132 l 1025
124 354 m 1
 130 354 l 0
 148.639648438 354.430664062 169.254882812 351.276367188 187 360 c 0
 200.279296875 360 214.064453125 360 229 360 c 1024
130 435 m 1
 220 447 l 1025
274 676 m 1
 271 255 l 1025
127 618 m 1
 130 261 l 1025
61 258 m 1
 229 279 l 0
 301 289 l 0
 349 301 l 1025
100 528 m 1
 295 558 l 0
 345 571 l 1025
EndSplineSet
Validated: 35
EndChar

StartChar: uni5C31
Encoding: 23601 23601 214
Width: 874
VWidth: 0
Flags: HW
LayerCount: 2
Fore
SplineSet
636 606 m 1
 708 567 l 1025
583 452 m 1
 583 443 l 0
 583 362.649414062 553 273.141601562 553 188 c 0
 553 156.827148438 564.328125 83 601 83 c 0
 651.749023438 83.5625 701.706054688 76.44921875 749 91 c 0
 751.044921875 91.62890625 773 100 773 100 c 0
 792 166 l 1025
448 453 m 0
 455.275390625 451.826171875 466.083007812 462.45703125 474 456 c 0
 696 504 l 1025
573 642 m 0
 552 387 501 270 430 123 c 0
 421.482421875 105.365234375 413.747070312 89.4306640625 409 72 c 1024
312 277 m 0
 336.163085938 259.436523438 336.713867188 220.32421875 366 208 c 1024
160 270 m 0
 148.486328125 258.591796875 154.73828125 240.173828125 136 234 c 0
 97 189 l 1025
253 363 m 1
 244 84 l 0
 238 96 l 0
 181 162 l 1025
163 351 m 0
 201.440429688 358.228515625 243.993164062 358.05078125 283 372 c 0
 316 369 l 1025
121 456 m 1
 359 495 l 0
 359 495 339.337890625 463.35546875 335 456 c 0
 316 360 l 1025
133 447 m 0
 148.9453125 416.716796875 147.1953125 375.702148438 169 348 c 1024
262 618 m 0
 264.5234375 609.305664062 273.037109375 601.102539062 277 591 c 0
 301 564 l 1025
76 504 m 0
 81.298828125 504 90.6806640625 504 97 504 c 0
 166.747070312 504 246.365234375 516.083984375 319 522 c 0
 400 537 l 1025
EndSplineSet
Validated: 35
EndChar

StartChar: uni5F00
Encoding: 24320 24320 215
Width: 745
VWidth: 0
Flags: HW
LayerCount: 2
Fore
SplineSet
43 375 m 0
 188.09375 428.091796875 379.62109375 414.014648438 541 432 c 0
 673 456 l 1025
415 623 m 1
 415 611 l 0
 415 448.569335938 418.999023438 232.708984375 421 69 c 1024
271 579 m 0
 269.459960938 569 271.3359375 559 271 549 c 0
 271 414.301757812 280 252 180 149 c 0
 150 119 l 1025
142 579 m 1
 538 612 l 1025
EndSplineSet
Validated: 35
EndChar

StartChar: uni59CB
Encoding: 22987 22987 216
Width: 823
VWidth: 0
Flags: HW
LayerCount: 2
Fore
SplineSet
479 120 m 0
 549.697265625 135.353515625 627.000976562 135.955078125 704 135 c 1024
476 303 m 0
 478.888671875 303 483.77734375 303 488 303 c 0
 550.413085938 303 609.434570312 327 674 327 c 0
 695.7890625 327 704.686523438 332.34375 725 336 c 0
 695 123 l 1025
476 312 m 1
 476 303 l 0
 476 274.458984375 495.233398438 232.19140625 503 204 c 0
 518 117 l 1025
626 510 m 1
 632 510 l 0
 655.776367188 479.005859375 674.56640625 435.873046875 704 414 c 1024
581 615 m 0
 554.421875 568.727539062 525.69140625 522.418945312 503 474 c 0
 490.372070312 447.0546875 470 396 470 396 c 0
 511.13671875 403.008789062 554.983398438 419.916992188 599 429 c 0
 599.000976562 429 643.997070312 440.991210938 644 441 c 0
 671 450 l 1025
382 513 m 0
 374.971679688 336.737304688 283 153 100 61 c 0
 61 52 l 1025
76 420 m 1
 85 420 l 0
 96.1171875 418.209960938 106.192382812 422.216796875 118 423 c 0
 172.96484375 426.645507812 232.80859375 438.8046875 289 447 c 0
 379 453 l 1025
220 618 m 1
 196 477 l 0
 188.885742188 423.458984375 174.837890625 371.21875 169 318 c 0
 167.620117188 305.416992188 157 287.650390625 157 279 c 0
 158.872070312 269.239257812 170.935546875 263.294921875 178 255 c 0
 199.3359375 229.946289062 232.571289062 207.69921875 259 186 c 0
 400 72 l 1025
EndSplineSet
Validated: 35
EndChar

StartChar: uni7814
Encoding: 30740 30740 217
Width: 814
VWidth: 0
Flags: HW
LayerCount: 2
Fore
SplineSet
376 402 m 0
 457.556640625 434.041992188 551.107421875 415.689453125 637 442 c 0
 748 459 l 1025
577 606 m 0
 587.447265625 568.009765625 568.9453125 518.772460938 589 480 c 0
 592 81 l 1025
481 582 m 0
 480.319335938 575 480.319335938 568 481 561 c 0
 481 441.110351562 478 321 385 231 c 0
 352 207 l 1025
424 576 m 0
 426.888671875 576 431.77734375 576 436 576 c 0
 491.204101562 576 549.015625 592.09765625 604 600 c 0
 664 606 l 1025
139 323 m 1
 299 329 l 0
 320 332 l 1025
136 462 m 1
 281 474 l 0
 314 480 l 0
 299 320 l 1025
124 453 m 0
 148.801757812 441.538085938 149.9140625 385.744140625 163 353 c 1024
193 573 m 0
 162.462890625 508.1484375 129.444335938 443.139648438 85 387 c 0
 75.8984375 369.083007812 61.5146484375 354.34375 52 339 c 1024
103 570 m 0
 116.852539062 570 132.54296875 570 148 570 c 0
 214.14453125 569.151367188 252.87890625 571.200195312 319 585 c 1024
EndSplineSet
Validated: 35
EndChar

StartChar: uni7A76
Encoding: 31350 31350 218
Width: 722
VWidth: 0
Flags: HW
LayerCount: 2
Fore
SplineSet
151 309 m 0
 196.978515625 308.657226562 241.22265625 335.846679688 289 339 c 0
 306.732421875 340.169921875 425 372 425 372 c 0
 425 303.490234375 382 222.575195312 382 148 c 0
 382 80.8369140625 509.875 94 559 94 c 0
 610.231445312 84.388671875 639.6015625 149.349609375 631 193 c 1024
292 441 m 1
 292 429 l 0
 292 339.333984375 203.469726562 213.174804688 175 133 c 0
 148 106 l 1025
394 483 m 0
 391.196289062 489.01953125 399.529296875 484.686523438 403 486 c 0
 403 486 413.97265625 480.560546875 415 480 c 0
 478 408 l 1025
235 492 m 0
 221.333984375 476.787109375 206.719726562 465.879882812 193 450 c 0
 142 426 l 1025
271 639 m 0
 283.572265625 642.565429688 308.469726562 615.068359375 322 606 c 0
 332.586914062 607.115234375 323.171875 597.0234375 331 594 c 1024
83 531 m 1
 325 537 l 0
 523 558 l 0
 529.1171875 559.66796875 527.90234375 561 535 561 c 0
 542.3515625 561 541 557.091796875 541 549 c 0
 541 549 538 531.000976562 538 531 c 0
 520 492 l 1025
104 582 m 1
 71 462 l 1025
EndSplineSet
Validated: 35
EndChar

StartChar: uni6BD5
Encoding: 27605 27605 219
Width: 778
VWidth: 0
Flags: HW
LayerCount: 2
Fore
SplineSet
331 390 m 1
 346 219 l 0
 348.017578125 194.11328125 352 169.837890625 352 144 c 0
 352 99 l 0
 343 30 l 1025
52 270 m 0
 51.7724609375 281.219726562 68.0791015625 273.909179688 76 276 c 0
 251.047851562 301.778320312 428.971679688 302.7578125 607 312 c 0
 640.708007812 312 671.1875 312 706 312 c 1024
380 520 m 1
 389 520 l 0
 392.475585938 520 427.60546875 532.8203125 434 535 c 0
 569 595 l 1025
386 613 m 1
 389 448 l 0
 413.907226562 416.701171875 433 417 479 406 c 0
 494.433362869 402.309413227 514.474609375 394 533 394 c 0
 566.223632812 394 572.293945312 411.673828125 599 424 c 0
 605 463 l 1025
211 522 m 0
 221.416992188 524.762695312 232.788085938 531.28125 241 540 c 0
 283 558 l 1025
172 591 m 1
 178 525 l 0
 178 372 l 0
 217 414 l 0
 280 447 l 0
 292 453 l 1025
EndSplineSet
Validated: 3
EndChar

StartChar: uni4E1A
Encoding: 19994 19994 220
Width: 826
VWidth: 0
Flags: HW
LayerCount: 2
Fore
SplineSet
668 467 m 0
 606.806640625 380.888671875 543.391601562 284.206054688 506 188 c 0
 494 164 l 1025
131 479 m 0
 175.387695312 425.901367188 196.314453125 355.8671875 227 293 c 0
 260 179 l 1025
43 59 m 1
 52 59 l 0
 136.471679688 59 308.494140625 77.4130859375 395 86 c 0
 775 83 l 1025
488 636 m 0
 487.947265625 611.008789062 484.706054688 585.6015625 491 561 c 0
 491 457.137695312 475.150390625 292.5390625 467 191 c 0
 461 61 l 1025
323 615 m 1
 320 80 l 1025
EndSplineSet
Validated: 35
EndChar

StartChar: uni540E
Encoding: 21518 21518 221
Width: 712
VWidth: 0
Flags: HW
LayerCount: 2
Fore
SplineSet
235 75 m 0
 325.579101562 91.9990234375 422.916992188 103.602539062 520 102 c 1024
229 300 m 0
 238.991210938 300 250.607421875 300 262 300 c 0
 355.72265625 300 444.87890625 336 541 336 c 0
 541 336 484.426757812 176.634765625 472 141 c 0
 451 66 l 1025
229 312 m 0
 228.111328125 308 228.111328125 304 229 300 c 0
 229 249.920898438 239.0546875 197.109375 244 147 c 0
 250 81 l 1025
181 366 m 0
 330.137695312 399.978515625 485.525390625 416.75 637 441 c 0
 664 444 l 1025
166 564 m 1
 166 552 l 0
 166 497.081054688 175 442.541992188 175 387 c 0
 175 242.647460938 105.181640625 173.400390625 64 48 c 0
 49 39 l 1025
175 525 m 0
 171.708007812 517.75 181.958007812 523 187 522 c 0
 277.971679688 522 381.193359375 570.978515625 472 594 c 0
 514 615 l 1025
EndSplineSet
Validated: 35
EndChar

StartChar: uni5DE5
Encoding: 24037 24037 222
Width: 831
VWidth: 0
Flags: HW
LayerCount: 2
Fore
SplineSet
36 60 m 1
 54 60 l 0
 159.475585938 60 28.4794921875 58.1494140625 141 66 c 0
 747 69 l 0
 768 75 l 1025
387 583 m 1
 384 69 l 1025
168 582 m 1
 639 605 l 1025
EndSplineSet
Validated: 35
EndChar

StartChar: uni4F5C
Encoding: 20316 20316 223
Width: 703
VWidth: 0
Flags: HW
LayerCount: 2
Fore
SplineSet
382 244 m 1
 571 257 l 1025
379 378 m 1
 388 378 l 0
 544 401 l 0
 553 404 l 1025
379 516 m 1
 376 486 l 0
 376 204 l 0
 369 36 l 1025
346 516 m 0
 350.65234375 516 354.78515625 516 361 516 c 0
 383.137695312 516 397.31640625 521.67578125 418 525 c 0
 637 561 l 1025
457 654 m 0
 422.111328125 581.215820312 360.587890625 492.5234375 309 433 c 0
 259 387 l 1025
187 473 m 1
 187 461 l 0
 187 445.46484375 182.838867188 425.322265625 181 410 c 0
 184 89 l 0
 181 59 l 1025
262 587 m 0
 229.045898438 537.2734375 202.154296875 472.544921875 148 443 c 0
 142.756835938 440.139648438 106 409 106 409 c 0
 64 374 l 1025
EndSplineSet
Validated: 3
EndChar

StartChar: uni7EE7
Encoding: 32487 32487 224
Width: 802
VWidth: 0
Flags: HW
LayerCount: 2
Fore
SplineSet
580 304 m 0
 617.458007812 290.823242188 621.782226562 230.700195312 661 220 c 0
 676 211 l 1025
541 373 m 0
 517.513671875 314.89453125 488.791992188 258.41796875 457 205 c 0
 427 184 l 1025
544 640 m 1
 544 133 l 0
 538 127 l 1025
388 361 m 0
 390.888671875 361 395.77734375 361 400 361 c 0
 433 361 l 0
 688 400 l 1025
661 571 m 0
 648.703125 545.193359375 642.401367188 514.612304688 622 493 c 0
 610 463 l 1025
424 541 m 1
 430 541 l 0
 442.544921875 507.000976562 462.341796875 470.850585938 484 439 c 1024
322 76 m 0
 324.625 84.5859375 325.4453125 72.96484375 331 76 c 0
 751 82 l 1025
352 580 m 1
 349 42 l 1025
40 90 m 0
 76.919921875 100.313476562 132.279296875 111.24609375 172 132 c 0
 253 147 l 0
 268 150 l 1025
241 507 m 1
 241 498 l 0
 196 399 124 300 91 231 c 0
 91 231 243.762695312 233.669921875 274 234 c 1024
145 621 m 0
 144.25 618 144.25 615 145 612 c 0
 145 545.293945312 89.6552734375 460.57421875 67 399 c 0
 187 420 l 0
 217 423 l 1025
EndSplineSet
Validated: 3
EndChar

StartChar: uni7EED
Encoding: 32493 32493 225
Width: 745
VWidth: 0
Flags: HW
LayerCount: 2
Fore
SplineSet
502 204 m 0
 529.5078125 182.107421875 564.6015625 157.70703125 589 129 c 0
 604 105 l 1025
337 438 m 0
 373.390625 427.58984375 389.78515625 382.962890625 421 360 c 1024
313 372 m 0
 335.681640625 367.518554688 356.536132812 328.7421875 382 321 c 1024
274 282 m 1
 655 339 l 1025
463 449 m 1
 460 440 l 0
 460 336 l 0
 460 239.913085938 415 165 354 90 c 0
 286 42 l 1025
457 669 m 0
 455.401367188 651 457.5390625 633 457 615 c 0
 457 540 l 0
 466 480 l 1025
313 474 m 0
 431.663085938 497.245117188 556.099609375 502.788085938 679 510 c 0
 657.303710938 503.059570312 632.953125 487.0546875 608 460 c 1024
358 564 m 0
 362.305664062 564 367.305664062 564 373 564 c 0
 409 564 l 0
 550 588 l 1025
65 134 m 0
 104.725585938 152.53125 149.993164062 171.904296875 194 188 c 0
 233 194 l 1025
239 515 m 0
 182 422 140 377 68 284 c 0
 65.73046875 281.068359375 71.0341796875 281 74 281 c 0
 105.65625 281 159.623046875 323.177734375 193 331 c 0
 226 340 l 1025
165 656 m 1
 165 647 l 0
 158.528320312 630.813476562 148.114257812 584.772460938 140 569 c 0
 115.864257812 522.087890625 96.091796875 493.733398438 77 446 c 0
 182 449 l 0
 209 452 l 1025
EndSplineSet
Validated: 35
EndChar

StartChar: uni6DF1
Encoding: 28145 28145 226
Width: 769
VWidth: 0
Flags: HW
LayerCount: 2
Fore
SplineSet
439 352 m 0
 437.598632812 345 435.548828125 337.08984375 439 331 c 0
 490 241 568 181 622 151 c 0
 640 151 l 0
 685 145 l 1025
427 355 m 0
 382.754882812 264.1640625 358.502929688 137.673828125 238 124 c 0
 217 109 l 1025
420 483 m 1
 430 31 l 1025
274 364 m 0
 305.471679688 364 339.6953125 364 373 364 c 0
 528 394 l 0
 624 418 l 1025
511 526 m 0
 559.436523438 514.69140625 535.735351562 515.162109375 583 497 c 0
 619 482 l 1025
387 511 m 1
 381 511 l 0
 361.971679688 511 340.927734375 468.801757812 330 457 c 0
 306 433 l 1025
271 559 m 0
 353.793945312 580.306640625 461.715820312 586.291992188 556 595 c 0
 588.200195312 593.065429688 621.013671875 602.310546875 652 613 c 0
 704.717773438 631.186523438 657.508789062 584.383789062 643 562 c 0
 626 551 l 1025
292 616 m 0
 270.90234375 577.259765625 273.112304688 529.388671875 250 493 c 1024
175 376 m 1
 175 367 l 0
 175 287.5234375 90.107421875 156.748046875 61 85 c 1024
70 469 m 0
 76.3251953125 447.979492188 101.21875 447.657226562 115 433 c 0
 136 430 l 1025
115 625 m 1
 181 553 l 0
 196 541 l 1025
EndSplineSet
Validated: 35
EndChar

StartChar: uni5165
Encoding: 20837 20837 227
Width: 783
VWidth: 0
Flags: HW
LayerCount: 2
Fore
SplineSet
354 459 m 0
 300.161132812 311.608398438 240 156 66 51 c 0
 48 42 l 1025
231 618 m 1
 240 618 l 0
 263.463867188 608.881835938 298.694335938 596.155273438 306 567 c 0
 317.334960938 546.736328125 322.69921875 526.764648438 336 507 c 0
 352.9140625 478.616210938 364.594726562 448.98046875 381 420 c 0
 401.8203125 378.266601562 419.256835938 331.422851562 441 288 c 0
 442.203125 285.596679688 456 252 456 252 c 0
 501 180 l 0
 583 110 l 0
 637 80 l 0
 717 54 l 0
 735 51 l 1025
EndSplineSet
Validated: 3
EndChar

StartChar: uni751F
Encoding: 29983 29983 228
Width: 748
VWidth: 0
Flags: HW
LayerCount: 2
Fore
SplineSet
322 669 m 1
 325 45 l 1025
49 45 m 0
 66.302734375 55.5693359375 102.745117188 47.9091796875 121 51 c 0
 298 51 l 0
 363.673828125 51 424.869140625 66.81640625 490 75 c 0
 676 78 l 1025
205 249 m 1
 458 259 l 1025
181 457 m 1
 493 473 l 1025
205 547 m 0
 204.111328125 543 204.111328125 539 205 535 c 0
 207.883789062 516.954101562 190.377929688 507.250976562 190 490 c 0
 189.447265625 464.74609375 154.732421875 421.6484375 142 403 c 0
 130 394 l 1025
EndSplineSet
Validated: 35
EndChar

StartChar: uni7269
Encoding: 29289 29289 229
Width: 832
VWidth: 0
Flags: HW
LayerCount: 2
Fore
SplineSet
613 543 m 0
 543.172851562 401.5390625 510.370117188 172.715820312 349 81 c 0
 334 78 l 1025
499 546 m 0
 504.846679688 528.311523438 495.19140625 497.747070312 493 477 c 0
 485.598632812 458.326171875 473.845703125 444.235351562 472 423 c 0
 437.561523438 352.625 397.723632812 265.313476562 319 237 c 1024
736 552 m 1
 736 396 l 0
 721.314453125 320.651367188 723.931640625 242.850585938 709 168 c 0
 701.661132812 131.213867188 699.705078125 63 652 63 c 0
 601.11328125 63 662.478515625 59.869140625 607 75 c 0
 544 117 l 1025
418 528 m 0
 416.928710938 536.813476562 429.908203125 533.624023438 436 537 c 0
 454 537 l 0
 468.99609375 537 503.799804688 541.305664062 523 543 c 0
 736 552 l 1025
415 627 m 0
 413.4609375 612 415.201171875 597 415 582 c 0
 415 507 l 0
 406 453 l 1025
79 258 m 0
 143.994140625 277.43359375 192.483398438 334.0703125 259 354 c 0
 307 372 l 1025
178 660 m 0
 183.984375 629.93359375 190.627929688 563.59765625 196 522 c 0
 199 57 l 1025
103 498 m 1
 319 498 l 1025
124 597 m 0
 122.791015625 591 123.633789062 585 124 579 c 0
 121.364257812 558.615234375 118.030273438 539.9609375 109 522 c 0
 108.384765625 488.258789062 84.7451171875 459.595703125 88 426 c 1024
EndSplineSet
Validated: 35
EndChar

StartChar: uni91CD
Encoding: 37325 37325 230
Width: 796
VWidth: 0
Flags: HW
LayerCount: 2
Fore
SplineSet
361 591 m 0
 360.25 588 360.25 585 361 582 c 0
 361 567 l 0
 373 492 l 0
 367 132 l 0
 361 60 l 1025
82 54 m 0
 101.947265625 61.60546875 135.14453125 58.5185546875 157 66 c 0
 523 79 l 0
 688 72 l 1025
236 156 m 1
 505 177 l 1025
293 333 m 1
 477 353 l 1025
251 249 m 1
 516 269 l 1025
206 408 m 0
 299.688476562 416.533203125 465.930664062 438.514648438 555 431 c 0
 556.607421875 430.864257812 555 416 555 416 c 0
 546.248046875 379.375976562 519.4609375 353.099609375 501 320 c 0
 494.556640625 304.46875 486.334960938 288.631835938 477 275 c 1024
203 414 m 0
 218.245117188 395.631835938 234.651367188 344.698242188 251 315 c 0
 263 270 l 1025
52 462 m 1
 67 462 l 0
 110.91796875 462 164.168945312 470.0703125 211 474 c 0
 733 517 l 1025
222 570 m 1
 231 570 l 0
 236.514648438 570 262.947265625 577.329101562 270 579 c 0
 503 633 l 1025
EndSplineSet
Validated: 35
EndChar

StartChar: uni8981
Encoding: 35201 35201 231
Width: 729
VWidth: 0
Flags: HW
LayerCount: 2
Fore
SplineSet
467 355 m 0
 461.48046875 356.3203125 464.375976562 347.168945312 464 343 c 0
 444 121 267 82 86 28 c 1024
36 280 m 0
 43.12890625 272.14453125 73.017578125 278.963867188 84 283 c 0
 203.205078125 326.80859375 368.311523438 315.096679688 494 328 c 0
 678 334 l 1025
330 379 m 1
 330 370 l 0
 309.6328125 318.046875 292.951171875 292.102539062 264 244 c 0
 199 136 513.411132812 160.982421875 581 89 c 1024
210 411 m 1
 219 411 l 0
 350.515625 411 450.259765625 421.059570312 583 426 c 1024
183 535 m 0
 185.25 535 188.25 535 192 535 c 0
 215.22265625 535 218.8671875 541 244 541 c 0
 338.59375 535.364257812 413.939453125 544.8125 505 553 c 0
 534.216796875 555.626953125 579.505859375 548.422851562 601 565 c 0
 571 463 l 0
 556 423 l 1025
186 541 m 0
 189.932617188 526.822265625 192.095703125 508.624023438 195 493 c 0
 222 444 l 1025
426 622 m 1
 424 436 l 1025
331 625 m 1
 319 424 l 1025
235 616 m 0
 238.78515625 616 244.65234375 616 250 616 c 0
 534 637 l 1025
EndSplineSet
Validated: 35
EndChar

StartChar: uni7EC4
Encoding: 32452 32452 232
Width: 835
VWidth: 0
Flags: HW
LayerCount: 2
Fore
SplineSet
418 240 m 0
 458.581054688 267.940429688 514.340820312 264.466796875 562 279 c 0
 596 282 l 1025
413 420 m 1
 413 429 l 0
 413 429 520.672851562 443.22265625 527 444 c 0
 593 447 l 1025
289 54 m 1
 289 60 l 0
 289 80.935546875 335.452148438 77.298828125 346 81 c 0
 771 97 l 1025
382 577 m 1
 400 577 l 0
 495.322265625 577 536.403320312 608.651367188 627 625 c 0
 639 93 l 1025
388 568 m 0
 406.930664062 487.703125 403.571289062 422.569335938 421 342 c 0
 424 90 l 1025
48 34 m 1
 48 40 l 0
 133 99 183.1875 101.53125 262 126 c 1024
310 519 m 1
 268 438 l 0
 239.752929688 393.271484375 210.112304688 349.859375 178 309 c 0
 158.537109375 284.236328125 100 233.288085938 100 201 c 0
 100 201 104.666992188 201 106 201 c 0
 114.950195312 201 130.57421875 212.049804688 139 216 c 0
 262 249 l 1025
248 661 m 1
 248 655 l 0
 248 630.818359375 178.6484375 542.502929688 169 519 c 0
 94 414 l 0
 265 411 l 1025
EndSplineSet
Validated: 3
EndChar

StartChar: uni6210
Encoding: 25104 25104 233
Width: 745
VWidth: 0
Flags: HW
LayerCount: 2
Fore
SplineSet
142 457 m 0
 138.524538691 418.682973356 153.560549404 384.941259309 151 346 c 0
 151 188.897366411 124 160 49 40 c 0
 28 16 l 1025
404 619 m 0
 406.888671875 619 411.77734375 619 416 619 c 0
 440.3046875 619 448.634765625 599.302734375 470 586 c 0
 502 562 l 1025
582 388 m 0
 574.037109375 313.319335938 529.975585938 245.205078125 492 181 c 0
 438 127 l 1025
333 667 m 1
 369 532 l 0
 396.891601562 464.53515625 412.922851562 384.504882812 452 321 c 0
 498.651367188 245.186523438 550.892578125 49 654 49 c 0
 689.815429688 77.421875 691 83 709 128 c 1024
156 283 m 1
 222 289 l 0
 251.717773438 299.23046875 311.671875 331 345 331 c 0
 358.922851562 313.833984375 334.2109375 265.431640625 345 238 c 0
 357.493164062 206.23828125 355.796875 46 327 46 c 0
 311.69140625 46 329.279296875 45.10546875 315 49 c 0
 261 85 l 1025
156 466 m 0
 281.635742188 508.346679688 408.374023438 493.619140625 538 531 c 1024
EndSplineSet
Validated: 35
EndChar

StartChar: uni90E8
Encoding: 37096 37096 234
Width: 835
VWidth: 0
Flags: HW
LayerCount: 2
Fore
SplineSet
541 579 m 0
 543.427734375 590.313476562 561.7890625 582.271484375 571 588 c 0
 612.244140625 613.649414062 707.606445312 627 760 627 c 0
 769.643554688 627 777.840911722 625.619839495 772 615 c 0
 739 555 694 492 646 435 c 0
 643.256132692 431.741657572 651.5625 432 655 432 c 0
 673 432 l 0
 753.123046875 432 784 272.458984375 784 213 c 0
 784 192.66796875 723.831054688 183 709 183 c 0
 681.541015625 197.671875 664.655273438 223.697265625 646 246 c 1024
550 609 m 0
 548.751953125 595 549.657226562 581 550 567 c 0
 550 484.928710938 563.80078125 410.901367188 571 330 c 0
 574 24 l 1025
193 182 m 1
 393 192 l 1025
169 297 m 1
 410 323 l 0
 416.884765625 325.951171875 416.079101562 329 425 329 c 0
 429.76171875 329 428 308 428 308 c 0
 428 292.083007812 400.241210938 244.565429688 395 229 c 0
 384 198 l 1025
163 318 m 0
 161.533203125 312 163.133789062 306 163 300 c 0
 163 257.456054688 185.0078125 239.637695312 196 200 c 1024
49 366 m 1
 55 366 l 0
 207.974609375 420.5703125 377.37890625 379.508789062 532 414 c 1024
379 519 m 0
 357.865234375 510.805664062 367.904296875 473.533203125 355 459 c 0
 355 441 l 0
 346 429 l 1025
178 492 m 0
 172.926757812 478 208.997070312 464 214 450 c 0
 244 411 l 1025
265 654 m 0
 281.520507812 644.301757812 304.282226562 637.963867188 316 618 c 0
 337 582 l 1025
121 528 m 0
 130.412109375 528 143.2734375 528 154 528 c 0
 212.9375 528 268.252929688 539.783203125 328 546 c 0
 427 555 l 1025
EndSplineSet
Validated: 35
EndChar

StartChar: uni5206
Encoding: 20998 20998 235
Width: 664
VWidth: 0
Flags: HW
LayerCount: 2
Fore
SplineSet
271 379 m 1
 271 370 l 0
 271 249.747070312 163 157 82 97 c 0
 64 91 l 1025
169 376 m 1
 175 376 l 0
 260.756835938 376 389.693359375 417 476 417 c 0
 518.309570312 417 464.717773438 182.190429688 458 157 c 0
 434 67 414.139648438 86.078125 389 46 c 0
 342 99 l 1025
278 635 m 0
 286.936523438 646.766601562 296.67578125 619.555664062 308 614 c 0
 368.7109375 584.216796875 520.139648438 465.483398438 574 418 c 0
 622 400 l 1025
195 569 m 0
 193.888671875 565 195 561.005859375 195 557 c 0
 195 490.985351562 116.358398438 431.038085938 91 377 c 0
 31 335 l 1025
EndSplineSet
Validated: 35
EndChar

StartChar: uni591F
Encoding: 22815 22815 236
Width: 708
VWidth: 0
Flags: HW
LayerCount: 2
Fore
SplineSet
618 595 m 0
 609.139648438 536.58203125 580.391601562 467.331054688 526 433 c 0
 400 369 l 1025
479 247 m 1
 500 169 l 1025
623 295 m 0
 604.8125 205.501953125 518.846679688 148.883789062 440 115 c 0
 365 94 l 1025
467 292 m 1
 635 295 l 1025
479 340 m 1
 479 331 l 0
 479 285.640625 438.555664062 265.962890625 419 235 c 0
 410 226 l 1025
467 544 m 1
 473 544 l 0
 484.6875 544 491.862304688 523.03125 497 517 c 0
 521 478 l 1025
446 571 m 1
 545 574 l 0
 617 580 l 1025
461 625 m 0
 462.860351562 612.15625 454.100585938 600.881835938 452 589 c 0
 447.46875 565.00390625 439.583984375 541.834960938 428 523 c 1024
120 298 m 0
 123 298 126 298 129 298 c 0
 159 298 l 0
 288 310 l 1025
144 436 m 0
 153 436 162 436 171 436 c 0
 287 448 l 0
 284 295 l 1025
144 442 m 1
 144 292 l 1025
143 535 m 0
 165 535 187 535 209 535 c 0
 250.05078125 535 296.140625 550 332 550 c 0
 340.291015625 550 351.341796875 556 356 556 c 0
 364.553710938 535.474609375 361.5234375 500.626953125 360 475 c 0
 359.018554688 397.01953125 366.133789062 320.12109375 356 244 c 0
 354.622070312 211.680664062 342.147460938 185.205078125 341 154 c 0
 340.065429688 128.583007812 320.500976562 73 293 73 c 0
 263.0078125 73 255.184570312 91.7197265625 233 103 c 0
 227 118 l 1025
179 628 m 0
 156.776367188 583.130859375 137.141601562 530.875 107 487 c 0
 77 442 l 1025
EndSplineSet
Validated: 35
EndChar

StartChar: uni89E3
Encoding: 35299 35299 237
Width: 790
VWidth: 0
Flags: HW
LayerCount: 2
Fore
SplineSet
562 480 m 1
 560 379 l 0
 560 292 l 0
 555 28 l 1025
371 298 m 1
 383 298 l 0
 464.87890625 298 556.557617188 302.099609375 641 309 c 0
 736 317 l 1025
472 393 m 1
 674 410 l 1025
490 450 m 1
 490 441 l 0
 490 425.234375 477.229492188 404.525390625 472 390 c 0
 442 345 l 1025
535 653 m 0
 534.77734375 649 533.888671875 645 535 641 c 0
 535 596.021484375 519.299804688 601.580078125 506 561 c 0
 464 498 l 1025
457 642 m 1
 668 662 l 0
 655.766601562 646.192382812 663.314453125 616.5390625 654 601 c 0
 640.5390625 578.544921875 629.380859375 520.254882812 627 507 c 0
 582 537 l 1025
122 241 m 0
 128.190429688 241 128.4765625 241 136 241 c 0
 180.1640625 241 223.338867188 248.909179688 268 253 c 0
 304 259 l 1025
148 370 m 1
 321 380 l 1025
223 475 m 0
 222.77734375 471 221.888671875 467 223 463 c 0
 231.913085938 376.685546875 227.1015625 289.098632812 229 202 c 0
 228.897460938 166.381835938 228.752929688 116.6328125 220 94 c 1024
116 493 m 1
 345 507 l 0
 343 133 l 0
 340 58 l 0
 325 82 l 0
 289 118 l 1025
110 496 m 1
 104 331 l 0
 95 271 l 0
 88.2890625 203.497070312 71.7001953125 136.39453125 32 82 c 1024
137 596 m 0
 216 596 229.330078125 612.421875 303 614 c 0
 318.067382812 614.322265625 334.22265625 614 351 614 c 0
 327.001953125 614 286.201171875 547.111328125 258 527 c 0
 231 500 l 1025
176 668 m 1
 131 572 l 0
 96 539 l 0
 57 491 l 1025
EndSplineSet
Validated: 35
EndChar

StartChar: uni91CA
Encoding: 37322 37322 238
Width: 727
VWidth: 0
Flags: HW
LayerCount: 2
Fore
SplineSet
463 478 m 1
 463 23 l 1025
307 280 m 1
 673 283 l 1025
388 388 m 0
 390.888671875 388 395.77734375 388 400 388 c 0
 413.375 388 398.548828125 387.716796875 427 391 c 0
 541 394 l 1025
367 592 m 0
 426.095703125 552.59765625 502.391601562 517.288085938 562 469 c 0
 637 427 l 1025
346 646 m 0
 349.78515625 646 355.65234375 646 361 646 c 0
 416.3359375 643.754882812 472.241210938 649.930664062 526 667 c 0
 532.134765625 668.948242188 547 671.196289062 547 664 c 0
 547 590.1953125 462.5625 543.379882812 427 493 c 0
 334 436 l 1025
291 600 m 1
 267 567 l 0
 231 510 l 1025
69 570 m 0
 93.35546875 556.469726562 99.2841796875 524.557617188 123 507 c 0
 190.779296875 445.784179688 88 542 132 501 c 1024
195 423 m 0
 220.903320312 416.982421875 233.634765625 384.750976562 258 372 c 0
 282 342 l 1025
186 453 m 0
 162.059570312 420.06640625 144.80859375 385.091796875 123 351 c 0
 51 279 l 1025
39 423 m 1
 39 429 l 0
 39 448.393554688 223.817382812 458.991210938 243 462 c 0
 321 471 l 1025
195 642 m 0
 180.250976562 595.770507812 192.975585938 540.572265625 189 492 c 0
 189 240 l 0
 174 105 l 1025
96 606 m 0
 157.057617188 621.16015625 218.333007812 652.649414062 279 672 c 1024
EndSplineSet
Validated: 35
EndChar

StartChar: uni547D
Encoding: 21629 21629 239
Width: 672
VWidth: 0
Flags: HW
LayerCount: 2
Fore
SplineSet
331 397 m 1
 436 409 l 0
 448 409 l 0
 495.44921875 432.390625 469.399414062 354.315429688 472 325 c 0
 483 201 429.690429688 255.727539062 424 250 c 0
 397 259 l 1025
337 412 m 0
 335.533203125 406 337.133789062 400 337 394 c 0
 337 271.251953125 344.926757812 156.84765625 334 35 c 1024
127 259 m 0
 132.083007812 259 138.583007812 259 145 259 c 0
 178 259 l 0
 274 274 l 1025
100 391 m 0
 104.305664062 391 109.305664062 391 115 391 c 0
 165.411132812 391 217.559570312 409 268 409 c 0
 280 409 l 0
 274 283 l 1025
100 379 m 0
 108.34765625 354.336914062 111.486328125 321.448242188 124 298 c 0
 127 262 l 1025
193 471 m 1
 379 474 l 1025
301 636 m 0
 338.940429688 548.060546875 440 521 517 468 c 0
 622 426 l 1025
311 678 m 0
 262.591796875 590.711914062 200.95703125 521.786132812 121 462 c 0
 31 426 l 1025
EndSplineSet
Validated: 35
EndChar

StartChar: uni6E90
Encoding: 28304 28304 240
Width: 677
VWidth: 0
Flags: HW
LayerCount: 2
Fore
SplineSet
242 655 m 1
 242 647 l 0
 241.233398438 627.25 245.2421875 599.422851562 244 575 c 0
 232 339 248 195 64 19 c 1024
519 268 m 1
 525 268 l 0
 566.602539062 238.499023438 571.501953125 185.921875 617 167 c 1024
381 262 m 0
 368.53125 215.901367188 323.453125 173.944335938 281 152 c 1024
453 340 m 1
 453 334 l 0
 453 261.526367188 467 195.05078125 467 119 c 0
 467 117.814453125 466.744140625 53 458 53 c 0
 446.50390625 53 412.87109375 85.4716796875 404 92 c 0
 380 119 l 1025
327 445 m 1
 342 445 l 0
 447 445 l 0
 517 453 l 1025
348 355 m 1
 357 355 l 0
 384 355 l 0
 538 360 l 1025
309 523 m 1
 327 523 l 0
 421.754882812 523 489.94140625 550 578 550 c 0
 578 550 567.263671875 481.376953125 562 471 c 0
 526 342 l 1025
296 523 m 1
 296 514 l 0
 339 382 l 1025
438 628 m 0
 437.630859375 607.575195312 425.426757812 593.907226562 423 574 c 0
 399 532 l 1025
229 630 m 0
 332.716796875 630 482.418945312 649.955078125 585 655 c 0
 606 664 l 1025
147 343 m 1
 147 331 l 0
 147 266.764648438 59.0927734375 169.346679688 32 110 c 0
 26 98 l 1025
24 475 m 1
 30 475 l 0
 126 433 l 1025
75 625 m 0
 105.12890625 609.142578125 131.803710938 588.334960938 159 565 c 0
 174 550 l 1025
EndSplineSet
Validated: 35
EndChar

StartChar: uni548C
Encoding: 21644 21644 241
Width: 805
VWidth: 0
Flags: HW
LayerCount: 2
Fore
SplineSet
434 172 m 0
 497.783203125 189.6953125 565.032226562 171.97265625 629 190 c 0
 713 193 l 1025
446 403 m 0
 451 403 456 403 461 403 c 0
 489.487304688 403 737 413.3359375 737 421 c 0
 737 384.053710938 702.982421875 293.755859375 692 253 c 0
 689 175 l 1025
443 421 m 0
 457.483398438 356.501953125 459.150390625 257.576171875 458 178 c 1024
253 350 m 0
 293.374023438 326.118164062 343.0234375 312.846679688 385 290 c 1024
244 452 m 1
 244 440 l 0
 244 366.625 149.2734375 293.322265625 112 236 c 0
 82 212 l 1025
52 395 m 1
 58 395 l 0
 191.221679688 449.684570312 342.665039062 457.506835938 484 479 c 1024
237 594 m 1
 243 42 l 1025
114 576 m 1
 120 576 l 0
 195.766601562 576 295.15625 618.134765625 369 636 c 0
 396 648 l 1025
EndSplineSet
Validated: 35
EndChar

StartChar: uni6F14
Encoding: 28436 28436 242
Width: 696
VWidth: 0
Flags: HW
LayerCount: 2
Fore
SplineSet
320 313 m 0
 323.822265625 305.65234375 333.125 327.233398438 335 314 c 0
 472 313 l 1025
413 439 m 0
 413.607421875 432.666992188 412.700195312 426.333007812 413 420 c 0
 413 382.760742188 407.725585938 337.799804688 405 301 c 0
 398 234 l 1025
430 180 m 0
 466.168945312 146.274414062 487.962890625 90.8017578125 538 72 c 1024
334 183 m 1
 334 177 l 0
 334 162.923828125 309.693359375 135.489257812 304 126 c 0
 271 93 l 1025
319 237 m 0
 323.705078125 237 331.040039062 237 337 237 c 0
 373.383789062 237 409.930664062 235.038085938 448 234 c 0
 490 225 l 1025
292 369 m 0
 320.087890625 381.928710938 363 370 394 374 c 0
 420.822265625 377.4609375 471.5859375 386 505 386 c 0
 507.848632812 386 514 388.012695312 514 383 c 0
 498.681640625 331.942382812 485.641601562 271.493164062 466 231 c 1024
289 354 m 0
 308.181640625 331.751953125 301.9453125 315.325195312 319 290 c 0
 320.21875 281.045898438 313.358398438 248.259765625 325 243 c 1024
331 431 m 0
 329.763671875 459.5 344 412 346 431 c 0
 386.795898438 431 432.079101562 444.958007812 475 452 c 1024
396 601 m 0
 404.358398438 602.208984375 410.0078125 593.3125 420 592 c 0
 450 562 l 1025
222 493 m 0
 329.131835938 527.83984375 452.571289062 527.861328125 567 526 c 0
 585.525390625 526 604.834960938 529 624 529 c 0
 629.555664062 529 624.77734375 530 627 520 c 0
 600 460 l 1025
234 544 m 0
 233.083007812 538 233.583007812 532 234 526 c 0
 204 436 l 1025
175 304 m 0
 140.541015625 245.92578125 97.5283203125 193.6328125 61 139 c 0
 52 112 l 1025
58 448 m 1
 67 448 l 0
 83.4296875 448 107.447265625 431.09375 124 424 c 0
 157 394 l 1025
88 583 m 1
 94 583 l 0
 163 511 l 1025
EndSplineSet
Validated: 35
EndChar

StartChar: uni53D8
Encoding: 21464 21464 243
Width: 666
VWidth: 0
Flags: HW
LayerCount: 2
Fore
SplineSet
123 231 m 0
 284.635742188 194.399414062 442.2265625 81.9140625 603 60 c 0
 618 51 l 1025
177 282 m 0
 258.145507812 306.01953125 371.631835938 286.57421875 453 300 c 0
 558.282226562 317.37109375 314.706054688 106.348632812 291 84 c 0
 124 18 l 1025
453 468 m 0
 481.182617188 445.745117188 505.591796875 425.331054688 534 402 c 0
 543 393 l 1025
165 471 m 0
 143.248046875 465.221679688 144.719726562 431.030273438 123 414 c 0
 75 357 l 1025
279 669 m 1
 336 600 l 1025
393 549 m 1
 393 534 l 0
 393 477.178710938 382.975585938 413.370117188 378 354 c 1024
231 555 m 0
 231.8671875 544 231.8671875 533 231 522 c 0
 231 499.559570312 246 484.33984375 246 462 c 0
 246 442.913085938 249 415.217773438 249 402 c 0
 249 378 l 0
 255 369 l 1025
45 540 m 0
 66.3583984375 551.609375 104.704101562 535.53125 129 543 c 0
 197.00390625 543 274.06640625 555 342 555 c 0
 486 555 l 0
 495.244140625 555 503.147460938 561.318359375 510 564 c 0
 588 555 l 1025
EndSplineSet
Validated: 35
EndChar

StartChar: uni5E0C
Encoding: 24076 24076 244
Width: 676
VWidth: 0
Flags: HW
LayerCount: 2
Fore
SplineSet
304 407 m 0
 320.314453125 365.375976562 308.810546875 315.2578125 325 272 c 0
 331 23 l 1025
187 341 m 1
 367 347 l 0
 451 377 l 0
 457 299 l 0
 454 163 l 0
 415 202 l 1025
190 341 m 1
 193 226 l 1025
332.049804688 669.549804688 m 0
 320.556640625 662.85546875 319.418945312 647.333984375 308.950195312 638.049804688 c 0
 274.138671875 607.176757812 246.626953125 574.76171875 213.950195312 540.950195312 c 0
 144.650390625 509.450195312 l 1025
171.950195312 635.450195312 m 0
 180.765625 635.143554688 193.5390625 621.579101562 203.450195312 616.549804688 c 0
 229.96875 603.092773438 256.516601562 588.69140625 283.25 574.549804688 c 0
 375.650390625 536.75 l 0
 390.349609375 530.450195312 l 1025
59 421 m 0
 85 421 111 421 137 421 c 0
 263.080078125 421 389.536132812 443.017578125 515 454 c 0
 642 472 l 1025
245 529 m 0
 238.841796875 509.711914062 237.264648438 488.67578125 230 469 c 0
 206 404 147.606445312 346.940429688 114 292 c 0
 48 238 l 1025
EndSplineSet
Validated: 3
EndChar

StartChar: uni671B
Encoding: 26395 26395 245
Width: 670
VWidth: 0
Flags: HW
LayerCount: 2
Fore
SplineSet
319 274 m 1
 316 70 l 0
 308.43359375 65.8232421875 308.6875 58.515625 310 52 c 1024
217 154 m 1
 232 154 l 0
 391 187 l 0
 424 193 l 1025
58 31 m 1
 70 31 l 0
 194.97265625 31 327.888671875 45.146484375 454 57 c 0
 631 58 l 1025
175 256 m 0
 189.513671875 258.318359375 205.12109375 271.442382812 223 265 c 0
 430 295 l 1025
379 421 m 1
 523 421 l 1025
385 511 m 1
 517 511 l 1025
403 607 m 1
 534 616 l 0
 545.75390625 618.014648438 557.127929688 622 570 622 c 0
 583.818359375 616.166992188 564.438476562 598.735351562 570 586 c 0
 554.634765625 502.967773438 547.998046875 403.455078125 553 313 c 0
 553.796875 298.588867188 555.216796875 292 541 292 c 0
 540.999023438 292 526.001953125 295 526 295 c 0
 475 325 l 1025
403 616 m 0
 402.0078125 608 402.432617188 600 403 592 c 0
 403 496.571289062 384.833007812 447.140625 358 367 c 0
 307 313 l 1025
191 649 m 0
 196.104492188 641.956054688 208.162109375 637.678710938 218 634 c 0
 269 601 l 1025
148 536 m 0
 147.305664062 531 147.305664062 526 148 521 c 0
 149.76171875 475.303710938 133.075195312 449.126953125 130 406 c 0
 129.095703125 393.3125 127 380.59765625 127 367 c 0
 127 356.471679688 118 348.946289062 118 337 c 0
 118 337 122.666992188 337 124 337 c 0
 143.182617188 337 201.314453125 396.724609375 217 409 c 0
 241 424 l 1025
34 539 m 0
 39.740234375 539 47.8095703125 539 55 539 c 0
 124 539 l 0
 316 581 l 0
 352 584 l 1025
EndSplineSet
Validated: 35
EndChar

StartChar: uni901A
Encoding: 36890 36890 246
Width: 781
VWidth: 0
Flags: HW
LayerCount: 2
Fore
SplineSet
427 273 m 1
 592 294 l 1025
421 354 m 1
 600 374 l 1025
493 438 m 1
 490 429 l 0
 490 350.544921875 485.994140625 240.8203125 489 162 c 1024
370 456 m 0
 374.305664062 456 379.305664062 456 385 456 c 0
 476.817382812 456 531.078125 486 627 486 c 0
 636.28515625 486 645 489.239257812 645 477 c 0
 645 380.114257812 631 248.599609375 631 150 c 0
 631 139.591796875 632.71875 135.8203125 634 126 c 0
 607 156 l 1025
355 441 m 0
 360.888671875 444 354.77734375 433 358 432 c 0
 358.50390625 363.759765625 356.967773438 295.720703125 352 228 c 0
 349.697265625 211.451171875 354.28515625 191.7109375 349 177 c 1024
399 518 m 0
 430.10546875 517.396484375 431.635742188 498.93359375 457 483 c 0
 487 453 l 1025
382 603 m 0
 386.349609375 603 395.049804688 603 400 603 c 0
 451.36328125 600.200195312 503.95703125 610.768554688 556 615 c 0
 563.18359375 615.583984375 577 618.565429688 577 609 c 0
 577 597 l 0
 472 477 l 1025
121 600 m 0
 160.876953125 589.861328125 177.145507812 538.3046875 211 522 c 1024
60 58 m 1
 123 112 l 0
 152.467773438 131.96484375 141.728515625 126.911132812 178 132 c 0
 201.276367188 135.265625 227.836914062 132 253 132 c 0
 334.892578125 132 444.24609375 81.640625 526 60 c 0
 737 77 l 1025
44 433 m 0
 45.845703125 444.1484375 58.6044921875 437.283203125 68 439 c 0
 102.141601562 424.5546875 271.544921875 507.971679688 203 448 c 0
 173.338867188 422.048828125 169 404.4765625 169 366 c 0
 161.61328125 342.240234375 184.983398438 328.244140625 196 312 c 0
 201.65234375 303.666015625 215.142578125 288.762695312 223 282 c 0
 220 204 l 0
 202 144 l 1025
EndSplineSet
Validated: 35
EndChar

StartChar: uni5B9E
Encoding: 23454 23454 247
Width: 610
VWidth: 0
Flags: HW
LayerCount: 2
Fore
SplineSet
345 184 m 0
 359.21484375 170.741210938 377.40234375 158.990234375 393 145 c 0
 510 67 l 1025
114 478 m 1
 120 478 l 0
 130.43359375 478 151.40234375 464.65234375 162 460 c 0
 234 412 l 1025
99 388 m 0
 121.268554688 370.415039062 154.404296875 366.060546875 180 349 c 0
 195 334 l 1025
33 271 m 0
 41.6474609375 271 56.3447265625 271 66 271 c 0
 218.432617188 271 376.311523438 290.999023438 531 301 c 1024
315 493 m 0
 313.693359375 481 314.671875 469 315 457 c 0
 315 294.328125 236.245117188 234.999023438 186 94 c 0
 132 34 l 1025
240 664 m 0
 252.205078125 658.631835938 265.24609375 652.36328125 279 646 c 0
 297 622 l 1025
63 529 m 1
 150 535 l 0
 276.524414062 550.971679688 430.067382812 586 555 586 c 0
 555 586 542.364257812 561.565429688 534 544 c 0
 513 496 l 1025
75 592 m 0
 66.7587890625 580.600585938 68.2841796875 563.891601562 69 550 c 0
 69.36328125 542.944335938 63.072265625 520.9921875 60 514 c 0
 42 448 l 1025
EndSplineSet
Validated: 35
EndChar

StartChar: uni9A8C
Encoding: 39564 39564 248
Width: 760
VWidth: 0
Flags: HW
LayerCount: 2
Fore
SplineSet
357 84 m 0
 397.5234375 94.83984375 446.653320312 88.0439453125 489 102 c 0
 714 105 l 1025
672 342 m 0
 653.087890625 282.51953125 596.204101562 191.25390625 594 114 c 0
 585 96 l 1025
510 315 m 0
 520.685546875 297.7421875 531.60546875 278.541992188 543 261 c 0
 576 225 l 1025
441 255 m 1
 450 255 l 0
 471.64453125 255 496.717773438 213.15625 510 201 c 0
 528 177 l 1025
435 393 m 1
 603 396 l 1025
501 579 m 0
 569.389648438 511.748046875 605.4921875 436.756835938 707 426 c 1024
522 615 m 0
 476.5625 549.353515625 434.080078125 464.151367188 354 438 c 0
 324 423 l 1025
36 166 m 0
 114.561523438 199.600585938 153.326171875 222.064453125 232 246 c 0
 221 255 l 1025
102 538 m 1
 102 526 l 0
 104.064453125 482.779296875 94.361328125 442.575195312 90 400 c 0
 88.5322265625 385.671875 81 370.111328125 81 355 c 0
 76.5615234375 333.162109375 106.255859375 357.372070312 117 355 c 0
 154.708007812 346.674804688 324 384 324 384 c 0
 324 352.729492188 293.092773438 57 280 57 c 0
 261.743164062 57 252.596679688 77.2080078125 237 84 c 0
 205 108 l 1025
60 574 m 1
 257 600 l 0
 238 486 l 0
 217 399 l 1025
EndSplineSet
Validated: 35
EndChar

StartChar: uni627E
Encoding: 25214 25214 249
Width: 760
VWidth: 0
Flags: HW
LayerCount: 2
Fore
SplineSet
442 597 m 1
 448 597 l 0
 485.822265625 584.923828125 510.189453125 545.975585938 547 531 c 1024
322 381 m 0
 355.751953125 384.705078125 393.1171875 404.09375 430 411 c 0
 523 447 l 1025
592 378 m 0
 532.587890625 316.147460938 465.372070312 260.6484375 388 222 c 0
 301 183 l 1025
340 606 m 0
 395.204101562 423.374023438 451.06640625 196.80078125 634 93 c 0
 658.96484375 108.983398438 677.836914062 145.993164062 688 174 c 1024
58 252 m 0
 105.407226562 263.223632812 158.213867188 277.147460938 208 294 c 0
 271 309 l 1025
55 423 m 1
 70 423 l 0
 95.94921875 423 148.750976562 449.9140625 175 459 c 0
 265 477 l 1025
166 603 m 1
 172 159 l 0
 172.982421875 148.524414062 175 137.409179688 175 126 c 0
 175 113.899414062 178.418945312 102 166 102 c 0
 154.518554688 102 140.955078125 117.779296875 133 123 c 0
 76 141 l 1025
EndSplineSet
Validated: 3
EndChar

StartChar: uni5230
Encoding: 21040 21040 250
Width: 655
VWidth: 0
Flags: HW
LayerCount: 2
Fore
SplineSet
596 633 m 1
 593 354 l 0
 584 57 l 0
 479 102 l 1025
488 525 m 1
 491 405 l 0
 497 327 l 1025
229 459 m 1
 209 221 l 0
 209 209 l 1025
38 185 m 1
 50 185 l 0
 74 185 l 0
 383 233 l 0
 440 239 l 1025
131 311 m 1
 140 311 l 0
 169.076171875 311 203.444335938 325.25390625 233 332 c 0
 338 341 l 1025
286 522 m 0
 310.8671875 504.1796875 329.1796875 477.053710938 340 447 c 0
 364 420 l 1025
163 585 m 0
 162.836914062 556.137695312 137.767578125 535.947265625 127 510 c 0
 119.586914062 492.13671875 67 441.735351562 67 435 c 0
 67 429.932617188 79.9892578125 432 82 432 c 0
 100.02734375 432 122.142578125 446.678710938 139 453 c 0
 289 474 l 0
 313 477 l 1025
62 559 m 1
 250 588 l 0
 298 600 l 1025
EndSplineSet
Validated: 3
EndChar

StartChar: uni75BE
Encoding: 30142 30142 251
Width: 769
VWidth: 0
Flags: HW
LayerCount: 2
Fore
SplineSet
454 264 m 0
 510.529296875 218.591796875 560.532226562 120.469726562 622 77 c 0
 688 44 l 1025
286 258 m 1
 295 255 l 0
 319.318359375 255 357.04296875 261.388671875 382 264 c 0
 709 321 l 1025
472 435 m 0
 470.533203125 429 472.133789062 423 472 417 c 0
 472 298.969726562 421.013671875 214.670898438 394 108 c 0
 325 18 l 1025
388 429 m 0
 394.190429688 429 404.4765625 429 412 429 c 0
 517 429 l 0
 610 459 l 1025
418 492 m 0
 394.458007812 461.205078125 390.9453125 408.709960938 358 381 c 0
 337 366 l 1025
424 669 m 1
 436 669 l 0
 440.791015625 669 466.66796875 641.02734375 472 636 c 0
 499 597 l 1025
265 537 m 0
 347.908203125 569.36328125 467.319335938 561.688476562 562 564 c 0
 709 582 l 1025
268 546 m 0
 253.560546875 547.514648438 267.412109375 525.451171875 262 522 c 0
 262 483 l 0
 262 308.96875 169.309570312 188.809570312 121 36 c 0
 91 6 l 1025
37 198 m 0
 52.2666015625 203.150390625 72.15625 212.479492188 91 216 c 0
 133.329101562 223.908203125 180.926757812 254.030273438 220 273 c 0
 244 279 l 1025
91 477 m 1
 97 477 l 0
 146.094726562 463.612304688 191.447265625 426.443359375 223 384 c 1024
EndSplineSet
Validated: 3
EndChar

StartChar: uni75C5
Encoding: 30149 30149 252
Width: 766
VWidth: 0
Flags: HW
LayerCount: 2
Fore
SplineSet
289 406 m 1
 607 415 l 0
 615.77734375 416.212890625 700 421.028320312 700 423 c 0
 700 340.612304688 691 248.89453125 691 157 c 0
 691 117.766601562 697 73.8486328125 697 37 c 0
 697 37 672.595703125 49.388671875 667 52 c 0
 607 100 l 1025
289 409 m 1
 289 94 l 1025
455 352 m 0
 486.663085938 325.232421875 520.743164062 285.486328125 560 259 c 0
 581 238 l 1025
472 493 m 0
 457.395507812 430.840820312 431.506835938 316.78515625 389 271 c 0
 365 253 l 1025
331 481 m 1
 589 532 l 0
 616 535 l 1025
379 667 m 0
 393.958984375 659.82421875 407.504882812 648.52734375 421 637 c 0
 442 610 l 1025
196 568 m 1
 208 568 l 0
 333.239257812 568 476.392578125 608.927734375 601 628 c 0
 709 631 l 1025
196 586 m 0
 195.25 583 195.25 580 196 577 c 0
 196 503.487304688 214 432.921875 214 358 c 0
 214 234.55859375 152.877929688 144.715820312 121 34 c 0
 106 16 l 1025
25 226 m 0
 57.9990234375 256.883789062 102.908203125 281.576171875 145 304 c 0
 154 313 l 1025
58 532 m 0
 88.158203125 497.782226562 124.969726562 469.379882812 157 436 c 1024
EndSplineSet
Validated: 3
EndChar

StartChar: uni7C7B
Encoding: 31867 31867 253
Width: 622
VWidth: 0
Flags: HW
LayerCount: 2
Fore
SplineSet
276 275 m 0
 317.404296875 189.20703125 430.795898438 73.6103515625 530 44 c 0
 560 41 l 1025
300 347 m 0
 299.087890625 336.758789062 300.255859375 326.294921875 297 317 c 0
 257.788085938 205.056640625 199.423828125 167.987304688 138 77 c 0
 75 56 l 1025
35 236 m 1
 559 266 l 1025
313 466 m 1
 427 415 l 1025
286 523 m 0
 231.951171875 449.87109375 183.400390625 371.908203125 71 380 c 1024
430 637 m 0
 398.014648438 625.885742188 379.778320312 592.02734375 349 580 c 0
 334 568 l 1025
166 619 m 0
 174.4140625 611.1875 188.604492188 623.020507812 196 607 c 0
 253 559 l 1025
130 511 m 1
 511 514 l 1025
289 646 m 1
 292 556 l 0
 298 397 l 1025
EndSplineSet
Validated: 35
EndChar

StartChar: uni5065
Encoding: 20581 20581 254
Width: 709
VWidth: 0
Flags: HW
LayerCount: 2
Fore
SplineSet
469 642 m 0
 467.190429688 634 469.4765625 626 469 618 c 0
 469 554.663085938 486.983398438 491.784179688 496 429 c 0
 496 147 l 0
 490 129 l 1025
409 213 m 0
 412.78515625 213 418.65234375 213 424 213 c 0
 511 213 l 0
 604 225 l 1025
415 300 m 0
 435.755859375 300 458.573242188 300 481 300 c 0
 505.421875 300 528.217773438 303.905273438 553 306 c 0
 589 312 l 1025
376 450 m 1
 388 450 l 0
 455.663085938 450 540.458007812 474.671875 610 486 c 0
 663 489 l 1025
397 384 m 0
 400.611328125 384 407.34765625 384 412 384 c 0
 565 384 l 0
 599 392 l 1025
415 546 m 0
 421.829101562 546 430.69140625 546 439 546 c 0
 477.502929688 546 516.913085938 549.978515625 556 552 c 0
 577 396 l 1025
196 174 m 1
 307 171 l 0
 400.092773438 141.602539062 469.401367188 87 574 87 c 0
 596.920898438 89.7919921875 623.95703125 81.126953125 646 96 c 1024
205 456 m 1
 295 480 l 0
 298.733398438 481.8046875 355 503.629882812 355 510 c 0
 340.827148438 496.674804688 337.567382812 472.9453125 322 465 c 0
 297.901367188 435.028320312 188.12109375 333.166992188 280 345 c 0
 311.942382812 349.11328125 334 355.538085938 334 315 c 0
 331.278320312 257.471679688 291.534179688 206.327148438 277 150 c 0
 276.5703125 148.3359375 265 120 265 120 c 0
 241 66 l 1025
154 525 m 1
 151 84 l 1025
214 627 m 0
 182.79296875 558.540039062 136.353515625 494.705078125 70 456 c 0
 43 447 l 1025
EndSplineSet
Validated: 35
EndChar

StartChar: uni5EB7
Encoding: 24247 24247 255
Width: 658
VWidth: 0
Flags: HW
LayerCount: 2
Fore
SplineSet
436 175 m 0
 479.559570312 192.009765625 541.166992188 181.892578125 571 232 c 1024
343 307 m 0
 390.6015625 219.598632812 448.584960938 131.223632812 538 76 c 0
 586 52 l 1025
160 253 m 1
 169 253 l 0
 169 253 189.619140625 242.763671875 193 241 c 0
 235 202 l 1025
268 196 m 0
 251.342773438 166.009765625 211.073242188 155.094726562 190 127 c 0
 178 124 l 1025
337 544 m 0
 335.611328125 539 337.34765625 534 337 529 c 0
 337 469 l 0
 346 133 l 0
 340 55 l 0
 247 109 l 1025
193 379 m 0
 252.634765625 387.481445312 315.060546875 407.430664062 376 415 c 0
 601 448 l 1025
232 307 m 0
 246.857421875 310.688476562 265.443359375 314.26953125 283 313 c 0
 391 337 l 0
 448 340 l 1025
250 457 m 0
 302.561523438 465.0546875 358.430664062 474.375976562 412 481 c 0
 418.384765625 481.7890625 428.961914062 493 439 493 c 0
 442.922851562 493 442 482.525390625 442 478 c 0
 442 433 l 0
 430 328 l 1025
274 631 m 1
 286 631 l 0
 334 601 l 1025
145 532 m 1
 154 532 l 0
 268.591796875 532 376.090820312 573.954101562 487 595 c 0
 499 601 l 1025
148 535 m 1
 145 352 l 0
 88 178 l 0
 31 91 l 1025
EndSplineSet
Validated: 35
EndChar

StartChar: uni8D21
Encoding: 36129 36129 256
Width: 829
VWidth: 0
Flags: HW
LayerCount: 2
Fore
SplineSet
403 186 m 1
 418 186 l 0
 460.420898438 186 544.392578125 97.939453125 580 80 c 0
 619 50 l 1025
412 360 m 0
 408.376953125 241.55859375 350.745117188 127.766601562 244 66 c 0
 169 36 l 1025
232 390 m 0
 355.663085938 418.465820312 491.174804688 418.796875 619 444 c 0
 621.048828125 444 622 439.79296875 622 438 c 0
 622 398.823242188 611.620117188 346.350585938 607 306 c 0
 598 216 l 1025
238 387 m 0
 245.736328125 389.241210938 233.279296875 370.248046875 247 372 c 0
 247 240 l 0
 253 222 l 1025
397 615 m 1
 400 606 l 0
 400 595.149414062 395.82421875 578.551757812 394 567 c 0
 391 459 l 1025
52 429 m 0
 207.70703125 446.587890625 364.065429688 483.520507812 523 486 c 0
 772 492 l 1025
208 603 m 0
 262.948242188 621.106445312 326.01953125 613.473632812 385 615 c 0
 583 636 l 1025
EndSplineSet
Validated: 35
EndChar

StartChar: uni732E
Encoding: 29486 29486 257
Width: 763
VWidth: 0
Flags: HW
LayerCount: 2
Fore
SplineSet
536 592 m 1
 635 541 l 1025
491 298 m 0
 557.17578125 226.313476562 626.049804688 147.08984375 693 75 c 0
 717 57 l 1025
397 363 m 0
 402.598632812 363 411 363 418 363 c 0
 484.825195312 363 526.231445312 412 593 412 c 0
 605 412 l 0
 644 427 l 1025
496 622 m 0
 506 469 508.0859375 337.118164062 497 199 c 0
 492.91015625 148.040039062 443.704101562 117.005859375 419 79 c 0
 401 70 l 1025
208 308 m 1
 216 92 l 1025
141 214 m 1
 289 223 l 1025
97 305 m 0
 96.634765625 313.921875 120.202148438 302.086914062 124 308 c 0
 262 318 l 0
 310 330 l 1025
265 390 m 1
 265 384 l 0
 254.177734375 361.580078125 231.669921875 362.748046875 235 335 c 1024
130 381 m 0
 139.284179688 366.638671875 149.934570312 371.7890625 163 359 c 0
 178 335 l 1025
49 390 m 0
 143.627929688 411.495117188 217.439453125 404.90625 316 423 c 0
 333.645507812 426.239257812 323.33203125 438 343 438 c 0
 343.921875 438 346 431.15234375 346 429 c 0
 346 388.883789062 348.971679688 57 334 57 c 0
 319 57 l 0
 274 84 l 1025
52 390 m 0
 61.2763671875 351.740234375 62.3681640625 306.860351562 73 267 c 0
 82 102 l 1025
64 504 m 0
 84.41796875 504 108.314453125 504 130 504 c 0
 165.264648438 504 201.342773438 505.97265625 238 507 c 0
 343 522 l 1025
202 603 m 0
 200.806640625 591 202.025390625 579 202 567 c 0
 202 528.41015625 196.014648438 490.850585938 193 453 c 0
 181 426 l 1025
EndSplineSet
Validated: 35
EndChar

StartChar: uni5BA4
Encoding: 23460 23460 258
Width: 583
VWidth: 0
Flags: HW
LayerCount: 2
Fore
SplineSet
273 293 m 1
 273 53 l 1025
54 67 m 0
 72.6083984375 67 98.6279296875 67 117 67 c 0
 243.088867188 61.3916015625 368.2421875 71.896484375 495 82 c 0
 508.418945312 82 521.958007812 82 537 82 c 1024
168 211 m 0
 172.650390625 211 179.549804688 211 186 211 c 0
 218.349609375 211 251.422851562 214.944335938 285 217 c 0
 399 235 l 1025
327 367 m 0
 345.676757812 356.192382812 339.30859375 332.134765625 357 319 c 0
 378 277 l 1025
264 439 m 0
 227.64453125 396.5625 208.576171875 336.947265625 171 295 c 0
 171 295 212.499023438 294.98828125 213 295 c 0
 360 322 l 1025
162 445 m 0
 190.626953125 445 221.564453125 445 252 445 c 0
 294.165039062 448.955078125 338.459960938 437.728515625 381 451 c 1024
271 637 m 0
 279.870117188 630.913085938 287.987304688 622.795898438 295 613 c 0
 319 568 l 1025
73 511 m 0
 208.008789062 535.799804688 357.326171875 517.140625 493 556 c 0
 547.12890625 574.573242188 484.1171875 512.963867188 475 493 c 1024
91 577 m 1
 55 487 l 0
 46 472 l 1025
EndSplineSet
Validated: 35
EndChar

StartChar: uni4E13
Encoding: 19987 19987 259
Width: 835
VWidth: 0
Flags: HW
LayerCount: 2
Fore
SplineSet
199 519 m 0
 216.083984375 526.932617188 245.591796875 522.28515625 265 531 c 0
 592 579 l 1025
50 391 m 1
 68 391 l 0
 316.369140625 391 554.107421875 431.56640625 803 456 c 1024
253 153 m 0
 313.041015625 133.107421875 362.583984375 83.9697265625 412 42 c 0
 457 15 l 1025
256 231 m 1
 262 231 l 0
 276.958984375 236.5234375 297.315429688 236.767578125 313 246 c 0
 352.166015625 269.053710938 500.528320312 286 546 286 c 0
 517.129882812 265.692382812 478 216 438 175 c 0
 419.833007812 156.37890625 388.110351562 132.120117188 373 111 c 0
 358 87 l 1025
399 668 m 0
 387.165039062 588.65625 353.693359375 453.626953125 343 372 c 0
 342.515625 368.302734375 328 318 328 318 c 0
 310 252 l 1025
EndSplineSet
Validated: 3
EndChar

StartChar: uni6CE8
Encoding: 27880 27880 260
Width: 829
VWidth: 0
Flags: HW
LayerCount: 2
Fore
SplineSet
381 649 m 1
 390 652 l 0
 423.311523438 632.799804688 463.381835938 621.2578125 495 598 c 1024
447 529 m 1
 447 523 l 0
 429 151 l 0
 426 43 l 1025
219 31 m 1
 228 31 l 0
 406.9140625 31 604.35546875 45.076171875 789 52 c 1024
345 325 m 1
 567 328 l 0
 573 334 l 1025
306 514 m 1
 315 514 l 0
 326.619140625 523.0078125 340.533203125 523.874023438 357 523 c 0
 432.040039062 519.017578125 536.83984375 551.125976562 615 565 c 1024
270 311 m 0
 207.061523438 243.057617188 162.322265625 153.189453125 87 98 c 0
 42 53 l 1025
72 452 m 0
 112.967773438 418.729492188 151.836914062 376.6484375 201 356 c 0
 216 344 l 1025
99 623 m 0
 140.501953125 584.524414062 171.754882812 538.48828125 213 497 c 0
 225 479 l 1025
EndSplineSet
Validated: 35
EndChar

StartChar: uni7FFC
Encoding: 32764 32764 261
Width: 529
VWidth: 0
Flags: HW
LayerCount: 2
Fore
SplineSet
328.544921875 121.315429688 m 1
 335.474609375 121.315429688 l 0
 384.813476562 112.989257812 390.077148438 81.2890625 436.384765625 63.5654296875 c 1024
190.734375 131.345703125 m 1
 183.8046875 131.345703125 l 0
 164.764648438 131.345703125 135.370117188 92.021484375 121.434570312 80.525390625 c 0
 107.575195312 62.044921875 l 1025
28.275390625 158.3046875 m 1
 478.724609375 155.995117188 l 1025
67.544921875 229.154296875 m 1
 74.474609375 229.154296875 l 0
 198.793945312 229.154296875 341.088867188 250.962890625 469.484375 261.495117188 c 1024
312.404296875 284.595703125 m 1
 312.404296875 141.375 l 1025
199.215820312 282.284179688 m 1
 199.215820312 275.354492188 l 0
 199.043945312 238.970703125 214.556640625 205.515625 213.075195312 169.095703125 c 1024
243.104492188 454.775390625 m 1
 243.104492188 332.345703125 l 1025
187.665039062 385.474609375 m 0
 202.75390625 385.75 221.408203125 383.416992188 236.174804688 392.404296875 c 0
 305.474609375 394.715820312 l 1025
139.154296875 317.6953125 m 0
 143.384765625 324.288085938 155.854492188 316.263671875 162.254882812 320.004882812 c 0
 247.762695312 320.004882812 330.337890625 315.427734375 416.354492188 313.075195312 c 1024
104.504882812 440.915039062 m 0
 202.395507812 468.901367188 309.34765625 454.764648438 409.424804688 470.9453125 c 0
 409.424804688 470.9453125 380.892578125 379.532226562 377.084960938 366.995117188 c 0
 353.984375 317.6953125 l 1025
90.6455078125 443.224609375 m 1
 95.265625 443.224609375 l 0
 119.677734375 443.224609375 131.143554688 347.8359375 136.845703125 332.345703125 c 0
 150.705078125 324.625 l 1025
263.895507812 496.354492188 m 0
 266.67578125 496.354492188 271.862304688 496.354492188 275.4453125 496.354492188 c 0
 316.220703125 496.354492188 354.642578125 513.381835938 393.254882812 521.765625 c 0
 411.734375 524.075195312 l 1025
303.165039062 582.615234375 m 1
 374.775390625 567.965820312 l 1025
298.544921875 619.575195312 m 1
 356.294921875 621.884765625 l 0
 370.888671875 625.155273438 386.981445312 630.624023438 404.8046875 631.125 c 0
 414.969726562 631.411132812 427.232421875 633.434570312 439.455078125 633.434570312 c 0
 459.845703125 633.434570312 453.315429688 596.8984375 453.315429688 581.825195312 c 0
 453.315429688 560.001953125 443.709960938 531.963867188 439.455078125 510.215820312 c 0
 434.834960938 505.595703125 l 1025
49.0654296875 482.495117188 m 0
 52.8681640625 482.495117188 57.8984375 482.495117188 62.9248046875 482.495117188 c 0
 104.504882812 482.495117188 l 0
 146.084960938 494.044921875 l 1025
95.265625 579.515625 m 0
 115.861328125 574.717773438 132.206054688 552.48046875 155.325195312 547.174804688 c 1024
76.7841796875 591.854492188 m 0
 79.892578125 591.854492188 83.890625 591.854492188 88.3349609375 591.854492188 c 0
 138.211914062 592.126953125 185.274414062 618.927734375 236.174804688 621.884765625 c 0
 272.270507812 623.982421875 199.630859375 536.037109375 180.734375 512.525390625 c 0
 171.495117188 482.495117188 l 1025
EndSplineSet
Validated: 35
EndChar

StartChar: uni5730
Encoding: 22320 22320 262
Width: 841
VWidth: 0
Flags: HW
LayerCount: 2
Fore
SplineSet
509 638 m 0
 508.215820312 634 508.215820312 630 509 626 c 0
 509 602.658203125 514.987304688 575.772460938 518 551 c 0
 512 224 l 1025
296 355 m 0
 301.34765625 355 304.611328125 355 311 355 c 0
 443.05859375 355 571.776367188 476 694 476 c 0
 683.333007812 424.473632812 664.080078125 348.8125 664 287 c 0
 671.928710938 238.642578125 610.352539062 294.3046875 589 296 c 1024
383 482 m 1
 389 278 l 0
 409 183 l 0
 418.6796875 170.1875 427.940429688 146.348632812 445 137 c 0
 492.373046875 104.708007812 553.526367188 112.463867188 611 100 c 0
 689.301757812 89.7607421875 796.846679688 92.216796875 794 193 c 1024
39 175 m 0
 42.111328125 175 46.111328125 175 51 175 c 0
 125.159179688 175 191.55078125 213.61328125 258 232 c 0
 306 250 l 1025
65 361 m 0
 123.412109375 372.146484375 184.974609375 414.067382812 251 415 c 1024
179 556 m 1
 179 214 l 1025
EndSplineSet
Validated: 35
EndChar

StartChar: uni8FDB
Encoding: 36827 36827 263
Width: 744
VWidth: 0
Flags: HW
LayerCount: 2
Fore
SplineSet
125 608 m 0
 127.125 593.232421875 156.473632812 604.467773438 158 584 c 0
 227 527 l 1025
252 304 m 0
 256.305664062 304 261.305664062 304 267 304 c 0
 323.203125 304 380.870117188 319.934570312 438 328 c 0
 623 346 l 1025
309 456 m 1
 533 477 l 0
 593 489 l 1025
498 564 m 1
 497 174 l 0
 500 156 l 1025
369 516 m 1
 381 447 l 0
 378 346 l 0
 364.051757812 290.03515625 335.122070312 223.669921875 288 192 c 1024
54 90 m 1
 111 120 l 0
 151.774414062 140.696289062 170.329101562 137.173828125 219 138 c 0
 280.909179688 149.184570312 330.838867188 120.252929688 387 105 c 0
 426.493164062 94.2744140625 465.51953125 90 513 90 c 0
 545.282226562 90 563.473632812 95.3642578125 597 99 c 0
 689 147 l 1025
54 413 m 0
 87.5927734375 423.90234375 131.458984375 429.149414062 168 438 c 0
 237 444 l 0
 186 375 l 0
 141 330 l 0
 139.318359375 326.077148438 135 318.84765625 135 315 c 0
 135 309 l 0
 195 141 l 1025
EndSplineSet
Validated: 35
EndChar

StartChar: uni884C
Encoding: 34892 34892 264
Width: 742
VWidth: 0
Flags: HW
LayerCount: 2
Fore
SplineSet
457 444 m 0
 443.470703125 423.608398438 454.4375 381.110351562 449 354 c 0
 449 231 l 0
 449 174.276367188 440 119.50390625 440 63 c 0
 440 63 442.540039062 63.576171875 392 72 c 0
 359 87 l 1025
250 408 m 0
 332.309570312 444.413085938 432.404296875 440.369140625 523 459 c 0
 570.043945312 468.674804688 629.985351562 478.9765625 679 483 c 0
 706 482 l 1025
338 541 m 0
 402.821289062 554.880859375 450.39453125 573.701171875 523 576 c 0
 559 585 l 1025
148 378 m 0
 146.059570312 369.6484375 150.994140625 359.765625 142 354 c 0
 133 75 l 1025
190 489 m 0
 169.103515625 421.110351562 127.959960938 338.4921875 52 321 c 0
 43 312 l 1025
160 624 m 0
 149.834960938 590.568359375 129.715820312 561.189453125 109 534 c 0
 79 510 l 1025
EndSplineSet
Validated: 35
EndChar

StartChar: uni7740
Encoding: 30528 30528 265
Width: 747
VWidth: 0
Flags: HW
LayerCount: 2
Fore
SplineSet
252 160 m 0
 329.428710938 173.26953125 416 166 504 183 c 0
 534 189 l 1025
266 270 m 0
 271.083007812 270 277.583007812 270 284 270 c 0
 518 276 l 1025
239 81 m 0
 243.640625 81 247.922851562 81 254 81 c 0
 452 81 l 0
 500 74 l 1025
242 370 m 0
 246.650390625 370 253.549804688 370 260 370 c 0
 362.681640625 370 466.856445312 397 569 397 c 0
 575.241210938 397 575 395.081054688 575 388 c 0
 560.564453125 259.758789062 560.603515625 240.314453125 563 111 c 0
 563.545898438 81.53515625 581.099609375 -12.08203125 524 38 c 0
 506 50 l 1025
254 352 m 0
 257.282226562 341.224609375 267.0859375 329.873046875 266 316 c 0
 263 81 l 0
 260 54 l 1025
329 568 m 0
 328.189453125 562 328.189453125 556 329 550 c 0
 329 372.790039062 144.923828125 266.3359375 62 139 c 0
 35 124 l 1025
85 431 m 1
 499 461 l 0
 716 471 l 1025
197 499 m 1
 215 499 l 0
 293.743164062 499 380.334960938 515.09765625 461 523 c 0
 506 532 l 1025
149 544 m 1
 161 544 l 0
 232.389648438 544 346.118164062 576.23828125 419 589 c 0
 557 598 l 1025
431 663 m 0
 420.74609375 654 413.047851562 645 404 636 c 0
 369 606 l 1025
210 659 m 1
 278 598 l 1025
EndSplineSet
Validated: 35
EndChar

StartChar: uni5404
Encoding: 21508 21508 266
Width: 671
VWidth: 0
Flags: HW
LayerCount: 2
Fore
SplineSet
200 57 m 0
 281.337890625 79.2783203125 387.64453125 59.728515625 479 66 c 1024
203 232 m 0
 211.390625 232 223.313476562 232 233 232 c 0
 310.950195312 232 383.190429688 265 461 265 c 0
 461 265 456.228515625 117.525390625 455 63 c 1024
197 217 m 0
 201.903320312 175.919921875 217.598632812 156.201171875 221 114 c 0
 233 90 l 1025
146 511 m 0
 161.690429688 498.233398438 180.948242188 478.870117188 203 469 c 0
 318.15625 417.458007812 428.796875 332.212890625 537 266 c 0
 630 242 l 1025
155 553 m 1
 439 587 l 0
 436.872070312 574.5859375 433 565.513671875 433 551 c 0
 433 424.020507812 258 304 167 244 c 0
 44 187 l 1025
206 631 m 0
 188.169921875 579.741210938 165.28515625 521.747070312 128 478 c 0
 77 427 l 1025
EndSplineSet
Validated: 35
EndChar

StartChar: uni79CD
Encoding: 31181 31181 267
Width: 775
VWidth: 0
Flags: HW
LayerCount: 2
Fore
SplineSet
552 673 m 0
 581 501 578.694335938 341.478515625 580 175 c 0
 581.435546875 129.978515625 578.025390625 83.5869140625 589 40 c 1024
391 334 m 0
 417.377929688 343.741210938 455.571289062 326.33203125 481 346 c 0
 657 346 l 0
 736 352 l 1025
418 544 m 0
 430.162109375 544 443.162109375 544 457 544 c 0
 516.676757812 541.275390625 607.459960938 554.967773438 667 565 c 0
 674.056640625 566.189453125 687.140625 571 694 571 c 0
 706.0546875 571 694.9296875 419.350585938 696 403 c 0
 702 340 l 1025
430 535 m 0
 436.485351562 492.12109375 438.546875 447.506835938 454 406 c 0
 457 352 l 1025
231 352 m 1
 330 304 l 1025
204 454 m 0
 175.559570312 372.296875 149.908203125 277.096679688 69 226 c 0
 39 205 l 1025
27 406 m 0
 36.638671875 408.104492188 49.1171875 414.663085938 60 418 c 0
 366 508 l 0
 378 511 l 1025
197 580 m 1
 197 31 l 1025
56 553 m 0
 127.428710938 599.396484375 237.709960938 580.166015625 320 604 c 0
 377 619 l 1025
EndSplineSet
Validated: 35
EndChar

StartChar: uni4E2A
Encoding: 20010 20010 268
Width: 640
VWidth: 0
Flags: HW
LayerCount: 2
Fore
SplineSet
277 474 m 0
 276.25 471 276.25 468 277 465 c 0
 277 452.530273438 280 439.01953125 280 426 c 0
 280 288.198242188 292.287109375 163.920898438 303 24 c 1024
286 621 m 0
 325.055664062 585.338867188 361.745117188 545.314453125 403 510 c 0
 598 378 l 1025
295 657 m 1
 268 600 l 0
 88 408 l 0
 43 381 l 1025
EndSplineSet
Validated: 3
EndChar

StartChar: uni73B0
Encoding: 29616 29616 269
Width: 811
VWidth: 0
Flags: HW
LayerCount: 2
Fore
SplineSet
514 315 m 1
 517 171 l 0
 533.33203125 92.9150390625 626.522460938 74.9521484375 697 78 c 0
 709.166015625 78.5263671875 742 70.9541015625 742 90 c 0
 742 99 l 0
 757 199 l 1025
535 528 m 0
 513.87109375 368.009765625 512.765625 125.310546875 325 69 c 0
 265 51 l 1025
421 582 m 1
 430 582 l 0
 430.004882812 582 459.999023438 591 460 591 c 0
 646 624 l 0
 649 312 l 1025
412 582 m 1
 412 567 l 0
 412 561.6328125 413.110351562 556.189453125 418 513 c 0
 421 324 l 1025
172 573 m 1
 172 564 l 0
 178 174 l 1025
40 111 m 1
 52 111 l 0
 114.891601562 111 193.578125 178.390625 247 204 c 0
 373 264 l 1025
103 378 m 1
 112 375 l 0
 131.046875 375 151.552734375 378.920898438 172 381 c 0
 250 399 l 1025
79 546 m 0
 141.54296875 562.72265625 209.162109375 583.709960938 274 600 c 1024
EndSplineSet
Validated: 35
EndChar

StartChar: uni4EE3
Encoding: 20195 20195 270
Width: 679
VWidth: 0
Flags: HW
LayerCount: 2
Fore
SplineSet
385 625 m 1
 475 562 l 1025
493 499 m 0
 467.364257812 425.801757812 408.314453125 367.841796875 337 340 c 0
 256 313 l 1025
271 628 m 1
 271 622 l 0
 275.073242188 584.951171875 292.801757812 557.98828125 307 523 c 0
 374.970703125 387.49609375 413 202 522 96 c 0
 531.907226562 86.365234375 553.71875 60 570 60 c 0
 583.159179688 60 601.272460938 93.458984375 609 102 c 0
 627 153 l 1025
130 481 m 1
 130 52 l 1025
214 610 m 1
 142 493 l 0
 40 406 l 0
 31 394 l 1025
EndSplineSet
Validated: 3
EndChar

